SplineFontDB: 3.0
FontName: Parisienne-Regular
FullName: Parisienne
FamilyName: Parisienne
Weight: Book
Copyright: Copyright (c) 2012 by Brian J. Bonislawsky DBA Astigmatic (AOETI) (astigma@astigmatic.com), with Reserved\nFont Name "Parisienne"
Version: 1.000
ItalicAngle: 0
UnderlinePosition: -113
UnderlineWidth: 20
Ascent: 1638
Descent: 410
sfntRevision: 0x00010000
LayerCount: 2
Layer: 0 1 "Back"  1
Layer: 1 1 "Fore"  0
XUID: [1021 232 844292323 6472509]
FSType: 0
OS2Version: 3
OS2_WeightWidthSlopeOnly: 0
OS2_UseTypoMetrics: 1
CreationTime: 1326185340
ModificationTime: 1327090718
PfmFamily: 65
TTFWeight: 400
TTFWidth: 5
LineGap: 0
VLineGap: 0
Panose: 3 2 5 7 0 0 0 2 0 2
OS2TypoAscent: 237
OS2TypoAOffset: 1
OS2TypoDescent: -505
OS2TypoDOffset: 1
OS2TypoLinegap: 0
OS2WinAscent: 0
OS2WinAOffset: 1
OS2WinDescent: 0
OS2WinDOffset: 1
HheadAscent: 0
HheadAOffset: 1
HheadDescent: 0
HheadDOffset: 1
OS2SubXSize: 700
OS2SubYSize: 650
OS2SubXOff: 0
OS2SubYOff: 140
OS2SupXSize: 700
OS2SupYSize: 650
OS2SupXOff: 0
OS2SupYOff: 477
OS2StrikeYSize: 102
OS2StrikeYPos: 512
OS2Vendor: 'AOEF'
OS2CodePages: 00000093.00000000
OS2UnicodeRanges: a00000af.4000004a.00000000.00000000
Lookup: 1 0 0 "'aalt' Access All Alternates in Latin lookup 0"  {"'aalt' Access All Alternates in Latin lookup 0 subtable"  } ['aalt' ('latn' <'dflt' > ) ]
Lookup: 1 0 0 "'sups' Superscript in Latin lookup 1"  {"'sups' Superscript in Latin lookup 1 subtable" ("superior" ) } ['sups' ('latn' <'dflt' > ) ]
Lookup: 4 0 1 "'liga' Standard Ligatures in Latin lookup 2"  {"'liga' Standard Ligatures in Latin lookup 2 subtable"  } ['liga' ('latn' <'dflt' > ) ]
Lookup: 6 0 0 "'ordn' Ordinals in Latin lookup 3"  {"'ordn' Ordinals in Latin lookup 3 subtable"  } ['ordn' ('latn' <'dflt' > ) ]

StartChar: F
Encoding: 70 70 4
Width: 1622
Flags: W
LayerCount: 2
Fore
SplineSet
1665 1184 m 2,0,1
 1664 1184 1664 1184 1628 1148.5 c 128,-1,2
 1592 1113 1592 1113 1532 1040.5 c 128,-1,3
 1472 968 1472 968 1393.5 857.5 c 128,-1,4
 1315 747 1315 747 1229 597 c 2,5,-1
 1190 529 l 1,6,7
 1223 537 1223 537 1257 544 c 128,-1,8
 1291 551 1291 551 1326 557 c 2,9,-1
 1371 566 l 1,10,11
 1403 624 1403 624 1429.5 661 c 128,-1,12
 1456 698 1456 698 1478.5 719.5 c 128,-1,13
 1501 741 1501 741 1520 749 c 128,-1,14
 1539 757 1539 757 1554 757 c 0,15,16
 1573 757 1573 757 1591 744 c 128,-1,17
 1609 731 1609 731 1609 697 c 0,18,19
 1609 670 1609 670 1596 645 c 128,-1,20
 1583 620 1583 620 1559 598 c 128,-1,21
 1535 576 1535 576 1502 559 c 128,-1,22
 1469 542 1469 542 1429 532 c 1,23,24
 1410 493 1410 493 1390 450.5 c 128,-1,25
 1370 408 1370 408 1348 365 c 128,-1,26
 1326 322 1326 322 1303 280.5 c 128,-1,27
 1280 239 1280 239 1255 202 c 1,28,-1
 1184 269 l 1,29,30
 1193 280 1193 280 1211.5 304 c 128,-1,31
 1230 328 1230 328 1251.5 358 c 128,-1,32
 1273 388 1273 388 1294 421.5 c 128,-1,33
 1315 455 1315 455 1330 485 c 2,34,-1
 1344 515 l 1,35,36
 1298 505 1298 505 1251.5 494.5 c 128,-1,37
 1205 484 1205 484 1156 471 c 1,38,39
 1079 339 1079 339 1005.5 231.5 c 128,-1,40
 932 124 932 124 849 47.5 c 128,-1,41
 766 -29 766 -29 667 -70.5 c 128,-1,42
 568 -112 568 -112 439 -112 c 0,43,44
 355 -112 355 -112 269.5 -88.5 c 128,-1,45
 184 -65 184 -65 115.5 -20 c 128,-1,46
 47 25 47 25 3.5 90 c 128,-1,47
 -40 155 -40 155 -40 238 c 0,48,49
 -40 303 -40 303 -14.5 353.5 c 128,-1,50
 11 404 11 404 55 438.5 c 128,-1,51
 99 473 99 473 157.5 490.5 c 128,-1,52
 216 508 216 508 281 508 c 0,53,54
 335 508 335 508 389.5 495 c 128,-1,55
 444 482 444 482 495 458 c 128,-1,56
 546 434 546 434 591.5 399.5 c 128,-1,57
 637 365 637 365 673 322 c 1,58,-1
 635 293 l 1,59,60
 605 323 605 323 568 346.5 c 128,-1,61
 531 370 531 370 489 386.5 c 128,-1,62
 447 403 447 403 403 411.5 c 128,-1,63
 359 420 359 420 316 420 c 0,64,65
 269 420 269 420 224 408 c 128,-1,66
 179 396 179 396 144 369.5 c 128,-1,67
 109 343 109 343 87 301.5 c 128,-1,68
 65 260 65 260 65 200 c 0,69,70
 65 146 65 146 92 99 c 128,-1,71
 119 52 119 52 165.5 17.5 c 128,-1,72
 212 -17 212 -17 274.5 -37 c 128,-1,73
 337 -57 337 -57 408 -57 c 0,74,75
 509 -57 509 -57 590 -19.5 c 128,-1,76
 671 18 671 18 739.5 83 c 128,-1,77
 808 148 808 148 868.5 235.5 c 128,-1,78
 929 323 929 323 989 422 c 1,79,80
 961 413 961 413 932 403 c 128,-1,81
 903 393 903 393 874 382 c 1,82,-1
 855 431 l 1,83,84
 901 446 901 446 943 459 c 128,-1,85
 985 472 985 472 1027 485 c 1,86,87
 1084 580 1084 580 1145.5 679.5 c 128,-1,88
 1207 779 1207 779 1280 874.5 c 128,-1,89
 1353 970 1353 970 1440.5 1057 c 128,-1,90
 1528 1144 1528 1144 1636 1215 c 1,91,-1
 1665 1184 l 2,0,1
990 640 m 1,92,93
 898 598 898 598 807 579 c 128,-1,94
 716 560 716 560 636 560 c 0,95,96
 543 560 543 560 466 585 c 128,-1,97
 389 610 389 610 333 655 c 128,-1,98
 277 700 277 700 246 763 c 128,-1,99
 215 826 215 826 215 902 c 0,100,101
 215 997 215 997 247.5 1071 c 128,-1,102
 280 1145 280 1145 336 1201.5 c 128,-1,103
 392 1258 392 1258 468 1297 c 128,-1,104
 544 1336 544 1336 631 1361 c 128,-1,105
 718 1386 718 1386 812 1397 c 128,-1,106
 906 1408 906 1408 998 1408 c 0,107,108
 1104 1408 1104 1408 1204 1395 c 128,-1,109
 1304 1382 1304 1382 1398.5 1366.5 c 128,-1,110
 1493 1351 1493 1351 1582 1338 c 128,-1,111
 1671 1325 1671 1325 1756 1325 c 0,112,113
 1853 1325 1853 1325 1935 1340 c 128,-1,114
 2017 1355 2017 1355 2076 1373.5 c 128,-1,115
 2135 1392 2135 1392 2168.5 1407.5 c 128,-1,116
 2202 1423 2202 1423 2203 1423 c 2,117,-1
 2228 1377 l 1,118,119
 2225 1375 2225 1375 2189 1358.5 c 128,-1,120
 2153 1342 2153 1342 2091.5 1322.5 c 128,-1,121
 2030 1303 2030 1303 1945 1287.5 c 128,-1,122
 1860 1272 1860 1272 1758 1272 c 0,123,124
 1663 1272 1663 1272 1575 1284.5 c 128,-1,125
 1487 1297 1487 1297 1397.5 1312 c 128,-1,126
 1308 1327 1308 1327 1212 1339.5 c 128,-1,127
 1116 1352 1116 1352 1005 1352 c 0,128,129
 841 1352 841 1352 715.5 1320.5 c 128,-1,130
 590 1289 590 1289 505.5 1230.5 c 128,-1,131
 421 1172 421 1172 378 1088.5 c 128,-1,132
 335 1005 335 1005 335 902 c 0,133,134
 335 831 335 831 362.5 778 c 128,-1,135
 390 725 390 725 436.5 690 c 128,-1,136
 483 655 483 655 543.5 637.5 c 128,-1,137
 604 620 604 620 670 620 c 0,138,139
 728 620 728 620 782 630 c 128,-1,140
 836 640 836 640 877 652.5 c 128,-1,141
 918 665 918 665 943 675.5 c 128,-1,142
 968 686 968 686 969 686 c 2,143,-1
 990 640 l 1,92,93
1544 705 m 0,144,145
 1527 705 1527 705 1505.5 673.5 c 128,-1,146
 1484 642 1484 642 1458 591 c 1,147,148
 1489 603 1489 603 1508 616 c 128,-1,149
 1527 629 1527 629 1538 642 c 128,-1,150
 1549 655 1549 655 1553 668 c 128,-1,151
 1557 681 1557 681 1557 693 c 0,152,153
 1557 700 1557 700 1553 702.5 c 128,-1,154
 1549 705 1549 705 1544 705 c 0,144,145
EndSplineSet
EndChar

StartChar: G
Encoding: 71 71 5
Width: 1452
Flags: W
LayerCount: 2
Fore
SplineSet
153 565 m 1,0,1
 222 573 222 573 287 583 c 128,-1,2
 352 593 352 593 413 606 c 1,3,4
 418 729 418 729 454 842 c 128,-1,5
 490 955 490 955 548 1052.5 c 128,-1,6
 606 1150 606 1150 681 1229.5 c 128,-1,7
 756 1309 756 1309 838.5 1365.5 c 128,-1,8
 921 1422 921 1422 1006.5 1453 c 128,-1,9
 1092 1484 1092 1484 1171 1484 c 0,10,11
 1277 1484 1277 1484 1332.5 1439.5 c 128,-1,12
 1388 1395 1388 1395 1388 1307 c 0,13,14
 1388 1204 1388 1204 1328 1098 c 128,-1,15
 1268 992 1268 992 1157.5 894.5 c 128,-1,16
 1047 797 1047 797 890.5 715.5 c 128,-1,17
 734 634 734 634 541 581 c 1,18,19
 541 518 541 518 556.5 460.5 c 128,-1,20
 572 403 572 403 603 358.5 c 128,-1,21
 634 314 634 314 679.5 288 c 128,-1,22
 725 262 725 262 785 262 c 0,23,24
 855 262 855 262 931 295 c 128,-1,25
 1007 328 1007 328 1080 379 c 128,-1,26
 1153 430 1153 430 1217 492.5 c 128,-1,27
 1281 555 1281 555 1328 615 c 0,28,29
 1416 728 1416 728 1470 784 c 128,-1,30
 1524 840 1524 840 1528 844 c 1,31,-1
 1564 806 l 1,32,33
 1472 717 1472 717 1401.5 616 c 128,-1,34
 1331 515 1331 515 1272 411.5 c 128,-1,35
 1213 308 1213 308 1161 205 c 128,-1,36
 1109 102 1109 102 1054 8 c 128,-1,37
 999 -86 999 -86 936.5 -166.5 c 128,-1,38
 874 -247 874 -247 794 -306 c 128,-1,39
 714 -365 714 -365 612.5 -398.5 c 128,-1,40
 511 -432 511 -432 378 -432 c 0,41,42
 254 -432 254 -432 154.5 -402.5 c 128,-1,43
 55 -373 55 -373 -15 -320.5 c 128,-1,44
 -85 -268 -85 -268 -122.5 -196.5 c 128,-1,45
 -160 -125 -160 -125 -160 -41 c 0,46,47
 -160 48 -160 48 -129.5 112.5 c 128,-1,48
 -99 177 -99 177 -50.5 218.5 c 128,-1,49
 -2 260 -2 260 59.5 279.5 c 128,-1,50
 121 299 121 299 183 299 c 0,51,52
 259 299 259 299 313 275 c 128,-1,53
 367 251 367 251 406 218 c 1,54,-1
 377 177 l 1,55,56
 365 187 365 187 348.5 199 c 128,-1,57
 332 211 332 211 310.5 221.5 c 128,-1,58
 289 232 289 232 263.5 239 c 128,-1,59
 238 246 238 246 209 246 c 0,60,61
 152 246 152 246 105 225 c 128,-1,62
 58 204 58 204 24.5 165.5 c 128,-1,63
 -9 127 -9 127 -27 74.5 c 128,-1,64
 -45 22 -45 22 -45 -41 c 0,65,66
 -45 -124 -45 -124 -9.5 -187.5 c 128,-1,67
 26 -251 26 -251 83.5 -293.5 c 128,-1,68
 141 -336 141 -336 213.5 -358 c 128,-1,69
 286 -380 286 -380 361 -380 c 0,70,71
 474 -380 474 -380 557.5 -347.5 c 128,-1,72
 641 -315 641 -315 706.5 -260 c 128,-1,73
 772 -205 772 -205 824.5 -131 c 128,-1,74
 877 -57 877 -57 927 26.5 c 128,-1,75
 977 110 977 110 1030 197.5 c 128,-1,76
 1083 285 1083 285 1151 369 c 1,77,78
 1042 279 1042 279 937.5 231.5 c 128,-1,79
 833 184 833 184 735 184 c 0,80,81
 674 184 674 184 617 206.5 c 128,-1,82
 560 229 560 229 515.5 274.5 c 128,-1,83
 471 320 471 320 443 388.5 c 128,-1,84
 415 457 415 457 412 550 c 1,85,86
 351 537 351 537 287 528 c 128,-1,87
 223 519 223 519 157 513 c 1,88,-1
 153 565 l 1,0,1
1203 1427 m 0,89,90
 1126 1427 1126 1427 1049 1397 c 128,-1,91
 972 1367 972 1367 901.5 1313 c 128,-1,92
 831 1259 831 1259 769 1185 c 128,-1,93
 707 1111 707 1111 659.5 1023.5 c 128,-1,94
 612 936 612 936 581.5 838 c 128,-1,95
 551 740 551 740 543 639 c 1,96,97
 746 696 746 696 895 779.5 c 128,-1,98
 1044 863 1044 863 1142 955 c 128,-1,99
 1240 1047 1240 1047 1288 1139 c 128,-1,100
 1336 1231 1336 1231 1336 1307 c 0,101,102
 1336 1366 1336 1366 1302.5 1396.5 c 128,-1,103
 1269 1427 1269 1427 1203 1427 c 0,89,90
EndSplineSet
EndChar

StartChar: H
Encoding: 72 72 6
Width: 2205
Flags: W
LayerCount: 2
Fore
SplineSet
1769 583 m 1,0,1
 1783 581 1783 581 1808 576.5 c 128,-1,2
 1833 572 1833 572 1862.5 561 c 128,-1,3
 1892 550 1892 550 1922.5 530.5 c 128,-1,4
 1953 511 1953 511 1978 478 c 128,-1,5
 2003 445 2003 445 2018.5 397 c 128,-1,6
 2034 349 2034 349 2034 282 c 0,7,8
 2034 209 2034 209 2007 139 c 128,-1,9
 1980 69 1980 69 1932 14.5 c 128,-1,10
 1884 -40 1884 -40 1818 -73.5 c 128,-1,11
 1752 -107 1752 -107 1675 -107 c 0,12,13
 1595 -107 1595 -107 1536.5 -82.5 c 128,-1,14
 1478 -58 1478 -58 1440.5 -13.5 c 128,-1,15
 1403 31 1403 31 1385 93.5 c 128,-1,16
 1367 156 1367 156 1367 232 c 0,17,18
 1367 313 1367 313 1394 441 c 128,-1,19
 1421 569 1421 569 1494 735 c 1,20,21
 1379 688 1379 688 1266.5 650.5 c 128,-1,22
 1154 613 1154 613 1042 580 c 1,23,24
 983 489 983 489 911 401.5 c 128,-1,25
 839 314 839 314 760.5 237 c 128,-1,26
 682 160 682 160 599 95.5 c 128,-1,27
 516 31 516 31 435 -16 c 128,-1,28
 354 -63 354 -63 277.5 -89 c 128,-1,29
 201 -115 201 -115 135 -115 c 0,30,31
 76 -115 76 -115 39 -98 c 128,-1,32
 2 -81 2 -81 -19 -56.5 c 128,-1,33
 -40 -32 -40 -32 -48 -3 c 128,-1,34
 -56 26 -56 26 -56 50 c 0,35,36
 -56 80 -56 80 -41.5 116.5 c 128,-1,37
 -27 153 -27 153 3 191 c 128,-1,38
 33 229 33 229 79 265.5 c 128,-1,39
 125 302 125 302 187 334 c 0,40,41
 283 383 283 383 378 422 c 128,-1,42
 473 461 473 461 566.5 493.5 c 128,-1,43
 660 526 660 526 752 554 c 128,-1,44
 844 582 844 582 936 609 c 1,45,46
 985 695 985 695 1026.5 783.5 c 128,-1,47
 1068 872 1068 872 1098.5 956 c 128,-1,48
 1129 1040 1129 1040 1146.5 1116.5 c 128,-1,49
 1164 1193 1164 1193 1164 1256 c 0,50,51
 1164 1304 1164 1304 1148.5 1344 c 128,-1,52
 1133 1384 1133 1384 1104.5 1412.5 c 128,-1,53
 1076 1441 1076 1441 1035 1457 c 128,-1,54
 994 1473 994 1473 943 1473 c 0,55,56
 849 1473 849 1473 763.5 1450.5 c 128,-1,57
 678 1428 678 1428 604 1390 c 128,-1,58
 530 1352 530 1352 470.5 1301 c 128,-1,59
 411 1250 411 1250 368.5 1193 c 128,-1,60
 326 1136 326 1136 303 1076.5 c 128,-1,61
 280 1017 280 1017 280 961 c 256,62,63
 280 905 280 905 303.5 868.5 c 128,-1,64
 327 832 327 832 363 810.5 c 128,-1,65
 399 789 399 789 440.5 780.5 c 128,-1,66
 482 772 482 772 518 772 c 0,67,68
 559 772 559 772 596.5 779 c 128,-1,69
 634 786 634 786 662.5 794 c 128,-1,70
 691 802 691 802 708.5 809.5 c 128,-1,71
 726 817 726 817 726 817 c 1,72,-1
 748 769 l 1,73,74
 743 766 743 766 719.5 757.5 c 128,-1,75
 696 749 696 749 658 739 c 128,-1,76
 620 729 620 729 569.5 721.5 c 128,-1,77
 519 714 519 714 460 714 c 0,78,79
 399 714 399 714 344.5 728 c 128,-1,80
 290 742 290 742 249.5 772 c 128,-1,81
 209 802 209 802 185.5 849.5 c 128,-1,82
 162 897 162 897 162 965 c 0,83,84
 162 1042 162 1042 197.5 1113 c 128,-1,85
 233 1184 233 1184 293 1246.5 c 128,-1,86
 353 1309 353 1309 431.5 1360 c 128,-1,87
 510 1411 510 1411 596.5 1448 c 128,-1,88
 683 1485 683 1485 771.5 1505 c 128,-1,89
 860 1525 860 1525 940 1525 c 0,90,91
 1013 1525 1013 1525 1073.5 1505 c 128,-1,92
 1134 1485 1134 1485 1178 1445.5 c 128,-1,93
 1222 1406 1222 1406 1246.5 1347 c 128,-1,94
 1271 1288 1271 1288 1271 1210 c 0,95,96
 1271 1144 1271 1144 1255 1069 c 128,-1,97
 1239 994 1239 994 1213 920 c 128,-1,98
 1187 846 1187 846 1154 777 c 128,-1,99
 1121 708 1121 708 1086 653 c 1,100,101
 1198 686 1198 686 1307 722.5 c 128,-1,102
 1416 759 1416 759 1527 807 c 1,103,104
 1638 1023 1638 1023 1738 1162.5 c 128,-1,105
 1838 1302 1838 1302 1923.5 1382.5 c 128,-1,106
 2009 1463 2009 1463 2079 1494 c 128,-1,107
 2149 1525 2149 1525 2200 1525 c 0,108,109
 2259 1525 2259 1525 2292 1493 c 128,-1,110
 2325 1461 2325 1461 2325 1404 c 0,111,112
 2325 1339 2325 1339 2276.5 1265.5 c 128,-1,113
 2228 1192 2228 1192 2145 1123 c 0,114,115
 2021 1020 2021 1020 1899 943 c 128,-1,116
 1777 866 1777 866 1653 806 c 1,117,118
 1596 685 1596 685 1559 588 c 128,-1,119
 1522 491 1522 491 1500.5 414 c 128,-1,120
 1479 337 1479 337 1470 277 c 128,-1,121
 1461 217 1461 217 1461 171 c 0,122,123
 1461 113 1461 113 1477 70.5 c 128,-1,124
 1493 28 1493 28 1521.5 0 c 128,-1,125
 1550 -28 1550 -28 1589 -41.5 c 128,-1,126
 1628 -55 1628 -55 1675 -55 c 0,127,128
 1737 -55 1737 -55 1792.5 -28.5 c 128,-1,129
 1848 -2 1848 -2 1890 44 c 128,-1,130
 1932 90 1932 90 1956.5 151.5 c 128,-1,131
 1981 213 1981 213 1981 283 c 0,132,133
 1981 343 1981 343 1966.5 385 c 128,-1,134
 1952 427 1952 427 1929.5 454.5 c 128,-1,135
 1907 482 1907 482 1880 497.5 c 128,-1,136
 1853 513 1853 513 1829.5 520.5 c 128,-1,137
 1806 528 1806 528 1788.5 529.5 c 128,-1,138
 1771 531 1771 531 1767 531 c 1,139,-1
 1769 583 l 1,0,1
180 -44 m 0,140,141
 262 -44 262 -44 354 0 c 128,-1,142
 446 44 446 44 539.5 121.5 c 128,-1,143
 633 199 633 199 723.5 305 c 128,-1,144
 814 411 814 411 892 535 c 1,145,-1
 830 517 l 2,146,147
 766 498 766 498 685 470.5 c 128,-1,148
 604 443 604 443 520 408 c 128,-1,149
 436 373 436 373 355.5 331.5 c 128,-1,150
 275 290 275 290 212.5 243 c 128,-1,151
 150 196 150 196 112 143.5 c 128,-1,152
 74 91 74 91 74 34 c 0,153,154
 74 -4 74 -4 103.5 -24 c 128,-1,155
 133 -44 133 -44 180 -44 c 0,140,141
1690 884 m 1,156,157
 1795 938 1795 938 1900 1006.5 c 128,-1,158
 2005 1075 2005 1075 2113 1164 c 0,159,160
 2157 1200 2157 1200 2187.5 1235 c 128,-1,161
 2218 1270 2218 1270 2237 1301 c 128,-1,162
 2256 1332 2256 1332 2264.5 1358.5 c 128,-1,163
 2273 1385 2273 1385 2273 1405 c 0,164,165
 2273 1434 2273 1434 2255.5 1454 c 128,-1,166
 2238 1474 2238 1474 2200 1474 c 0,167,168
 2159 1474 2159 1474 2115.5 1450.5 c 128,-1,169
 2072 1427 2072 1427 2027 1385.5 c 128,-1,170
 1982 1344 1982 1344 1937.5 1287.5 c 128,-1,171
 1893 1231 1893 1231 1850 1165.5 c 128,-1,172
 1807 1100 1807 1100 1766.5 1028 c 128,-1,173
 1726 956 1726 956 1690 884 c 1,156,157
EndSplineSet
EndChar

StartChar: I
Encoding: 73 73 7
Width: 1516
Flags: W
LayerCount: 2
Fore
SplineSet
1074 295 m 1,0,1
 968 368 968 368 907 449.5 c 128,-1,2
 846 531 846 531 815 613 c 128,-1,3
 784 695 784 695 775.5 772 c 128,-1,4
 767 849 767 849 767 914 c 0,5,6
 767 1024 767 1024 788.5 1114.5 c 128,-1,7
 810 1205 810 1205 845.5 1276.5 c 128,-1,8
 881 1348 881 1348 927.5 1401 c 128,-1,9
 974 1454 974 1454 1025 1489 c 128,-1,10
 1076 1524 1076 1524 1127.5 1541 c 128,-1,11
 1179 1558 1179 1558 1224 1558 c 0,12,13
 1292 1558 1292 1558 1349 1521.5 c 128,-1,14
 1406 1485 1406 1485 1447.5 1418.5 c 128,-1,15
 1489 1352 1489 1352 1512.5 1259.5 c 128,-1,16
 1536 1167 1536 1167 1536 1056 c 0,17,18
 1536 909 1536 909 1505 768.5 c 128,-1,19
 1474 628 1474 628 1414.5 502.5 c 128,-1,20
 1355 377 1355 377 1269 272 c 128,-1,21
 1183 167 1183 167 1073.5 90.5 c 128,-1,22
 964 14 964 14 832.5 -28.5 c 128,-1,23
 701 -71 701 -71 550 -71 c 0,24,25
 418 -71 418 -71 306 -36 c 128,-1,26
 194 -1 194 -1 113 57 c 128,-1,27
 32 115 32 115 -14 190.5 c 128,-1,28
 -60 266 -60 266 -60 347 c 0,29,30
 -60 423 -60 423 -35 474 c 128,-1,31
 -10 525 -10 525 31.5 556 c 128,-1,32
 73 587 73 587 126 600.5 c 128,-1,33
 179 614 179 614 235 614 c 0,34,35
 340 614 340 614 437.5 585 c 128,-1,36
 535 556 535 556 623.5 503 c 128,-1,37
 712 450 712 450 789 375 c 128,-1,38
 866 300 866 300 931 208 c 1,39,-1
 888 178 l 1,40,41
 816 281 816 281 737 352 c 128,-1,42
 658 423 658 423 580 467 c 128,-1,43
 502 511 502 511 428 530 c 128,-1,44
 354 549 354 549 292 549 c 0,45,46
 229 549 229 549 184 534 c 128,-1,47
 139 519 139 519 109.5 493 c 128,-1,48
 80 467 80 467 66 430 c 128,-1,49
 52 393 52 393 52 350 c 0,50,51
 52 271 52 271 93 203.5 c 128,-1,52
 134 136 134 136 203 86.5 c 128,-1,53
 272 37 272 37 362 9 c 128,-1,54
 452 -19 452 -19 550 -19 c 0,55,56
 670 -19 670 -19 771.5 13 c 128,-1,57
 873 45 873 45 957 101 c 128,-1,58
 1041 157 1041 157 1108 232.5 c 128,-1,59
 1175 308 1175 308 1227.5 395.5 c 128,-1,60
 1280 483 1280 483 1317 577.5 c 128,-1,61
 1354 672 1354 672 1378 765.5 c 128,-1,62
 1402 859 1402 859 1413.5 947.5 c 128,-1,63
 1425 1036 1425 1036 1425 1111 c 0,64,65
 1425 1208 1425 1208 1407.5 1281.5 c 128,-1,66
 1390 1355 1390 1355 1362 1404.5 c 128,-1,67
 1334 1454 1334 1454 1297.5 1479.5 c 128,-1,68
 1261 1505 1261 1505 1224 1505 c 0,69,70
 1165 1505 1165 1505 1104 1462 c 128,-1,71
 1043 1419 1043 1419 993.5 1337 c 128,-1,72
 944 1255 944 1255 913 1136 c 128,-1,73
 882 1017 882 1017 882 866 c 0,74,75
 882 754 882 754 902.5 665.5 c 128,-1,76
 923 577 923 577 955.5 511 c 128,-1,77
 988 445 988 445 1026.5 400 c 128,-1,78
 1065 355 1065 355 1101 330 c 1,79,-1
 1074 295 l 1,0,1
EndSplineSet
EndChar

StartChar: J
Encoding: 74 74 8
Width: 1274
Flags: W
LayerCount: 2
Fore
SplineSet
1153 160 m 1,0,1
 1111 171 1111 171 1069.5 181.5 c 128,-1,2
 1028 192 1028 192 985 201 c 1,3,4
 934 97 934 97 877 -3 c 128,-1,5
 820 -103 820 -103 756 -200 c 0,6,7
 707 -274 707 -274 646.5 -345 c 128,-1,8
 586 -416 586 -416 518.5 -478.5 c 128,-1,9
 451 -541 451 -541 378.5 -593.5 c 128,-1,10
 306 -646 306 -646 232.5 -684.5 c 128,-1,11
 159 -723 159 -723 86.5 -744 c 128,-1,12
 14 -765 14 -765 -54 -765 c 0,13,14
 -115 -765 -115 -765 -177 -743.5 c 128,-1,15
 -239 -722 -239 -722 -288.5 -679 c 128,-1,16
 -338 -636 -338 -636 -369 -571.5 c 128,-1,17
 -400 -507 -400 -507 -400 -420 c 0,18,19
 -400 -375 -400 -375 -389.5 -325 c 128,-1,20
 -379 -275 -379 -275 -355 -222 c 128,-1,21
 -331 -169 -331 -169 -293 -113.5 c 128,-1,22
 -255 -58 -255 -58 -200 0 c 0,23,24
 -127 77 -127 77 -36.5 133 c 128,-1,25
 54 189 54 189 156 225.5 c 128,-1,26
 258 262 258 262 369 279.5 c 128,-1,27
 480 297 480 297 594 297 c 0,28,29
 669 297 669 297 743.5 290 c 128,-1,30
 818 283 818 283 893 270 c 1,31,32
 946 380 946 380 989 489 c 128,-1,33
 1032 598 1032 598 1064 704 c 0,34,35
 1112 866 1112 866 1133 985 c 128,-1,36
 1154 1104 1154 1104 1154 1191 c 0,37,38
 1154 1265 1154 1265 1142 1318.5 c 128,-1,39
 1130 1372 1130 1372 1111 1409.5 c 128,-1,40
 1092 1447 1092 1447 1067 1470.5 c 128,-1,41
 1042 1494 1042 1494 1016.5 1506.5 c 128,-1,42
 991 1519 991 1519 966.5 1523.5 c 128,-1,43
 942 1528 942 1528 923 1528 c 0,44,45
 843 1528 843 1528 780 1490 c 128,-1,46
 717 1452 717 1452 673.5 1383 c 128,-1,47
 630 1314 630 1314 607 1216.5 c 128,-1,48
 584 1119 584 1119 584 1000 c 0,49,50
 584 907 584 907 600 828 c 128,-1,51
 616 749 616 749 640 684 c 128,-1,52
 664 619 664 619 692.5 569 c 128,-1,53
 721 519 721 519 745.5 485 c 128,-1,54
 770 451 770 451 786 433 c 128,-1,55
 802 415 802 415 803 415 c 2,56,-1
 772 383 l 1,57,58
 708 438 708 438 652 505 c 128,-1,59
 596 572 596 572 555 649 c 128,-1,60
 514 726 514 726 490 812.5 c 128,-1,61
 466 899 466 899 466 994 c 0,62,63
 466 1102 466 1102 497 1207 c 128,-1,64
 528 1312 528 1312 587 1395.5 c 128,-1,65
 646 1479 646 1479 732 1530 c 128,-1,66
 818 1581 818 1581 928 1581 c 0,67,68
 953 1581 953 1581 986 1576 c 128,-1,69
 1019 1571 1019 1571 1054 1555.5 c 128,-1,70
 1089 1540 1089 1540 1123.5 1512 c 128,-1,71
 1158 1484 1158 1484 1184.5 1437.5 c 128,-1,72
 1211 1391 1211 1391 1227.5 1323.5 c 128,-1,73
 1244 1256 1244 1256 1244 1162 c 0,74,75
 1244 1119 1244 1119 1240 1070.5 c 128,-1,76
 1236 1022 1236 1022 1228 966 c 0,77,78
 1200 780 1200 780 1144 600.5 c 128,-1,79
 1088 421 1088 421 1007 247 c 1,80,81
 1049 238 1049 238 1089 228 c 128,-1,82
 1129 218 1129 218 1168 207 c 1,83,-1
 1153 160 l 1,0,1
-55 -713 m 1,84,85
 20 -717 20 -717 101 -684 c 128,-1,86
 182 -651 182 -651 264 -588.5 c 128,-1,87
 346 -526 346 -526 427.5 -438 c 128,-1,88
 509 -350 509 -350 586.5 -245 c 128,-1,89
 664 -140 664 -140 735.5 -22 c 128,-1,90
 807 96 807 96 869 220 c 1,91,92
 818 227 818 227 767.5 231 c 128,-1,93
 717 235 717 235 664 235 c 0,94,95
 508 235 508 235 375.5 200 c 128,-1,96
 243 165 243 165 134.5 107 c 128,-1,97
 26 49 26 49 -57 -26 c 128,-1,98
 -140 -101 -140 -101 -196 -180.5 c 128,-1,99
 -252 -260 -252 -260 -281 -338.5 c 128,-1,100
 -310 -417 -310 -417 -310 -482 c 0,101,102
 -310 -533 -310 -533 -292.5 -575.5 c 128,-1,103
 -275 -618 -275 -618 -242.5 -648.5 c 128,-1,104
 -210 -679 -210 -679 -162.5 -696 c 128,-1,105
 -115 -713 -115 -713 -55 -713 c 1,84,85
EndSplineSet
EndChar

StartChar: K
Encoding: 75 75 9
Width: 2369
Flags: W
LayerCount: 2
Fore
SplineSet
1679 1352 m 1,0,1
 1620 1330 1620 1330 1570.5 1316 c 128,-1,2
 1521 1302 1521 1302 1477.5 1294 c 128,-1,3
 1434 1286 1434 1286 1393.5 1283 c 128,-1,4
 1353 1280 1353 1280 1311 1280 c 0,5,6
 1243 1280 1243 1280 1170 1289.5 c 128,-1,7
 1097 1299 1097 1299 1029 1299 c 0,8,9
 938 1299 938 1299 854.5 1275.5 c 128,-1,10
 771 1252 771 1252 707 1205.5 c 128,-1,11
 643 1159 643 1159 605 1089 c 128,-1,12
 567 1019 567 1019 567 925 c 0,13,14
 567 868 567 868 585 821.5 c 128,-1,15
 603 775 603 775 637 742 c 128,-1,16
 671 709 671 709 720 691 c 128,-1,17
 769 673 769 673 830 673 c 0,18,19
 899 673 899 673 950 690 c 128,-1,20
 1001 707 1001 707 1034.5 728 c 128,-1,21
 1068 749 1068 749 1085 767 c 128,-1,22
 1102 785 1102 785 1104 787 c 1,23,-1
 1146 756 l 1,24,25
 1143 752 1143 752 1118 728 c 128,-1,26
 1093 704 1093 704 1047.5 677 c 128,-1,27
 1002 650 1002 650 935.5 628 c 128,-1,28
 869 606 869 606 783 606 c 0,29,30
 727 606 727 606 668.5 621 c 128,-1,31
 610 636 610 636 562 672 c 128,-1,32
 514 708 514 708 483 767 c 128,-1,33
 452 826 452 826 452 913 c 0,34,35
 452 984 452 984 474 1044 c 128,-1,36
 496 1104 496 1104 534.5 1153 c 128,-1,37
 573 1202 573 1202 626.5 1239.5 c 128,-1,38
 680 1277 680 1277 742.5 1302 c 128,-1,39
 805 1327 805 1327 875 1340 c 128,-1,40
 945 1353 945 1353 1017 1353 c 0,41,42
 1048 1353 1048 1353 1089.5 1349.5 c 128,-1,43
 1131 1346 1131 1346 1174.5 1342.5 c 128,-1,44
 1218 1339 1218 1339 1260 1335.5 c 128,-1,45
 1302 1332 1302 1332 1335 1332 c 0,46,47
 1372 1332 1372 1332 1414.5 1336.5 c 128,-1,48
 1457 1341 1457 1341 1508.5 1353 c 128,-1,49
 1560 1365 1560 1365 1622 1386.5 c 128,-1,50
 1684 1408 1684 1408 1761 1442 c 1,51,-1
 1786 1397 l 1,52,53
 1786 1397 1786 1397 1765 1376 c 128,-1,54
 1744 1355 1744 1355 1707 1302 c 128,-1,55
 1670 1249 1670 1249 1620 1157 c 128,-1,56
 1570 1065 1570 1065 1510 922 c 0,57,58
 1450 778 1450 778 1388.5 636.5 c 128,-1,59
 1327 495 1327 495 1256 368 c 128,-1,60
 1185 241 1185 241 1100.5 132.5 c 128,-1,61
 1016 24 1016 24 909.5 -55 c 128,-1,62
 803 -134 803 -134 671.5 -178.5 c 128,-1,63
 540 -223 540 -223 374 -223 c 0,64,65
 275 -223 275 -223 191.5 -200 c 128,-1,66
 108 -177 108 -177 48 -133.5 c 128,-1,67
 -12 -90 -12 -90 -46 -28 c 128,-1,68
 -80 34 -80 34 -80 112 c 0,69,70
 -80 209 -80 209 -39 281.5 c 128,-1,71
 2 354 2 354 70 403 c 128,-1,72
 138 452 138 452 227.5 476.5 c 128,-1,73
 317 501 317 501 413 501 c 0,74,75
 505 501 505 501 598 483 c 128,-1,76
 691 465 691 465 777 432 c 1,77,-1
 758 383 l 1,78,79
 694 407 694 407 617 419.5 c 128,-1,80
 540 432 540 432 473 432 c 0,81,82
 370 432 370 432 289 410 c 128,-1,83
 208 388 208 388 151.5 346.5 c 128,-1,84
 95 305 95 305 65.5 246 c 128,-1,85
 36 187 36 187 36 114 c 256,86,87
 36 41 36 41 70.5 -11.5 c 128,-1,88
 105 -64 105 -64 160 -97.5 c 128,-1,89
 215 -131 215 -131 282.5 -147 c 128,-1,90
 350 -163 350 -163 415 -163 c 0,91,92
 536 -163 536 -163 633.5 -130.5 c 128,-1,93
 731 -98 731 -98 810 -42 c 128,-1,94
 889 14 889 14 951.5 89 c 128,-1,95
 1014 164 1014 164 1066.5 249.5 c 128,-1,96
 1119 335 1119 335 1163 426 c 128,-1,97
 1207 517 1207 517 1248 605 c 1,98,99
 1319 769 1319 769 1393 914 c 0,100,101
 1424 976 1424 976 1459.5 1040 c 128,-1,102
 1495 1104 1495 1104 1532 1162.5 c 128,-1,103
 1569 1221 1569 1221 1606.5 1270.5 c 128,-1,104
 1644 1320 1644 1320 1679 1352 c 1,0,1
2696 1109 m 2,105,106
 2696 1110 2696 1110 2704 1126 c 128,-1,107
 2712 1142 2712 1142 2721.5 1167.5 c 128,-1,108
 2731 1193 2731 1193 2738.5 1225 c 128,-1,109
 2746 1257 2746 1257 2746 1290 c 0,110,111
 2746 1324 2746 1324 2733.5 1352.5 c 128,-1,112
 2721 1381 2721 1381 2699.5 1401.5 c 128,-1,113
 2678 1422 2678 1422 2648 1433.5 c 128,-1,114
 2618 1445 2618 1445 2584 1445 c 0,115,116
 2539 1445 2539 1445 2496.5 1421 c 128,-1,117
 2454 1397 2454 1397 2407.5 1342.5 c 128,-1,118
 2361 1288 2361 1288 2307 1200.5 c 128,-1,119
 2253 1113 2253 1113 2184 986 c 0,120,121
 2146 915 2146 915 2107.5 860.5 c 128,-1,122
 2069 806 2069 806 2031 765 c 128,-1,123
 1993 724 1993 724 1956 694.5 c 128,-1,124
 1919 665 1919 665 1884 645 c 1,125,126
 1917 606 1917 606 1939.5 548.5 c 128,-1,127
 1962 491 1962 491 1962 407 c 0,128,129
 1962 362 1962 362 1950.5 308 c 128,-1,130
 1939 254 1939 254 1925.5 199 c 128,-1,131
 1912 144 1912 144 1901 92 c 128,-1,132
 1890 40 1890 40 1890 0 c 0,133,134
 1890 -54 1890 -54 1906 -87 c 128,-1,135
 1922 -120 1922 -120 1947 -138.5 c 128,-1,136
 1972 -157 1972 -157 2001.5 -163 c 128,-1,137
 2031 -169 2031 -169 2057 -169 c 0,138,139
 2100 -169 2100 -169 2139.5 -155.5 c 128,-1,140
 2179 -142 2179 -142 2210 -125 c 0,141,142
 2246 -106 2246 -106 2277 -80 c 1,143,-1
 2310 -121 l 1,144,145
 2307 -123 2307 -123 2283.5 -140.5 c 128,-1,146
 2260 -158 2260 -158 2221.5 -178 c 128,-1,147
 2183 -198 2183 -198 2134 -214 c 128,-1,148
 2085 -230 2085 -230 2032 -230 c 0,149,150
 1977 -230 1977 -230 1929.5 -211 c 128,-1,151
 1882 -192 1882 -192 1847.5 -157 c 128,-1,152
 1813 -122 1813 -122 1793 -74 c 128,-1,153
 1773 -26 1773 -26 1773 33 c 0,154,155
 1773 89 1773 89 1787 144 c 128,-1,156
 1801 199 1801 199 1818 252 c 128,-1,157
 1835 305 1835 305 1849 355 c 128,-1,158
 1863 405 1863 405 1863 451 c 0,159,160
 1863 491 1863 491 1853.5 533 c 128,-1,161
 1844 575 1844 575 1817 613 c 1,162,163
 1771 599 1771 599 1729 590 c 128,-1,164
 1687 581 1687 581 1633 581 c 0,165,166
 1588 581 1588 581 1562 591.5 c 128,-1,167
 1536 602 1536 602 1523.5 615.5 c 128,-1,168
 1511 629 1511 629 1507.5 642.5 c 128,-1,169
 1504 656 1504 656 1504 663 c 0,170,171
 1504 705 1504 705 1541.5 734.5 c 128,-1,172
 1579 764 1579 764 1644 764 c 0,173,174
 1679 764 1679 764 1727 748.5 c 128,-1,175
 1775 733 1775 733 1827 697 c 1,176,177
 1882 736 1882 736 1928.5 795 c 128,-1,178
 1975 854 1975 854 2017 924.5 c 128,-1,179
 2059 995 2059 995 2099 1072.5 c 128,-1,180
 2139 1150 2139 1150 2181 1227 c 0,181,182
 2256 1364 2256 1364 2351 1436.5 c 128,-1,183
 2446 1509 2446 1509 2552 1509 c 0,184,185
 2598 1509 2598 1509 2642.5 1494.5 c 128,-1,186
 2687 1480 2687 1480 2722 1452 c 128,-1,187
 2757 1424 2757 1424 2778.5 1383.5 c 128,-1,188
 2800 1343 2800 1343 2800 1291 c 0,189,190
 2800 1253 2800 1253 2791.5 1217 c 128,-1,191
 2783 1181 2783 1181 2772.5 1152.5 c 128,-1,192
 2762 1124 2762 1124 2752.5 1105.5 c 128,-1,193
 2743 1087 2743 1087 2742 1084 c 1,194,-1
 2696 1109 l 2,105,106
1771 664 m 1,195,196
 1745 684 1745 684 1710.5 698 c 128,-1,197
 1676 712 1676 712 1642 712 c 0,198,199
 1603 712 1603 712 1581.5 698.5 c 128,-1,200
 1560 685 1560 685 1560 667 c 0,201,202
 1560 656 1560 656 1574.5 645 c 128,-1,203
 1589 634 1589 634 1632 634 c 0,204,205
 1663 634 1663 634 1700.5 641.5 c 128,-1,206
 1738 649 1738 649 1771 664 c 1,195,196
EndSplineSet
EndChar

StartChar: L
Encoding: 76 76 10
Width: 1708
Flags: W
LayerCount: 2
Fore
SplineSet
1133 -129 m 0,0,1
 1068 -129 1068 -129 1001.5 -117.5 c 128,-1,2
 935 -106 935 -106 867 -87.5 c 128,-1,3
 799 -69 799 -69 731 -47 c 128,-1,4
 663 -25 663 -25 597 -4 c 1,5,6
 518 -52 518 -52 432 -79.5 c 128,-1,7
 346 -107 346 -107 251 -107 c 0,8,9
 170 -107 170 -107 127 -78 c 128,-1,10
 84 -49 84 -49 84 -1 c 0,11,12
 84 62 84 62 154 96 c 128,-1,13
 224 130 224 130 366 130 c 0,14,15
 428 130 428 130 491 121 c 128,-1,16
 554 112 554 112 619 98 c 1,17,18
 682 153 682 153 739 222 c 128,-1,19
 796 291 796 291 850 370 c 1,20,21
 809 365 809 365 767 362.5 c 128,-1,22
 725 360 725 360 682 360 c 0,23,24
 525 360 525 360 402 397.5 c 128,-1,25
 279 435 279 435 194 500.5 c 128,-1,26
 109 566 109 566 64.5 654.5 c 128,-1,27
 20 743 20 743 20 845 c 0,28,29
 20 965 20 965 66 1058 c 128,-1,30
 112 1151 112 1151 192.5 1214.5 c 128,-1,31
 273 1278 273 1278 382 1311.5 c 128,-1,32
 491 1345 491 1345 616 1345 c 0,33,34
 695 1345 695 1345 760 1333 c 128,-1,35
 825 1321 825 1321 872.5 1307 c 128,-1,36
 920 1293 920 1293 947 1280 c 128,-1,37
 974 1267 974 1267 977 1266 c 1,38,-1
 951 1221 l 2,39,40
 950 1221 950 1221 926 1232.5 c 128,-1,41
 902 1244 902 1244 860 1257 c 128,-1,42
 818 1270 818 1270 760 1281 c 128,-1,43
 702 1292 702 1292 635 1292 c 0,44,45
 517 1292 517 1292 423.5 1257.5 c 128,-1,46
 330 1223 330 1223 265.5 1163 c 128,-1,47
 201 1103 201 1103 166.5 1022.5 c 128,-1,48
 132 942 132 942 132 851 c 0,49,50
 132 749 132 749 179 668.5 c 128,-1,51
 226 588 226 588 305 532.5 c 128,-1,52
 384 477 384 477 488.5 448 c 128,-1,53
 593 419 593 419 708 419 c 0,54,55
 755 419 755 419 800.5 422 c 128,-1,56
 846 425 846 425 891 432 c 1,57,58
 962 543 962 543 1028.5 662 c 128,-1,59
 1095 781 1095 781 1161 895 c 128,-1,60
 1227 1009 1227 1009 1294 1111.5 c 128,-1,61
 1361 1214 1361 1214 1433.5 1291 c 128,-1,62
 1506 1368 1506 1368 1586 1413.5 c 128,-1,63
 1666 1459 1666 1459 1758 1459 c 0,64,65
 1794 1459 1794 1459 1825 1447.5 c 128,-1,66
 1856 1436 1856 1436 1879 1412.5 c 128,-1,67
 1902 1389 1902 1389 1915 1353 c 128,-1,68
 1928 1317 1928 1317 1928 1269 c 0,69,70
 1928 1191 1928 1191 1898 1104.5 c 128,-1,71
 1868 1018 1868 1018 1811 931.5 c 128,-1,72
 1754 845 1754 845 1672 761.5 c 128,-1,73
 1590 678 1590 678 1486 607 c 128,-1,74
 1382 536 1382 536 1258 480.5 c 128,-1,75
 1134 425 1134 425 994 394 c 1,76,77
 928 303 928 303 858 222.5 c 128,-1,78
 788 142 788 142 710 77 c 1,79,80
 786 57 786 57 859 34.5 c 128,-1,81
 932 12 932 12 997.5 -6.5 c 128,-1,82
 1063 -25 1063 -25 1119 -37.5 c 128,-1,83
 1175 -50 1175 -50 1218 -50 c 0,84,85
 1282 -50 1282 -50 1341.5 -28 c 128,-1,86
 1401 -6 1401 -6 1460 50 c 1,87,-1
 1501 18 l 1,88,89
 1500 17 1500 17 1490 5.5 c 128,-1,90
 1480 -6 1480 -6 1460 -22.5 c 128,-1,91
 1440 -39 1440 -39 1410 -57.5 c 128,-1,92
 1380 -76 1380 -76 1339.5 -92 c 128,-1,93
 1299 -108 1299 -108 1247.5 -118.5 c 128,-1,94
 1196 -129 1196 -129 1133 -129 c 0,0,1
1762 1404 m 0,95,96
 1706 1404 1706 1404 1651 1364 c 128,-1,97
 1596 1324 1596 1324 1540 1255.5 c 128,-1,98
 1484 1187 1484 1187 1426.5 1094.5 c 128,-1,99
 1369 1002 1369 1002 1308 897.5 c 128,-1,100
 1247 793 1247 793 1181 682 c 128,-1,101
 1115 571 1115 571 1043 464 c 1,102,103
 1163 497 1163 497 1271.5 550 c 128,-1,104
 1380 603 1380 603 1472.5 669 c 128,-1,105
 1565 735 1565 735 1639.5 810.5 c 128,-1,106
 1714 886 1714 886 1766.5 965 c 128,-1,107
 1819 1044 1819 1044 1847 1121.5 c 128,-1,108
 1875 1199 1875 1199 1875 1270 c 0,109,110
 1875 1307 1875 1307 1866 1332.5 c 128,-1,111
 1857 1358 1857 1358 1841.5 1374 c 128,-1,112
 1826 1390 1826 1390 1805.5 1397 c 128,-1,113
 1785 1404 1785 1404 1762 1404 c 0,95,96
245 -55 m 0,114,115
 319 -55 319 -55 385 -34.5 c 128,-1,116
 451 -14 451 -14 513 22 c 1,117,118
 447 41 447 41 385.5 53 c 128,-1,119
 324 65 324 65 267 65 c 0,120,121
 199 65 199 65 167.5 45 c 128,-1,122
 136 25 136 25 136 -1 c 0,123,124
 136 -9 136 -9 140.5 -18.5 c 128,-1,125
 145 -28 145 -28 157 -36 c 128,-1,126
 169 -44 169 -44 190 -49.5 c 128,-1,127
 211 -55 211 -55 245 -55 c 0,114,115
EndSplineSet
EndChar

StartChar: M
Encoding: 77 77 11
Width: 2475
Flags: W
LayerCount: 2
Fore
SplineSet
2645 -345 m 1,0,1
 2642 -347 2642 -347 2618 -359 c 128,-1,2
 2594 -371 2594 -371 2555 -385 c 128,-1,3
 2516 -399 2516 -399 2466 -410.5 c 128,-1,4
 2416 -422 2416 -422 2362 -422 c 0,5,6
 2274 -422 2274 -422 2204 -391 c 128,-1,7
 2134 -360 2134 -360 2085.5 -303.5 c 128,-1,8
 2037 -247 2037 -247 2011 -167.5 c 128,-1,9
 1985 -88 1985 -88 1985 9 c 0,10,11
 1985 102 1985 102 2008 213.5 c 128,-1,12
 2031 325 2031 325 2068 443 c 128,-1,13
 2105 561 2105 561 2151.5 679 c 128,-1,14
 2198 797 2198 797 2245.5 903.5 c 128,-1,15
 2293 1010 2293 1010 2336 1098.5 c 128,-1,16
 2379 1187 2379 1187 2410 1246 c 1,17,18
 2354 1182 2354 1182 2282 1098.5 c 128,-1,19
 2210 1015 2210 1015 2128.5 915.5 c 128,-1,20
 2047 816 2047 816 1959 703.5 c 128,-1,21
 1871 591 1871 591 1781.5 469.5 c 128,-1,22
 1692 348 1692 348 1604 220.5 c 128,-1,23
 1516 93 1516 93 1436 -36 c 1,24,-1
 1388 -20 l 1,25,26
 1403 143 1403 143 1437.5 303.5 c 128,-1,27
 1472 464 1472 464 1515.5 612.5 c 128,-1,28
 1559 761 1559 761 1607.5 891.5 c 128,-1,29
 1656 1022 1656 1022 1700 1125 c 1,30,31
 1633 1033 1633 1033 1566.5 925.5 c 128,-1,32
 1500 818 1500 818 1432 704.5 c 128,-1,33
 1364 591 1364 591 1292 476.5 c 128,-1,34
 1220 362 1220 362 1142 256.5 c 128,-1,35
 1064 151 1064 151 977.5 59.5 c 128,-1,36
 891 -32 891 -32 793.5 -99.5 c 128,-1,37
 696 -167 696 -167 585.5 -206 c 128,-1,38
 475 -245 475 -245 349 -245 c 0,39,40
 252 -245 252 -245 173 -216 c 128,-1,41
 94 -187 94 -187 37.5 -136.5 c 128,-1,42
 -19 -86 -19 -86 -49.5 -18 c 128,-1,43
 -80 50 -80 50 -80 129 c 0,44,45
 -80 206 -80 206 -55.5 268.5 c 128,-1,46
 -31 331 -31 331 10 379.5 c 128,-1,47
 51 428 51 428 105.5 463.5 c 128,-1,48
 160 499 160 499 220 522 c 128,-1,49
 280 545 280 545 341.5 556 c 128,-1,50
 403 567 403 567 459 567 c 0,51,52
 575 567 575 567 681 539.5 c 128,-1,53
 787 512 787 512 885 442 c 1,54,-1
 850 403 l 1,55,56
 849 404 849 404 824 421.5 c 128,-1,57
 799 439 799 439 752 460 c 128,-1,58
 705 481 705 481 635.5 498 c 128,-1,59
 566 515 566 515 477 515 c 0,60,61
 391 515 391 515 310.5 492 c 128,-1,62
 230 469 230 469 168.5 422.5 c 128,-1,63
 107 376 107 376 70 305.5 c 128,-1,64
 33 235 33 235 33 140 c 0,65,66
 33 72 33 72 59.5 14 c 128,-1,67
 86 -44 86 -44 133 -86.5 c 128,-1,68
 180 -129 180 -129 246 -153 c 128,-1,69
 312 -177 312 -177 392 -177 c 0,70,71
 512 -177 512 -177 622 -126 c 128,-1,72
 732 -75 732 -75 834 12 c 128,-1,73
 936 99 936 99 1030.5 215 c 128,-1,74
 1125 331 1125 331 1212.5 460 c 128,-1,75
 1300 589 1300 589 1382 725 c 128,-1,76
 1464 861 1464 861 1541 987.5 c 128,-1,77
 1618 1114 1618 1114 1691 1224.5 c 128,-1,78
 1764 1335 1764 1335 1834 1415 c 1,79,-1
 1879 1388 l 1,80,81
 1835 1254 1835 1254 1803 1152.5 c 128,-1,82
 1771 1051 1771 1051 1747.5 974 c 128,-1,83
 1724 897 1724 897 1707.5 841 c 128,-1,84
 1691 785 1691 785 1679 741 c 128,-1,85
 1667 697 1667 697 1657.5 661.5 c 128,-1,86
 1648 626 1648 626 1638.5 591 c 128,-1,87
 1629 556 1629 556 1617 517 c 128,-1,88
 1605 478 1605 478 1588 426.5 c 128,-1,89
 1571 375 1571 375 1548 307.5 c 128,-1,90
 1525 240 1525 240 1492 148 c 1,91,92
 1576 275 1576 275 1664.5 398 c 128,-1,93
 1753 521 1753 521 1841 636 c 128,-1,94
 1929 751 1929 751 2013.5 856 c 128,-1,95
 2098 961 2098 961 2173.5 1051 c 128,-1,96
 2249 1141 2249 1141 2312.5 1214.5 c 128,-1,97
 2376 1288 2376 1288 2423 1340 c 128,-1,98
 2470 1392 2470 1392 2496.5 1421 c 128,-1,99
 2523 1450 2523 1450 2524 1451 c 1,100,-1
 2566 1420 l 1,101,102
 2507 1274 2507 1274 2449 1127.5 c 128,-1,103
 2391 981 2391 981 2337.5 842 c 128,-1,104
 2284 703 2284 703 2238 574 c 128,-1,105
 2192 445 2192 445 2158 332.5 c 128,-1,106
 2124 220 2124 220 2104.5 127.5 c 128,-1,107
 2085 35 2085 35 2085 -31 c 0,108,109
 2085 -109 2085 -109 2103.5 -172 c 128,-1,110
 2122 -235 2122 -235 2157 -279 c 128,-1,111
 2192 -323 2192 -323 2243.5 -346.5 c 128,-1,112
 2295 -370 2295 -370 2360 -370 c 0,113,114
 2409 -370 2409 -370 2455.5 -359 c 128,-1,115
 2502 -348 2502 -348 2538 -335 c 128,-1,116
 2574 -322 2574 -322 2596 -311 c 128,-1,117
 2618 -300 2618 -300 2619 -300 c 2,118,-1
 2645 -345 l 1,0,1
EndSplineSet
EndChar

StartChar: N
Encoding: 78 78 12
Width: 2090
Flags: W
LayerCount: 2
Fore
SplineSet
2873 1293 m 1,0,1
 2875 1305 2875 1305 2876.5 1316.5 c 128,-1,2
 2878 1328 2878 1328 2878 1339 c 0,3,4
 2878 1381 2878 1381 2861.5 1419.5 c 128,-1,5
 2845 1458 2845 1458 2813.5 1487.5 c 128,-1,6
 2782 1517 2782 1517 2737 1534.5 c 128,-1,7
 2692 1552 2692 1552 2636 1552 c 0,8,9
 2577 1552 2577 1552 2511 1526.5 c 128,-1,10
 2445 1501 2445 1501 2379 1437 c 0,11,12
 2315 1375 2315 1375 2247.5 1277.5 c 128,-1,13
 2180 1180 2180 1180 2113.5 1062.5 c 128,-1,14
 2047 945 2047 945 1983.5 815 c 128,-1,15
 1920 685 1920 685 1863 559 c 128,-1,16
 1806 433 1806 433 1758 318 c 128,-1,17
 1710 203 1710 203 1675 115.5 c 128,-1,18
 1640 28 1640 28 1620.5 -25 c 128,-1,19
 1601 -78 1601 -78 1600 -80 c 1,20,-1
 1549 -67 l 1,21,22
 1537 10 1537 10 1527.5 72 c 128,-1,23
 1518 134 1518 134 1511.5 191 c 128,-1,24
 1505 248 1505 248 1502 304 c 128,-1,25
 1499 360 1499 360 1499 424 c 0,26,27
 1499 476 1499 476 1503.5 543 c 128,-1,28
 1508 610 1508 610 1516.5 685 c 128,-1,29
 1525 760 1525 760 1536.5 839 c 128,-1,30
 1548 918 1548 918 1561.5 994 c 128,-1,31
 1575 1070 1575 1070 1590 1138.5 c 128,-1,32
 1605 1207 1605 1207 1621 1262 c 1,33,34
 1536 1135 1536 1135 1465.5 1006 c 128,-1,35
 1395 877 1395 877 1332 753 c 128,-1,36
 1269 629 1269 629 1210 512.5 c 128,-1,37
 1151 396 1151 396 1089 294 c 128,-1,38
 1027 192 1027 192 958 107 c 128,-1,39
 889 22 889 22 806.5 -38.5 c 128,-1,40
 724 -99 724 -99 624 -132.5 c 128,-1,41
 524 -166 524 -166 400 -166 c 0,42,43
 306 -166 306 -166 222.5 -140 c 128,-1,44
 139 -114 139 -114 76 -67 c 128,-1,45
 13 -20 13 -20 -23.5 47 c 128,-1,46
 -60 114 -60 114 -60 195 c 0,47,48
 -60 287 -60 287 -20.5 359.5 c 128,-1,49
 19 432 19 432 84 481.5 c 128,-1,50
 149 531 149 531 234 557 c 128,-1,51
 319 583 319 583 410 583 c 0,52,53
 462 583 462 583 515.5 576 c 128,-1,54
 569 569 569 569 620.5 553 c 128,-1,55
 672 537 672 537 720 510.5 c 128,-1,56
 768 484 768 484 809 445 c 1,57,-1
 770 410 l 1,58,59
 770 410 770 410 748.5 428.5 c 128,-1,60
 727 447 727 447 684.5 469 c 128,-1,61
 642 491 642 491 577 509.5 c 128,-1,62
 512 528 512 528 425 528 c 0,63,64
 355 528 355 528 289 508 c 128,-1,65
 223 488 223 488 171.5 449 c 128,-1,66
 120 410 120 410 89 353 c 128,-1,67
 58 296 58 296 58 221 c 0,68,69
 58 144 58 144 91 83.5 c 128,-1,70
 124 23 124 23 179 -18.5 c 128,-1,71
 234 -60 234 -60 304 -81.5 c 128,-1,72
 374 -103 374 -103 448 -103 c 0,73,74
 558 -103 558 -103 647.5 -66.5 c 128,-1,75
 737 -30 737 -30 813.5 36 c 128,-1,76
 890 102 890 102 956.5 194 c 128,-1,77
 1023 286 1023 286 1086 397 c 128,-1,78
 1149 508 1149 508 1213 634.5 c 128,-1,79
 1277 761 1277 761 1348 896 c 128,-1,80
 1419 1031 1419 1031 1501 1171 c 128,-1,81
 1583 1311 1583 1311 1682 1449 c 1,82,-1
 1728 1425 l 1,83,84
 1695 1328 1695 1328 1675 1220.5 c 128,-1,85
 1655 1113 1655 1113 1644.5 999.5 c 128,-1,86
 1634 886 1634 886 1630.5 770 c 128,-1,87
 1627 654 1627 654 1626 541 c 128,-1,88
 1625 428 1625 428 1624.5 320.5 c 128,-1,89
 1624 213 1624 213 1619 117 c 1,90,91
 1653 204 1653 204 1701 320 c 128,-1,92
 1749 436 1749 436 1807 565 c 128,-1,93
 1865 694 1865 694 1930.5 827.5 c 128,-1,94
 1996 961 1996 961 2064.5 1083 c 128,-1,95
 2133 1205 2133 1205 2203.5 1306.5 c 128,-1,96
 2274 1408 2274 1408 2342 1474 c 0,97,98
 2417 1546 2417 1546 2492.5 1575.5 c 128,-1,99
 2568 1605 2568 1605 2637 1605 c 0,100,101
 2705 1605 2705 1605 2759.5 1582.5 c 128,-1,102
 2814 1560 2814 1560 2852 1523.5 c 128,-1,103
 2890 1487 2890 1487 2910 1439 c 128,-1,104
 2930 1391 2930 1391 2930 1340 c 0,105,106
 2930 1312 2930 1312 2924 1282 c 1,107,-1
 2873 1293 l 1,0,1
EndSplineSet
EndChar

StartChar: O
Encoding: 79 79 13
Width: 1573
Flags: W
LayerCount: 2
Fore
SplineSet
1395 1259 m 1,0,1
 1394 1261 1394 1261 1381 1281 c 128,-1,2
 1368 1301 1368 1301 1337 1324 c 128,-1,3
 1306 1347 1306 1347 1254 1365.5 c 128,-1,4
 1202 1384 1202 1384 1124 1384 c 0,5,6
 1000 1384 1000 1384 879.5 1335.5 c 128,-1,7
 759 1287 759 1287 650 1203 c 128,-1,8
 541 1119 541 1119 448.5 1006.5 c 128,-1,9
 356 894 356 894 288 766.5 c 128,-1,10
 220 639 220 639 182 503.5 c 128,-1,11
 144 368 144 368 144 238 c 0,12,13
 144 147 144 147 172.5 70 c 128,-1,14
 201 -7 201 -7 254.5 -62.5 c 128,-1,15
 308 -118 308 -118 385 -149.5 c 128,-1,16
 462 -181 462 -181 560 -181 c 0,17,18
 646 -181 646 -181 731.5 -156 c 128,-1,19
 817 -131 817 -131 898 -86 c 128,-1,20
 979 -41 979 -41 1053.5 21.5 c 128,-1,21
 1128 84 1128 84 1193 157.5 c 128,-1,22
 1258 231 1258 231 1311 313.5 c 128,-1,23
 1364 396 1364 396 1402 482 c 128,-1,24
 1440 568 1440 568 1460.5 655 c 128,-1,25
 1481 742 1481 742 1481 824 c 0,26,27
 1481 910 1481 910 1458 976 c 128,-1,28
 1435 1042 1435 1042 1394 1086.5 c 128,-1,29
 1353 1131 1353 1131 1296.5 1153.5 c 128,-1,30
 1240 1176 1240 1176 1173 1176 c 0,31,32
 1108 1176 1108 1176 1043 1152.5 c 128,-1,33
 978 1129 978 1129 918.5 1086.5 c 128,-1,34
 859 1044 859 1044 807.5 986 c 128,-1,35
 756 928 756 928 718 859.5 c 128,-1,36
 680 791 680 791 658.5 713.5 c 128,-1,37
 637 636 637 636 637 556 c 0,38,39
 637 495 637 495 652 443.5 c 128,-1,40
 667 392 667 392 692 352 c 128,-1,41
 717 312 717 312 749.5 285.5 c 128,-1,42
 782 259 782 259 817 249 c 1,43,-1
 808 207 l 1,44,45
 758 214 758 214 706.5 240 c 128,-1,46
 655 266 655 266 613.5 311.5 c 128,-1,47
 572 357 572 357 545.5 423.5 c 128,-1,48
 519 490 519 490 519 577 c 0,49,50
 519 659 519 659 543 739.5 c 128,-1,51
 567 820 567 820 610.5 892.5 c 128,-1,52
 654 965 654 965 714 1026.5 c 128,-1,53
 774 1088 774 1088 846.5 1132.5 c 128,-1,54
 919 1177 919 1177 1001.5 1202.5 c 128,-1,55
 1084 1228 1084 1228 1171 1228 c 0,56,57
 1254 1228 1254 1228 1321 1199.5 c 128,-1,58
 1388 1171 1388 1171 1435 1118.5 c 128,-1,59
 1482 1066 1482 1066 1507.5 991 c 128,-1,60
 1533 916 1533 916 1533 823 c 0,61,62
 1533 735 1533 735 1511.5 642.5 c 128,-1,63
 1490 550 1490 550 1450.5 459.5 c 128,-1,64
 1411 369 1411 369 1355 282.5 c 128,-1,65
 1299 196 1299 196 1231 119 c 128,-1,66
 1163 42 1163 42 1084.5 -22.5 c 128,-1,67
 1006 -87 1006 -87 920 -134 c 128,-1,68
 834 -181 834 -181 743 -207 c 128,-1,69
 652 -233 652 -233 560 -233 c 0,70,71
 453 -233 453 -233 358 -197.5 c 128,-1,72
 263 -162 263 -162 192.5 -93 c 128,-1,73
 122 -24 122 -24 81 76.5 c 128,-1,74
 40 177 40 177 40 307 c 0,75,76
 40 452 40 452 77.5 592 c 128,-1,77
 115 732 115 732 183.5 857.5 c 128,-1,78
 252 983 252 983 348 1089 c 128,-1,79
 444 1195 444 1195 561 1272 c 128,-1,80
 678 1349 678 1349 813 1392.5 c 128,-1,81
 948 1436 948 1436 1094 1436 c 0,82,83
 1162 1436 1162 1436 1214 1425 c 128,-1,84
 1266 1414 1266 1414 1304.5 1397.5 c 128,-1,85
 1343 1381 1343 1381 1369 1361.5 c 128,-1,86
 1395 1342 1395 1342 1411 1324.5 c 128,-1,87
 1427 1307 1427 1307 1434 1295 c 128,-1,88
 1441 1283 1441 1283 1442 1281 c 1,89,-1
 1395 1259 l 1,0,1
EndSplineSet
EndChar

StartChar: P
Encoding: 80 80 14
Width: 1795
Flags: W
LayerCount: 2
Fore
SplineSet
1862 1461 m 1,0,1
 1790 1407 1790 1407 1727 1332 c 1,2,3
 1788 1294 1788 1294 1830 1248.5 c 128,-1,4
 1872 1203 1872 1203 1897.5 1156 c 128,-1,5
 1923 1109 1923 1109 1934 1063 c 128,-1,6
 1945 1017 1945 1017 1945 978 c 0,7,8
 1945 880 1945 880 1908 807.5 c 128,-1,9
 1871 735 1871 735 1810.5 687 c 128,-1,10
 1750 639 1750 639 1671.5 615.5 c 128,-1,11
 1593 592 1593 592 1509 592 c 0,12,13
 1415 592 1415 592 1324 613 c 1,14,15
 1282 524 1282 524 1233 436 c 128,-1,16
 1184 348 1184 348 1126.5 267.5 c 128,-1,17
 1069 187 1069 187 1001.5 117.5 c 128,-1,18
 934 48 934 48 856.5 -2.5 c 128,-1,19
 779 -53 779 -53 689 -82 c 128,-1,20
 599 -111 599 -111 497 -111 c 0,21,22
 398 -111 398 -111 314 -79 c 128,-1,23
 230 -47 230 -47 169 14.5 c 128,-1,24
 108 76 108 76 74 164.5 c 128,-1,25
 40 253 40 253 40 367 c 0,26,27
 40 515 40 515 90.5 652 c 128,-1,28
 141 789 141 789 229.5 908 c 128,-1,29
 318 1027 318 1027 438 1124 c 128,-1,30
 558 1221 558 1221 697 1290 c 128,-1,31
 836 1359 836 1359 988 1397 c 128,-1,32
 1140 1435 1140 1435 1292 1435 c 0,33,34
 1411 1435 1411 1435 1503.5 1415.5 c 128,-1,35
 1596 1396 1596 1396 1667 1364 c 1,36,37
 1707 1399 1707 1399 1751 1429.5 c 128,-1,38
 1795 1460 1795 1460 1846 1484 c 1,39,-1
 1862 1461 l 1,0,1
1240 696 m 1,40,41
 1286 792 1286 792 1331 880.5 c 128,-1,42
 1376 969 1376 969 1422.5 1048.5 c 128,-1,43
 1469 1128 1469 1128 1519 1197.5 c 128,-1,44
 1569 1267 1569 1267 1627 1326 c 1,45,46
 1561 1352 1561 1352 1483.5 1364 c 128,-1,47
 1406 1376 1406 1376 1318 1376 c 0,48,49
 1197 1376 1197 1376 1081 1347 c 128,-1,50
 965 1318 965 1318 857.5 1267.5 c 128,-1,51
 750 1217 750 1217 652.5 1148 c 128,-1,52
 555 1079 555 1079 471.5 998 c 128,-1,53
 388 917 388 917 320.5 828.5 c 128,-1,54
 253 740 253 740 205.5 650 c 128,-1,55
 158 560 158 560 132.5 472.5 c 128,-1,56
 107 385 107 385 107 306 c 0,57,58
 107 229 107 229 135 162.5 c 128,-1,59
 163 96 163 96 212.5 47 c 128,-1,60
 262 -2 262 -2 330.5 -30 c 128,-1,61
 399 -58 399 -58 481 -58 c 0,62,63
 608 -58 608 -58 709 -8 c 128,-1,64
 810 42 810 42 896 134.5 c 128,-1,65
 982 227 982 227 1059 357 c 128,-1,66
 1136 487 1136 487 1216 647 c 1,67,68
 1112 688 1112 688 1023 752 c 1,69,-1
 1039 780 l 1,70,71
 1087 756 1087 756 1136.5 734.5 c 128,-1,72
 1186 713 1186 713 1240 696 c 1,40,41
1840 1035 m 0,73,74
 1840 1124 1840 1124 1801.5 1187 c 128,-1,75
 1763 1250 1763 1250 1694 1292 c 1,76,77
 1603 1174 1603 1174 1520.5 1017.5 c 128,-1,78
 1438 861 1438 861 1350 669 c 1,79,80
 1379 664 1379 664 1408 661.5 c 128,-1,81
 1437 659 1437 659 1467 659 c 0,82,83
 1543 659 1543 659 1610.5 686 c 128,-1,84
 1678 713 1678 713 1729 762.5 c 128,-1,85
 1780 812 1780 812 1810 881 c 128,-1,86
 1840 950 1840 950 1840 1035 c 0,73,74
EndSplineSet
EndChar

StartChar: Q
Encoding: 81 81 15
Width: 1518
Flags: W
LayerCount: 2
Fore
SplineSet
1516 -420 m 1,0,1
 1439 -462 1439 -462 1366.5 -479.5 c 128,-1,2
 1294 -497 1294 -497 1236 -497 c 0,3,4
 1148 -497 1148 -497 1086.5 -465 c 128,-1,5
 1025 -433 1025 -433 981 -382 c 128,-1,6
 937 -331 937 -331 906.5 -267 c 128,-1,7
 876 -203 876 -203 851 -138 c 1,8,9
 779 -172 779 -172 703.5 -190.5 c 128,-1,10
 628 -209 628 -209 548 -209 c 0,11,12
 444 -209 444 -209 351.5 -176 c 128,-1,13
 259 -143 259 -143 190 -76 c 128,-1,14
 121 -9 121 -9 80.5 92.5 c 128,-1,15
 40 194 40 194 40 330 c 0,16,17
 40 476 40 476 78 619.5 c 128,-1,18
 116 763 116 763 185.5 893.5 c 128,-1,19
 255 1024 255 1024 352.5 1135.5 c 128,-1,20
 450 1247 450 1247 569.5 1328.5 c 128,-1,21
 689 1410 689 1410 826.5 1456.5 c 128,-1,22
 964 1503 964 1503 1114 1503 c 0,23,24
 1204 1503 1204 1503 1269.5 1479.5 c 128,-1,25
 1335 1456 1335 1456 1381.5 1420 c 128,-1,26
 1428 1384 1428 1384 1457.5 1341.5 c 128,-1,27
 1487 1299 1487 1299 1503.5 1262 c 128,-1,28
 1520 1225 1520 1225 1526 1199 c 128,-1,29
 1532 1173 1532 1173 1533 1169 c 1,30,-1
 1482 1159 l 1,31,32
 1481 1161 1481 1161 1476 1183.5 c 128,-1,33
 1471 1206 1471 1206 1458 1238.5 c 128,-1,34
 1445 1271 1445 1271 1421.5 1308.5 c 128,-1,35
 1398 1346 1398 1346 1359.5 1378 c 128,-1,36
 1321 1410 1321 1410 1265.5 1431 c 128,-1,37
 1210 1452 1210 1452 1134 1452 c 0,38,39
 1019 1452 1019 1452 901 1405 c 128,-1,40
 783 1358 783 1358 673.5 1275.5 c 128,-1,41
 564 1193 564 1193 468.5 1082.5 c 128,-1,42
 373 972 373 972 301.5 844.5 c 128,-1,43
 230 717 230 717 189 580 c 128,-1,44
 148 443 148 443 148 308 c 0,45,46
 148 189 148 189 180 101.5 c 128,-1,47
 212 14 212 14 266.5 -43.5 c 128,-1,48
 321 -101 321 -101 394.5 -129 c 128,-1,49
 468 -157 468 -157 551 -157 c 0,50,51
 624 -157 624 -157 694.5 -139 c 128,-1,52
 765 -121 765 -121 832 -89 c 1,53,54
 813 -41 813 -41 793.5 2.5 c 128,-1,55
 774 46 774 46 749.5 79 c 128,-1,56
 725 112 725 112 694.5 131.5 c 128,-1,57
 664 151 664 151 623 151 c 0,58,59
 594 151 594 151 568.5 146.5 c 128,-1,60
 543 142 543 142 523.5 136 c 128,-1,61
 504 130 504 130 492.5 125.5 c 128,-1,62
 481 121 481 121 481 121 c 1,63,-1
 461 169 l 1,64,65
 463 170 463 170 479 175.5 c 128,-1,66
 495 181 495 181 520 187.5 c 128,-1,67
 545 194 545 194 577.5 199.5 c 128,-1,68
 610 205 610 205 646 205 c 0,69,70
 709 205 709 205 755 186 c 128,-1,71
 801 167 801 167 834 134.5 c 128,-1,72
 867 102 867 102 890.5 59 c 128,-1,73
 914 16 914 16 934 -32 c 1,74,75
 1005 15 1005 15 1069 76 c 128,-1,76
 1133 137 1133 137 1187.5 207 c 128,-1,77
 1242 277 1242 277 1285.5 355 c 128,-1,78
 1329 433 1329 433 1360 514 c 128,-1,79
 1391 595 1391 595 1407.5 676.5 c 128,-1,80
 1424 758 1424 758 1424 837 c 0,81,82
 1424 923 1424 923 1402 998 c 128,-1,83
 1380 1073 1380 1073 1340 1128.5 c 128,-1,84
 1300 1184 1300 1184 1243.5 1215.5 c 128,-1,85
 1187 1247 1187 1247 1117 1247 c 0,86,87
 1045 1247 1045 1247 977 1215 c 128,-1,88
 909 1183 909 1183 856.5 1126 c 128,-1,89
 804 1069 804 1069 772.5 990.5 c 128,-1,90
 741 912 741 912 741 820 c 0,91,92
 741 734 741 734 777 655 c 128,-1,93
 813 576 813 576 892 520 c 1,94,-1
 867 486 l 1,95,96
 822 502 822 502 780 531.5 c 128,-1,97
 738 561 738 561 706 603 c 128,-1,98
 674 645 674 645 654.5 699 c 128,-1,99
 635 753 635 753 635 819 c 0,100,101
 635 928 635 928 674 1016.5 c 128,-1,102
 713 1105 713 1105 779 1168 c 128,-1,103
 845 1231 845 1231 931 1265.5 c 128,-1,104
 1017 1300 1017 1300 1110 1300 c 0,105,106
 1196 1300 1196 1300 1264 1264.5 c 128,-1,107
 1332 1229 1332 1229 1379 1167 c 128,-1,108
 1426 1105 1426 1105 1451 1021.5 c 128,-1,109
 1476 938 1476 938 1476 841 c 0,110,111
 1476 759 1476 759 1458.5 672 c 128,-1,112
 1441 585 1441 585 1408.5 499 c 128,-1,113
 1376 413 1376 413 1330 330.5 c 128,-1,114
 1284 248 1284 248 1225.5 173 c 128,-1,115
 1167 98 1167 98 1098.5 33 c 128,-1,116
 1030 -32 1030 -32 953 -81 c 1,117,118
 968 -123 968 -123 984 -164.5 c 128,-1,119
 1000 -206 1000 -206 1019 -244.5 c 128,-1,120
 1038 -283 1038 -283 1062.5 -316 c 128,-1,121
 1087 -349 1087 -349 1119.5 -373 c 128,-1,122
 1152 -397 1152 -397 1195 -411 c 128,-1,123
 1238 -425 1238 -425 1294 -425 c 0,124,125
 1334 -425 1334 -425 1370 -417.5 c 128,-1,126
 1406 -410 1406 -410 1432.5 -400.5 c 128,-1,127
 1459 -391 1459 -391 1474.5 -383 c 128,-1,128
 1490 -375 1490 -375 1490 -375 c 1,129,-1
 1516 -420 l 1,0,1
EndSplineSet
EndChar

StartChar: R
Encoding: 82 82 16
Width: 2167
Flags: W
LayerCount: 2
Fore
SplineSet
1813 1437 m 1,0,1
 1748 1400 1748 1400 1691 1346 c 1,2,3
 1753 1319 1753 1319 1805.5 1279 c 128,-1,4
 1858 1239 1858 1239 1896.5 1186 c 128,-1,5
 1935 1133 1935 1133 1956.5 1066.5 c 128,-1,6
 1978 1000 1978 1000 1978 920 c 0,7,8
 1978 852 1978 852 1954.5 791.5 c 128,-1,9
 1931 731 1931 731 1889.5 682.5 c 128,-1,10
 1848 634 1848 634 1790.5 600.5 c 128,-1,11
 1733 567 1733 567 1665 554 c 1,12,13
 1698 509 1698 509 1718.5 454.5 c 128,-1,14
 1739 400 1739 400 1739 336 c 0,15,16
 1739 310 1739 310 1732 274.5 c 128,-1,17
 1725 239 1725 239 1714.5 200 c 128,-1,18
 1704 161 1704 161 1691.5 121.5 c 128,-1,19
 1679 82 1679 82 1668.5 48 c 128,-1,20
 1658 14 1658 14 1651 -12 c 128,-1,21
 1644 -38 1644 -38 1644 -50 c 0,22,23
 1644 -79 1644 -79 1660.5 -95.5 c 128,-1,24
 1677 -112 1677 -112 1706 -112 c 0,25,26
 1759 -112 1759 -112 1806 -89.5 c 128,-1,27
 1853 -67 1853 -67 1894.5 -29.5 c 128,-1,28
 1936 8 1936 8 1973 57.5 c 128,-1,29
 2010 107 2010 107 2043.5 161 c 128,-1,30
 2077 215 2077 215 2107.5 269.5 c 128,-1,31
 2138 324 2138 324 2167 373 c 1,32,-1
 2204 345 l 1,33,34
 2141 233 2141 233 2085.5 139.5 c 128,-1,35
 2030 46 2030 46 1972 -21.5 c 128,-1,36
 1914 -89 1914 -89 1849 -127 c 128,-1,37
 1784 -165 1784 -165 1701 -165 c 0,38,39
 1624 -165 1624 -165 1581.5 -122.5 c 128,-1,40
 1539 -80 1539 -80 1539 -2 c 0,41,42
 1539 52 1539 52 1555 101 c 128,-1,43
 1571 150 1571 150 1590.5 197 c 128,-1,44
 1610 244 1610 244 1626 291 c 128,-1,45
 1642 338 1642 338 1642 389 c 0,46,47
 1642 434 1642 434 1627.5 473 c 128,-1,48
 1613 512 1613 512 1587 547 c 1,49,50
 1556 547 1556 547 1516.5 550 c 128,-1,51
 1477 553 1477 553 1441.5 562 c 128,-1,52
 1406 571 1406 571 1382 588 c 128,-1,53
 1358 605 1358 605 1358 633 c 0,54,55
 1358 658 1358 658 1378 673.5 c 128,-1,56
 1398 689 1398 689 1437 689 c 0,57,58
 1482 689 1482 689 1524 668.5 c 128,-1,59
 1566 648 1566 648 1607 615 c 1,60,61
 1665 628 1665 628 1715 662 c 128,-1,62
 1765 696 1765 696 1801.5 743.5 c 128,-1,63
 1838 791 1838 791 1858.5 849 c 128,-1,64
 1879 907 1879 907 1879 968 c 0,65,66
 1879 1031 1879 1031 1862 1083.5 c 128,-1,67
 1845 1136 1845 1136 1814 1178 c 128,-1,68
 1783 1220 1783 1220 1741 1251.5 c 128,-1,69
 1699 1283 1699 1283 1649 1304 c 1,70,71
 1573 1221 1573 1221 1510 1113.5 c 128,-1,72
 1447 1006 1447 1006 1389.5 886.5 c 128,-1,73
 1332 767 1332 767 1278 642.5 c 128,-1,74
 1224 518 1224 518 1165.5 400.5 c 128,-1,75
 1107 283 1107 283 1040.5 179 c 128,-1,76
 974 75 974 75 893.5 -3 c 128,-1,77
 813 -81 813 -81 714.5 -126 c 128,-1,78
 616 -171 616 -171 493 -171 c 0,79,80
 397 -171 397 -171 313 -141 c 128,-1,81
 229 -111 229 -111 166 -52.5 c 128,-1,82
 103 6 103 6 66.5 92 c 128,-1,83
 30 178 30 178 30 290 c 0,84,85
 30 358 30 358 46.5 442 c 128,-1,86
 63 526 63 526 99 617.5 c 128,-1,87
 135 709 135 709 191.5 802.5 c 128,-1,88
 248 896 248 896 327.5 984 c 128,-1,89
 407 1072 407 1072 511.5 1149 c 128,-1,90
 616 1226 616 1226 747.5 1283.5 c 128,-1,91
 879 1341 879 1341 1039 1374 c 128,-1,92
 1199 1407 1199 1407 1390 1407 c 0,93,94
 1455 1407 1455 1407 1519 1396.5 c 128,-1,95
 1583 1386 1583 1386 1643 1366 c 1,96,97
 1678 1393 1678 1393 1716 1417.5 c 128,-1,98
 1754 1442 1754 1442 1796 1464 c 1,99,-1
 1813 1437 l 1,0,1
468 -118 m 0,100,101
 576 -118 576 -118 660 -75 c 128,-1,102
 744 -32 744 -32 812 41.5 c 128,-1,103
 880 115 880 115 936.5 214.5 c 128,-1,104
 993 314 993 314 1046.5 426.5 c 128,-1,105
 1100 539 1100 539 1154.5 660.5 c 128,-1,106
 1209 782 1209 782 1273 900 c 128,-1,107
 1337 1018 1337 1018 1415 1127 c 128,-1,108
 1493 1236 1493 1236 1594 1325 c 1,109,110
 1502 1352 1502 1352 1401 1352 c 0,111,112
 1215 1352 1215 1352 1047.5 1302 c 128,-1,113
 880 1252 880 1252 736.5 1167 c 128,-1,114
 593 1082 593 1082 477.5 970 c 128,-1,115
 362 858 362 858 280.5 734.5 c 128,-1,116
 199 611 199 611 155 482.5 c 128,-1,117
 111 354 111 354 111 237 c 0,118,119
 111 164 111 164 136.5 99 c 128,-1,120
 162 34 162 34 209 -14 c 128,-1,121
 256 -62 256 -62 322 -90 c 128,-1,122
 388 -118 388 -118 468 -118 c 0,100,101
1536 602 m 1,123,124
 1511 619 1511 619 1483 631 c 128,-1,125
 1455 643 1455 643 1434 643 c 0,126,127
 1420 643 1420 643 1415 639 c 128,-1,128
 1410 635 1410 635 1410 630 c 0,129,130
 1410 621 1410 621 1423 615.5 c 128,-1,131
 1436 610 1436 610 1455.5 606.5 c 128,-1,132
 1475 603 1475 603 1496.5 602 c 128,-1,133
 1518 601 1518 601 1536 602 c 1,123,124
EndSplineSet
EndChar

StartChar: S
Encoding: 83 83 17
Width: 1752
Flags: W
LayerCount: 2
Fore
SplineSet
2112 1248 m 0,0,1
 2112 1184 2112 1184 2087 1115 c 128,-1,2
 2062 1046 2062 1046 2014 979 c 128,-1,3
 1966 912 1966 912 1895.5 850 c 128,-1,4
 1825 788 1825 788 1733.5 737.5 c 128,-1,5
 1642 687 1642 687 1531 651 c 128,-1,6
 1420 615 1420 615 1291 600 c 1,7,8
 1238 503 1238 503 1181 407.5 c 128,-1,9
 1124 312 1124 312 1060 225.5 c 128,-1,10
 996 139 996 139 924.5 65.5 c 128,-1,11
 853 -8 853 -8 771.5 -62 c 128,-1,12
 690 -116 690 -116 596.5 -146.5 c 128,-1,13
 503 -177 503 -177 396 -177 c 0,14,15
 308 -177 308 -177 225.5 -151.5 c 128,-1,16
 143 -126 143 -126 79.5 -77.5 c 128,-1,17
 16 -29 16 -29 -22 41 c 128,-1,18
 -60 111 -60 111 -60 201 c 0,19,20
 -60 298 -60 298 -24.5 370 c 128,-1,21
 11 442 11 442 69.5 490 c 128,-1,22
 128 538 128 538 202 561.5 c 128,-1,23
 276 585 276 585 353 585 c 0,24,25
 412 585 412 585 469.5 573.5 c 128,-1,26
 527 562 527 562 579.5 541 c 128,-1,27
 632 520 632 520 677.5 491 c 128,-1,28
 723 462 723 462 758 427 c 1,29,-1
 728 395 l 1,30,31
 704 418 704 418 671.5 439 c 128,-1,32
 639 460 639 460 597 476.5 c 128,-1,33
 555 493 555 493 505 502.5 c 128,-1,34
 455 512 455 512 397 512 c 0,35,36
 330 512 330 512 267 489.5 c 128,-1,37
 204 467 204 467 155 424.5 c 128,-1,38
 106 382 106 382 76 320.5 c 128,-1,39
 46 259 46 259 46 180 c 0,40,41
 46 116 46 116 71.5 60.5 c 128,-1,42
 97 5 97 5 143.5 -35.5 c 128,-1,43
 190 -76 190 -76 253.5 -99 c 128,-1,44
 317 -122 317 -122 394 -122 c 0,45,46
 482 -122 482 -122 559.5 -94.5 c 128,-1,47
 637 -67 637 -67 704.5 -18.5 c 128,-1,48
 772 30 772 30 832.5 97 c 128,-1,49
 893 164 893 164 947.5 243.5 c 128,-1,50
 1002 323 1002 323 1052 411 c 128,-1,51
 1102 499 1102 499 1151 591 c 1,52,-1
 1124 591 l 2,53,54
 956 591 956 591 821.5 625.5 c 128,-1,55
 687 660 687 660 592.5 720 c 128,-1,56
 498 780 498 780 447.5 860.5 c 128,-1,57
 397 941 397 941 397 1034 c 256,58,59
 397 1127 397 1127 433 1198 c 128,-1,60
 469 1269 469 1269 531 1317 c 128,-1,61
 593 1365 593 1365 675 1389.5 c 128,-1,62
 757 1414 757 1414 849 1414 c 0,63,64
 928 1414 928 1414 994 1401.5 c 128,-1,65
 1060 1389 1060 1389 1112.5 1369.5 c 128,-1,66
 1165 1350 1165 1350 1205.5 1327 c 128,-1,67
 1246 1304 1246 1304 1274 1283 c 128,-1,68
 1302 1262 1302 1262 1318 1246 c 128,-1,69
 1334 1230 1334 1230 1339 1225 c 1,70,-1
 1305 1195 l 1,71,72
 1304 1196 1304 1196 1276 1220.5 c 128,-1,73
 1248 1245 1248 1245 1197 1274.5 c 128,-1,74
 1146 1304 1146 1304 1074 1328.5 c 128,-1,75
 1002 1353 1002 1353 914 1353 c 0,76,77
 825 1353 825 1353 750.5 1328 c 128,-1,78
 676 1303 676 1303 622 1258.5 c 128,-1,79
 568 1214 568 1214 537.5 1153 c 128,-1,80
 507 1092 507 1092 507 1020 c 0,81,82
 507 935 507 935 554 865.5 c 128,-1,83
 601 796 601 796 684.5 746.5 c 128,-1,84
 768 697 768 697 881.5 669.5 c 128,-1,85
 995 642 995 642 1129 642 c 2,86,-1
 1177 642 l 1,87,88
 1229 741 1229 741 1280.5 838.5 c 128,-1,89
 1332 936 1332 936 1386 1024.5 c 128,-1,90
 1440 1113 1440 1113 1498 1189 c 128,-1,91
 1556 1265 1556 1265 1621 1320.5 c 128,-1,92
 1686 1376 1686 1376 1760 1407.5 c 128,-1,93
 1834 1439 1834 1439 1919 1439 c 0,94,95
 1954 1439 1954 1439 1988.5 1429.5 c 128,-1,96
 2023 1420 2023 1420 2050.5 1397.5 c 128,-1,97
 2078 1375 2078 1375 2095 1338.5 c 128,-1,98
 2112 1302 2112 1302 2112 1248 c 0,0,1
1940 1385 m 0,99,100
 1877 1385 1877 1385 1820 1357 c 128,-1,101
 1763 1329 1763 1329 1711 1278.5 c 128,-1,102
 1659 1228 1659 1228 1610 1159.5 c 128,-1,103
 1561 1091 1561 1091 1513.5 1009.5 c 128,-1,104
 1466 928 1466 928 1418 837.5 c 128,-1,105
 1370 747 1370 747 1320 654 c 1,106,107
 1450 671 1450 671 1556 709 c 128,-1,108
 1662 747 1662 747 1744 797.5 c 128,-1,109
 1826 848 1826 848 1886 907 c 128,-1,110
 1946 966 1946 966 1985 1025 c 128,-1,111
 2024 1084 2024 1084 2042.5 1138.5 c 128,-1,112
 2061 1193 2061 1193 2061 1236 c 0,113,114
 2061 1268 2061 1268 2054.5 1295 c 128,-1,115
 2048 1322 2048 1322 2034 1342 c 128,-1,116
 2020 1362 2020 1362 1997 1373.5 c 128,-1,117
 1974 1385 1974 1385 1940 1385 c 0,99,100
EndSplineSet
EndChar

StartChar: T
Encoding: 84 84 18
Width: 1562
Flags: W
LayerCount: 2
Fore
SplineSet
2282 1420 m 1,0,1
 2217 1378 2217 1378 2146.5 1349.5 c 128,-1,2
 2076 1321 2076 1321 2001 1304 c 128,-1,3
 1926 1287 1926 1287 1847 1280 c 128,-1,4
 1768 1273 1768 1273 1687 1273 c 0,5,6
 1585 1273 1585 1273 1472 1283.5 c 128,-1,7
 1359 1294 1359 1294 1247.5 1306 c 128,-1,8
 1136 1318 1136 1318 1032 1328.5 c 128,-1,9
 928 1339 928 1339 844 1339 c 0,10,11
 721 1339 721 1339 620 1307.5 c 128,-1,12
 519 1276 519 1276 447 1218.5 c 128,-1,13
 375 1161 375 1161 335.5 1080.5 c 128,-1,14
 296 1000 296 1000 296 901 c 0,15,16
 296 832 296 832 319.5 776.5 c 128,-1,17
 343 721 343 721 386.5 683 c 128,-1,18
 430 645 430 645 491 624.5 c 128,-1,19
 552 604 552 604 626 604 c 0,20,21
 690 604 690 604 758 619.5 c 128,-1,22
 826 635 826 635 892 666 c 1,23,-1
 913 625 l 1,24,25
 846 586 846 586 758.5 563 c 128,-1,26
 671 540 671 540 582 540 c 0,27,28
 505 540 505 540 434 562 c 128,-1,29
 363 584 363 584 307.5 628.5 c 128,-1,30
 252 673 252 673 219 740.5 c 128,-1,31
 186 808 186 808 186 899 c 0,32,33
 186 989 186 989 213 1060.5 c 128,-1,34
 240 1132 240 1132 287 1187.5 c 128,-1,35
 334 1243 334 1243 397 1282 c 128,-1,36
 460 1321 460 1321 532.5 1346.5 c 128,-1,37
 605 1372 605 1372 683 1383.5 c 128,-1,38
 761 1395 761 1395 838 1395 c 0,39,40
 930 1395 930 1395 1035.5 1384 c 128,-1,41
 1141 1373 1141 1373 1251 1360.5 c 128,-1,42
 1361 1348 1361 1348 1472 1337 c 128,-1,43
 1583 1326 1583 1326 1687 1326 c 0,44,45
 1765 1326 1765 1326 1841 1332.5 c 128,-1,46
 1917 1339 1917 1339 1988.5 1355 c 128,-1,47
 2060 1371 2060 1371 2126.5 1397.5 c 128,-1,48
 2193 1424 2193 1424 2254 1464 c 1,49,-1
 2282 1420 l 1,0,1
1580 1185 m 1,50,51
 1495 1083 1495 1083 1429.5 971.5 c 128,-1,52
 1364 860 1364 860 1308.5 748 c 128,-1,53
 1253 636 1253 636 1203 526.5 c 128,-1,54
 1153 417 1153 417 1099 318.5 c 128,-1,55
 1045 220 1045 220 983.5 136.5 c 128,-1,56
 922 53 922 53 843.5 -8 c 128,-1,57
 765 -69 765 -69 664.5 -103.5 c 128,-1,58
 564 -138 564 -138 434 -138 c 0,59,60
 319 -138 319 -138 230.5 -108.5 c 128,-1,61
 142 -79 142 -79 82 -27.5 c 128,-1,62
 22 24 22 24 -9 93.5 c 128,-1,63
 -40 163 -40 163 -40 244 c 0,64,65
 -40 275 -40 275 -36 303 c 128,-1,66
 -32 331 -32 331 -24 354 c 1,67,-1
 26 339 l 1,68,69
 20 319 20 319 16 294.5 c 128,-1,70
 12 270 12 270 12 244 c 0,71,72
 12 161 12 161 47 99 c 128,-1,73
 82 37 82 37 139 -4 c 128,-1,74
 196 -45 196 -45 269 -65.5 c 128,-1,75
 342 -86 342 -86 418 -86 c 0,76,77
 528 -86 528 -86 613.5 -48 c 128,-1,78
 699 -10 699 -10 769 55.5 c 128,-1,79
 839 121 839 121 896.5 209 c 128,-1,80
 954 297 954 297 1008 398 c 128,-1,81
 1062 499 1062 499 1116.5 608 c 128,-1,82
 1171 717 1171 717 1234.5 824 c 128,-1,83
 1298 931 1298 931 1374 1030.5 c 128,-1,84
 1450 1130 1450 1130 1548 1212 c 1,85,-1
 1580 1185 l 1,50,51
EndSplineSet
EndChar

StartChar: U
Encoding: 85 85 19
Width: 2374
Flags: W
LayerCount: 2
Fore
SplineSet
2411 345 m 1,0,1
 2388 307 2388 307 2357 261.5 c 128,-1,2
 2326 216 2326 216 2288 169 c 128,-1,3
 2250 122 2250 122 2205.5 78 c 128,-1,4
 2161 34 2161 34 2111 0 c 128,-1,5
 2061 -34 2061 -34 2007 -54.5 c 128,-1,6
 1953 -75 1953 -75 1895 -75 c 0,7,8
 1843 -75 1843 -75 1805 -58.5 c 128,-1,9
 1767 -42 1767 -42 1742 -14.5 c 128,-1,10
 1717 13 1717 13 1705 49 c 128,-1,11
 1693 85 1693 85 1693 125 c 0,12,13
 1693 182 1693 182 1711 250 c 1,14,15
 1623 146 1623 146 1544 69 c 128,-1,16
 1465 -8 1465 -8 1387.5 -58.5 c 128,-1,17
 1310 -109 1310 -109 1230.5 -134 c 128,-1,18
 1151 -159 1151 -159 1061 -159 c 0,19,20
 1005 -159 1005 -159 956.5 -144 c 128,-1,21
 908 -129 908 -129 872 -99.5 c 128,-1,22
 836 -70 836 -70 815 -26 c 128,-1,23
 794 18 794 18 794 77 c 0,24,25
 794 151 794 151 829 227.5 c 128,-1,26
 864 304 864 304 916 380.5 c 128,-1,27
 968 457 968 457 1029.5 534 c 128,-1,28
 1091 611 1091 611 1143 687 c 128,-1,29
 1195 763 1195 763 1230 838 c 128,-1,30
 1265 913 1265 913 1265 986 c 0,31,32
 1265 1050 1265 1050 1238.5 1110.5 c 128,-1,33
 1212 1171 1212 1171 1155 1217 c 128,-1,34
 1098 1263 1098 1263 1009 1291 c 128,-1,35
 920 1319 920 1319 795 1319 c 0,36,37
 690 1319 690 1319 603 1299 c 128,-1,38
 516 1279 516 1279 447 1244 c 128,-1,39
 378 1209 378 1209 327 1161.5 c 128,-1,40
 276 1114 276 1114 242 1060 c 128,-1,41
 208 1006 208 1006 191.5 947 c 128,-1,42
 175 888 175 888 175 830 c 0,43,44
 175 753 175 753 203 700 c 128,-1,45
 231 647 231 647 275.5 614.5 c 128,-1,46
 320 582 320 582 376 567.5 c 128,-1,47
 432 553 432 553 488 553 c 0,48,49
 548 553 548 553 602 567 c 128,-1,50
 656 581 656 581 696.5 598 c 128,-1,51
 737 615 737 615 761 629 c 128,-1,52
 785 643 785 643 786 644 c 1,53,-1
 812 606 l 1,54,55
 733 543 733 543 634.5 508 c 128,-1,56
 536 473 536 473 438 473 c 0,57,58
 367 473 367 473 299 493.5 c 128,-1,59
 231 514 231 514 178 557 c 128,-1,60
 125 600 125 600 92.5 667.5 c 128,-1,61
 60 735 60 735 60 828 c 0,62,63
 60 935 60 935 112.5 1033.5 c 128,-1,64
 165 1132 165 1132 261 1207 c 128,-1,65
 357 1282 357 1282 493 1327 c 128,-1,66
 629 1372 629 1372 796 1372 c 0,67,68
 913 1372 913 1372 1013.5 1343 c 128,-1,69
 1114 1314 1114 1314 1187.5 1259.5 c 128,-1,70
 1261 1205 1261 1205 1303 1128 c 128,-1,71
 1345 1051 1345 1051 1346 955 c 0,72,73
 1347 868 1347 868 1313 783 c 128,-1,74
 1279 698 1279 698 1227.5 616 c 128,-1,75
 1176 534 1176 534 1116 457 c 128,-1,76
 1056 380 1056 380 1004.5 309.5 c 128,-1,77
 953 239 953 239 918.5 176.5 c 128,-1,78
 884 114 884 114 884 61 c 0,79,80
 884 30 884 30 895.5 0.5 c 128,-1,81
 907 -29 907 -29 932 -51.5 c 128,-1,82
 957 -74 957 -74 994.5 -88 c 128,-1,83
 1032 -102 1032 -102 1085 -102 c 0,84,85
 1201 -102 1201 -102 1306 -42 c 128,-1,86
 1411 18 1411 18 1511 121.5 c 128,-1,87
 1611 225 1611 225 1708.5 363.5 c 128,-1,88
 1806 502 1806 502 1907.5 659.5 c 128,-1,89
 2009 817 2009 817 2118 985 c 128,-1,90
 2227 1153 2227 1153 2349 1315 c 1,91,-1
 2394 1290 l 1,92,93
 2336 1181 2336 1181 2267.5 1060.5 c 128,-1,94
 2199 940 2199 940 2130.5 820 c 128,-1,95
 2062 700 2062 700 1998 585.5 c 128,-1,96
 1934 471 1934 471 1884.5 374 c 128,-1,97
 1835 277 1835 277 1805.5 202.5 c 128,-1,98
 1776 128 1776 128 1776 88 c 0,99,100
 1776 32 1776 32 1810.5 4.5 c 128,-1,101
 1845 -23 1845 -23 1893 -23 c 0,102,103
 1943 -23 1943 -23 1990.5 -4 c 128,-1,104
 2038 15 2038 15 2083 46.5 c 128,-1,105
 2128 78 2128 78 2169 118.5 c 128,-1,106
 2210 159 2210 159 2247 203 c 128,-1,107
 2284 247 2284 247 2316 291 c 128,-1,108
 2348 335 2348 335 2374 373 c 1,109,-1
 2411 345 l 1,0,1
EndSplineSet
EndChar

StartChar: V
Encoding: 86 86 20
Width: 2216
Flags: W
LayerCount: 2
Fore
SplineSet
1065 772 m 1,0,1
 1019 692 1019 692 959.5 612 c 128,-1,2
 900 532 900 532 826.5 467.5 c 128,-1,3
 753 403 753 403 664 362.5 c 128,-1,4
 575 322 575 322 470 322 c 0,5,6
 384 322 384 322 309 348.5 c 128,-1,7
 234 375 234 375 178.5 427 c 128,-1,8
 123 479 123 479 91.5 554.5 c 128,-1,9
 60 630 60 630 60 729 c 0,10,11
 60 850 60 850 97.5 951.5 c 128,-1,12
 135 1053 135 1053 199 1134.5 c 128,-1,13
 263 1216 263 1216 348 1277.5 c 128,-1,14
 433 1339 433 1339 529 1380.5 c 128,-1,15
 625 1422 625 1422 726.5 1442.5 c 128,-1,16
 828 1463 828 1463 924 1462 c 0,17,18
 1028 1461 1028 1461 1127.5 1432 c 128,-1,19
 1227 1403 1227 1403 1304.5 1343.5 c 128,-1,20
 1382 1284 1382 1284 1429 1193 c 128,-1,21
 1476 1102 1476 1102 1476 978 c 0,22,23
 1476 892 1476 892 1446 785.5 c 128,-1,24
 1416 679 1416 679 1342 550 c 0,25,26
 1256 400 1256 400 1193 294.5 c 128,-1,27
 1130 189 1130 189 1088.5 117.5 c 128,-1,28
 1047 46 1047 46 1027 3.5 c 128,-1,29
 1007 -39 1007 -39 1007 -64 c 0,30,31
 1007 -88 1007 -88 1028.5 -102 c 128,-1,32
 1050 -116 1050 -116 1089 -116 c 0,33,34
 1142 -116 1142 -116 1214 -88 c 128,-1,35
 1286 -60 1286 -60 1373 -4 c 0,36,37
 1452 46 1452 46 1529 111 c 128,-1,38
 1606 176 1606 176 1679.5 249.5 c 128,-1,39
 1753 323 1753 323 1821.5 402 c 128,-1,40
 1890 481 1890 481 1951 559.5 c 128,-1,41
 2012 638 2012 638 2064 713 c 128,-1,42
 2116 788 2116 788 2157 854 c 1,43,44
 2137 916 2137 916 2128 972.5 c 128,-1,45
 2119 1029 2119 1029 2119 1079 c 0,46,47
 2119 1140 2119 1140 2130 1187.5 c 128,-1,48
 2141 1235 2141 1235 2159.5 1267.5 c 128,-1,49
 2178 1300 2178 1300 2203.5 1317 c 128,-1,50
 2229 1334 2229 1334 2258 1334 c 0,51,52
 2283 1334 2283 1334 2301.5 1322.5 c 128,-1,53
 2320 1311 2320 1311 2332 1293 c 128,-1,54
 2344 1275 2344 1275 2350 1252 c 128,-1,55
 2356 1229 2356 1229 2356 1206 c 0,56,57
 2356 1171 2356 1171 2344 1121 c 128,-1,58
 2332 1071 2332 1071 2300 1003 c 0,59,60
 2273 945 2273 945 2224 863 c 128,-1,61
 2175 781 2175 781 2108.5 685.5 c 128,-1,62
 2042 590 2042 590 1961.5 488 c 128,-1,63
 1881 386 1881 386 1790 288.5 c 128,-1,64
 1699 191 1699 191 1600.5 104 c 128,-1,65
 1502 17 1502 17 1401 -48 c 0,66,67
 1294 -117 1294 -117 1218 -143 c 128,-1,68
 1142 -169 1142 -169 1090 -169 c 0,69,70
 1043 -169 1043 -169 1011.5 -155 c 128,-1,71
 980 -141 980 -141 961 -117.5 c 128,-1,72
 942 -94 942 -94 934 -65 c 128,-1,73
 926 -36 926 -36 926 -6 c 0,74,75
 926 30 926 30 937 70 c 128,-1,76
 948 110 948 110 971 148 c 0,77,78
 998 193 998 193 1039 258 c 128,-1,79
 1080 323 1080 323 1126.5 400 c 128,-1,80
 1173 477 1173 477 1220 562.5 c 128,-1,81
 1267 648 1267 648 1304.5 733.5 c 128,-1,82
 1342 819 1342 819 1365.5 901 c 128,-1,83
 1389 983 1389 983 1389 1053 c 0,84,85
 1389 1121 1389 1121 1358.5 1185 c 128,-1,86
 1328 1249 1328 1249 1268.5 1299 c 128,-1,87
 1209 1349 1209 1349 1122 1379.5 c 128,-1,88
 1035 1410 1035 1410 921 1410 c 0,89,90
 819 1410 819 1410 724.5 1385.5 c 128,-1,91
 630 1361 630 1361 547 1317 c 128,-1,92
 464 1273 464 1273 395.5 1211.5 c 128,-1,93
 327 1150 327 1150 278 1076.5 c 128,-1,94
 229 1003 229 1003 202 919.5 c 128,-1,95
 175 836 175 836 175 748 c 0,96,97
 175 664 175 664 201.5 599.5 c 128,-1,98
 228 535 228 535 273 492 c 128,-1,99
 318 449 318 449 377 427 c 128,-1,100
 436 405 436 405 501 405 c 0,101,102
 571 405 571 405 642 432 c 128,-1,103
 713 459 713 459 780.5 510 c 128,-1,104
 848 561 848 561 910 633.5 c 128,-1,105
 972 706 972 706 1025 796 c 1,106,-1
 1065 772 l 1,0,1
2193 915 m 1,107,108
 2227 972 2227 972 2248.5 1017 c 128,-1,109
 2270 1062 2270 1062 2282 1097 c 128,-1,110
 2294 1132 2294 1132 2298.5 1158.5 c 128,-1,111
 2303 1185 2303 1185 2303 1205 c 0,112,113
 2303 1217 2303 1217 2301 1230.5 c 128,-1,114
 2299 1244 2299 1244 2293.5 1255.5 c 128,-1,115
 2288 1267 2288 1267 2278.5 1274 c 128,-1,116
 2269 1281 2269 1281 2253 1281 c 0,117,118
 2235 1281 2235 1281 2220 1264.5 c 128,-1,119
 2205 1248 2205 1248 2194 1220.5 c 128,-1,120
 2183 1193 2183 1193 2177 1156.5 c 128,-1,121
 2171 1120 2171 1120 2171 1078 c 0,122,123
 2171 1042 2171 1042 2176 1001 c 128,-1,124
 2181 960 2181 960 2193 915 c 1,107,108
EndSplineSet
EndChar

StartChar: W
Encoding: 87 87 21
Width: 2779
Flags: W
LayerCount: 2
Fore
SplineSet
2333 1214 m 1,0,1
 2283 1048 2283 1048 2223 899 c 128,-1,2
 2163 750 2163 750 2109 635 c 0,3,4
 2047 501 2047 501 1984 387 c 1,5,6
 1933 297 1933 297 1898.5 230 c 128,-1,7
 1864 163 1864 163 1843 115.5 c 128,-1,8
 1822 68 1822 68 1813 36.5 c 128,-1,9
 1804 5 1804 5 1804 -15 c 0,10,11
 1804 -36 1804 -36 1813 -47.5 c 128,-1,12
 1822 -59 1822 -59 1834.5 -65 c 128,-1,13
 1847 -71 1847 -71 1859.5 -72.5 c 128,-1,14
 1872 -74 1872 -74 1880 -74 c 0,15,16
 1915 -74 1915 -74 1963.5 -54.5 c 128,-1,17
 2012 -35 2012 -35 2068.5 0.5 c 128,-1,18
 2125 36 2125 36 2187 86.5 c 128,-1,19
 2249 137 2249 137 2310 200 c 128,-1,20
 2371 263 2371 263 2428.5 336.5 c 128,-1,21
 2486 410 2486 410 2534 492 c 0,22,23
 2611 626 2611 626 2657 740 c 1,24,25
 2628 797 2628 797 2614 857.5 c 128,-1,26
 2600 918 2600 918 2600 972 c 0,27,28
 2600 1050 2600 1050 2624.5 1097 c 128,-1,29
 2649 1144 2649 1144 2693 1144 c 0,30,31
 2717 1144 2717 1144 2733.5 1132 c 128,-1,32
 2750 1120 2750 1120 2760 1101 c 128,-1,33
 2770 1082 2770 1082 2774.5 1059.5 c 128,-1,34
 2779 1037 2779 1037 2779 1015 c 0,35,36
 2779 968 2779 968 2765.5 907 c 128,-1,37
 2752 846 2752 846 2726.5 775.5 c 128,-1,38
 2701 705 2701 705 2664 626.5 c 128,-1,39
 2627 548 2627 548 2579 466 c 256,40,41
 2531 384 2531 384 2472.5 308.5 c 128,-1,42
 2414 233 2414 233 2350.5 167 c 128,-1,43
 2287 101 2287 101 2221.5 46.5 c 128,-1,44
 2156 -8 2156 -8 2094.5 -46.5 c 128,-1,45
 2033 -85 2033 -85 1977.5 -106.5 c 128,-1,46
 1922 -128 1922 -128 1880 -128 c 0,47,48
 1801 -128 1801 -128 1756 -92 c 128,-1,49
 1711 -56 1711 -56 1711 23 c 0,50,51
 1711 66 1711 66 1722.5 109 c 128,-1,52
 1734 152 1734 152 1756.5 202 c 128,-1,53
 1779 252 1779 252 1812 311.5 c 128,-1,54
 1845 371 1845 371 1888 446 c 1,55,56
 1788 313 1788 313 1672.5 188.5 c 128,-1,57
 1557 64 1557 64 1426 -34 c 0,58,59
 1367 -78 1367 -78 1318 -107.5 c 128,-1,60
 1269 -137 1269 -137 1228.5 -155 c 128,-1,61
 1188 -173 1188 -173 1155 -180.5 c 128,-1,62
 1122 -188 1122 -188 1095 -188 c 0,63,64
 1056 -188 1056 -188 1027.5 -177 c 128,-1,65
 999 -166 999 -166 980.5 -147.5 c 128,-1,66
 962 -129 962 -129 953.5 -103.5 c 128,-1,67
 945 -78 945 -78 945 -48 c 0,68,69
 945 2 945 2 960 47 c 128,-1,70
 975 92 975 92 1004 139 c 0,71,72
 1037 191 1037 191 1082.5 254 c 128,-1,73
 1128 317 1128 317 1177.5 386 c 128,-1,74
 1227 455 1227 455 1275.5 527 c 128,-1,75
 1324 599 1324 599 1362.5 670 c 128,-1,76
 1401 741 1401 741 1424.5 808 c 128,-1,77
 1448 875 1448 875 1448 934 c 0,78,79
 1448 1027 1448 1027 1411.5 1104 c 128,-1,80
 1375 1181 1375 1181 1307 1236 c 128,-1,81
 1239 1291 1239 1291 1142.5 1321 c 128,-1,82
 1046 1351 1046 1351 926 1351 c 0,83,84
 761 1351 761 1351 623 1303 c 128,-1,85
 485 1255 485 1255 385.5 1170.5 c 128,-1,86
 286 1086 286 1086 230.5 971.5 c 128,-1,87
 175 857 175 857 175 725 c 0,88,89
 175 644 175 644 200.5 577.5 c 128,-1,90
 226 511 226 511 272.5 463 c 128,-1,91
 319 415 319 415 385.5 388.5 c 128,-1,92
 452 362 452 362 534 362 c 0,93,94
 629 362 629 362 710 395.5 c 128,-1,95
 791 429 791 429 857.5 487 c 128,-1,96
 924 545 924 545 976 623.5 c 128,-1,97
 1028 702 1028 702 1064 792 c 1,98,-1
 1109 776 l 1,99,100
 1012 535 1012 535 852 411.5 c 128,-1,101
 692 288 692 288 472 288 c 0,102,103
 379 288 379 288 303 319.5 c 128,-1,104
 227 351 227 351 173 407.5 c 128,-1,105
 119 464 119 464 89.5 542.5 c 128,-1,106
 60 621 60 621 60 715 c 0,107,108
 60 842 60 842 102 943 c 128,-1,109
 144 1044 144 1044 213.5 1120.5 c 128,-1,110
 283 1197 283 1197 371.5 1251 c 128,-1,111
 460 1305 460 1305 553 1339 c 128,-1,112
 646 1373 646 1373 735 1388.5 c 128,-1,113
 824 1404 824 1404 895 1404 c 0,114,115
 1029 1404 1029 1404 1143 1371.5 c 128,-1,116
 1257 1339 1257 1339 1340.5 1274.5 c 128,-1,117
 1424 1210 1424 1210 1471 1115 c 128,-1,118
 1518 1020 1518 1020 1518 895 c 0,119,120
 1518 804 1518 804 1483.5 693.5 c 128,-1,121
 1449 583 1449 583 1364 456 c 0,122,123
 1286 339 1286 339 1222 253 c 128,-1,124
 1158 167 1158 167 1112.5 104.5 c 128,-1,125
 1067 42 1067 42 1042 0 c 128,-1,126
 1017 -42 1017 -42 1017 -70 c 0,127,128
 1017 -99 1017 -99 1038 -117 c 128,-1,129
 1059 -135 1059 -135 1096 -135 c 0,130,131
 1149 -135 1149 -135 1224.5 -99 c 128,-1,132
 1300 -63 1300 -63 1394 7 c 0,133,134
 1487 76 1487 76 1571.5 159 c 128,-1,135
 1656 242 1656 242 1731.5 331.5 c 128,-1,136
 1807 421 1807 421 1874 514 c 128,-1,137
 1941 607 1941 607 1998 696.5 c 128,-1,138
 2055 786 2055 786 2102 869.5 c 128,-1,139
 2149 953 2149 953 2185 1023.5 c 128,-1,140
 2221 1094 2221 1094 2246 1148.5 c 128,-1,141
 2271 1203 2271 1203 2284 1234 c 1,142,-1
 2333 1214 l 1,0,1
2684 809 m 1,143,144
 2707 873 2707 873 2717 925 c 128,-1,145
 2727 977 2727 977 2727 1014 c 0,146,147
 2727 1021 2727 1021 2726.5 1034.5 c 128,-1,148
 2726 1048 2726 1048 2722.5 1060.5 c 128,-1,149
 2719 1073 2719 1073 2712 1082.5 c 128,-1,150
 2705 1092 2705 1092 2693 1092 c 0,151,152
 2676 1092 2676 1092 2664.5 1058 c 128,-1,153
 2653 1024 2653 1024 2653 975 c 0,154,155
 2653 938 2653 938 2660 895.5 c 128,-1,156
 2667 853 2667 853 2684 809 c 1,143,144
EndSplineSet
EndChar

StartChar: X
Encoding: 88 88 22
Width: 2570
Flags: W
LayerCount: 2
Fore
SplineSet
1199 662 m 1,0,1
 1103 559 1103 559 979.5 507.5 c 128,-1,2
 856 456 856 456 728 456 c 0,3,4
 639 456 639 456 558.5 481 c 128,-1,5
 478 506 478 506 416 554 c 128,-1,6
 354 602 354 602 317.5 673 c 128,-1,7
 281 744 281 744 281 837 c 0,8,9
 281 929 281 929 309.5 1004 c 128,-1,10
 338 1079 338 1079 387 1138 c 128,-1,11
 436 1197 436 1197 501 1240 c 128,-1,12
 566 1283 566 1283 638.5 1311.5 c 128,-1,13
 711 1340 711 1340 786.5 1354 c 128,-1,14
 862 1368 862 1368 933 1368 c 0,15,16
 1098 1368 1098 1368 1220.5 1325 c 128,-1,17
 1343 1282 1343 1282 1423.5 1208 c 128,-1,18
 1504 1134 1504 1134 1544 1034.5 c 128,-1,19
 1584 935 1584 935 1584 821 c 0,20,21
 1584 779 1584 779 1578 739 c 1,22,23
 1684 902 1684 902 1798.5 1014 c 128,-1,24
 1913 1126 1913 1126 2023.5 1199 c 128,-1,25
 2134 1272 2134 1272 2234 1312 c 128,-1,26
 2334 1352 2334 1352 2411 1371 c 128,-1,27
 2488 1390 2488 1390 2536 1394 c 128,-1,28
 2584 1398 2584 1398 2590 1398 c 1,29,-1
 2590 1345 l 1,30,31
 2587 1345 2587 1345 2556.5 1343 c 128,-1,32
 2526 1341 2526 1341 2474.5 1331 c 128,-1,33
 2423 1321 2423 1321 2354.5 1300 c 128,-1,34
 2286 1279 2286 1279 2206.5 1241 c 128,-1,35
 2127 1203 2127 1203 2039.5 1144.5 c 128,-1,36
 1952 1086 1952 1086 1864 1001.5 c 128,-1,37
 1776 917 1776 917 1689.5 803 c 128,-1,38
 1603 689 1603 689 1525 539 c 0,39,40
 1486 464 1486 464 1466.5 391.5 c 128,-1,41
 1447 319 1447 319 1447 252 c 0,42,43
 1447 183 1447 183 1467 121.5 c 128,-1,44
 1487 60 1487 60 1530 12 c 128,-1,45
 1573 -36 1573 -36 1640.5 -66.5 c 128,-1,46
 1708 -97 1708 -97 1802 -104 c 1,47,48
 1833 -1 1833 -1 1880 88 c 128,-1,49
 1927 177 1927 177 1987 243 c 128,-1,50
 2047 309 2047 309 2118 346.5 c 128,-1,51
 2189 384 2189 384 2266 384 c 0,52,53
 2300 384 2300 384 2324.5 374 c 128,-1,54
 2349 364 2349 364 2365.5 347.5 c 128,-1,55
 2382 331 2382 331 2390 309 c 128,-1,56
 2398 287 2398 287 2398 262 c 0,57,58
 2398 226 2398 226 2380 182.5 c 128,-1,59
 2362 139 2362 139 2329 94 c 128,-1,60
 2296 49 2296 49 2249 6 c 128,-1,61
 2202 -37 2202 -37 2144.5 -71 c 128,-1,62
 2087 -105 2087 -105 2020 -127.5 c 128,-1,63
 1953 -150 1953 -150 1879 -154 c 1,64,65
 1853 -224 1853 -224 1833.5 -299 c 128,-1,66
 1814 -374 1814 -374 1804 -453 c 1,67,-1
 1752 -444 l 1,68,69
 1752 -369 1752 -369 1761.5 -295.5 c 128,-1,70
 1771 -222 1771 -222 1788 -152 c 1,71,72
 1686 -144 1686 -144 1611.5 -109 c 128,-1,73
 1537 -74 1537 -74 1488.5 -20 c 128,-1,74
 1440 34 1440 34 1416.5 103.5 c 128,-1,75
 1393 173 1393 173 1393 251 c 0,76,77
 1393 273 1393 273 1394.5 295 c 128,-1,78
 1396 317 1396 317 1400 340 c 1,79,80
 1319 238 1319 238 1209.5 151 c 128,-1,81
 1100 64 1100 64 971 0.5 c 128,-1,82
 842 -63 842 -63 697 -98.5 c 128,-1,83
 552 -134 552 -134 400 -134 c 0,84,85
 295 -134 295 -134 207 -118.5 c 128,-1,86
 119 -103 119 -103 55 -71 c 128,-1,87
 -9 -39 -9 -39 -44.5 10.5 c 128,-1,88
 -80 60 -80 60 -80 128 c 0,89,90
 -80 175 -80 175 -65 211 c 128,-1,91
 -50 247 -50 247 -25.5 274 c 128,-1,92
 -1 301 -1 301 32 319.5 c 128,-1,93
 65 338 65 338 101 349.5 c 128,-1,94
 137 361 137 361 174 366 c 128,-1,95
 211 371 211 371 244 371 c 0,96,97
 293 371 293 371 338.5 360.5 c 128,-1,98
 384 350 384 350 417 334 c 1,99,-1
 395 295 l 1,100,101
 370 304 370 304 339.5 311.5 c 128,-1,102
 309 319 309 319 269 319 c 0,103,104
 214 319 214 319 170 304 c 128,-1,105
 126 289 126 289 95.5 263 c 128,-1,106
 65 237 65 237 48.5 203 c 128,-1,107
 32 169 32 169 32 131 c 0,108,109
 32 33 32 33 126 -24 c 128,-1,110
 220 -81 220 -81 407 -81 c 0,111,112
 526 -81 526 -81 635.5 -54.5 c 128,-1,113
 745 -28 745 -28 843 18 c 128,-1,114
 941 64 941 64 1026 126 c 128,-1,115
 1111 188 1111 188 1182 258.5 c 128,-1,116
 1253 329 1253 329 1308 404 c 128,-1,117
 1363 479 1363 479 1401 552 c 128,-1,118
 1439 625 1439 625 1459 691.5 c 128,-1,119
 1479 758 1479 758 1479 812 c 0,120,121
 1479 874 1479 874 1468.5 936 c 128,-1,122
 1458 998 1458 998 1433.5 1054 c 128,-1,123
 1409 1110 1409 1110 1369 1158.5 c 128,-1,124
 1329 1207 1329 1207 1269 1242.5 c 128,-1,125
 1209 1278 1209 1278 1127.5 1298.5 c 128,-1,126
 1046 1319 1046 1319 940 1319 c 0,127,128
 803 1319 803 1319 701 1278 c 128,-1,129
 599 1237 599 1237 532 1172 c 128,-1,130
 465 1107 465 1107 432 1025.5 c 128,-1,131
 399 944 399 944 399 862 c 0,132,133
 399 779 399 779 428.5 716 c 128,-1,134
 458 653 458 653 509 611 c 128,-1,135
 560 569 560 569 629 547.5 c 128,-1,136
 698 526 698 526 776 526 c 0,137,138
 837 526 837 526 889.5 538.5 c 128,-1,139
 942 551 942 551 985.5 569.5 c 128,-1,140
 1029 588 1029 588 1063 610 c 128,-1,141
 1097 632 1097 632 1120.5 651 c 128,-1,142
 1144 670 1144 670 1156 682.5 c 128,-1,143
 1168 695 1168 695 1169 696 c 1,144,-1
 1199 662 l 1,0,1
2280 331 m 0,145,146
 2239 331 2239 331 2189.5 299 c 128,-1,147
 2140 267 2140 267 2089 209 c 128,-1,148
 2038 151 2038 151 1988.5 71.5 c 128,-1,149
 1939 -8 1939 -8 1899 -103 c 1,150,151
 1959 -97 1959 -97 2016 -76.5 c 128,-1,152
 2073 -56 2073 -56 2122.5 -26.5 c 128,-1,153
 2172 3 2172 3 2213 39.5 c 128,-1,154
 2254 76 2254 76 2283.5 114.5 c 128,-1,155
 2313 153 2313 153 2329.5 191.5 c 128,-1,156
 2346 230 2346 230 2346 264 c 0,157,158
 2346 294 2346 294 2326.5 312.5 c 128,-1,159
 2307 331 2307 331 2280 331 c 0,145,146
EndSplineSet
EndChar

StartChar: Y
Encoding: 89 89 23
Width: 2023
Flags: W
LayerCount: 2
Fore
SplineSet
620 122 m 1,0,1
 590 131 590 131 565 136.5 c 128,-1,2
 540 142 540 142 515.5 145 c 128,-1,3
 491 148 491 148 466 149.5 c 128,-1,4
 441 151 441 151 412 151 c 0,5,6
 317 151 317 151 233 119 c 128,-1,7
 149 87 149 87 86.5 29 c 128,-1,8
 24 -29 24 -29 -12.5 -109.5 c 128,-1,9
 -49 -190 -49 -190 -49 -286 c 0,10,11
 -49 -386 -49 -386 -9.5 -463.5 c 128,-1,12
 30 -541 30 -541 99 -594 c 128,-1,13
 168 -647 168 -647 262 -674.5 c 128,-1,14
 356 -702 356 -702 466 -702 c 0,15,16
 604 -702 604 -702 720 -665.5 c 128,-1,17
 836 -629 836 -629 935.5 -563 c 128,-1,18
 1035 -497 1035 -497 1121 -406 c 128,-1,19
 1207 -315 1207 -315 1285.5 -206 c 128,-1,20
 1364 -97 1364 -97 1437 27 c 128,-1,21
 1510 151 1510 151 1584 282 c 1,22,23
 1521 215 1521 215 1461 162.5 c 128,-1,24
 1401 110 1401 110 1342 73.5 c 128,-1,25
 1283 37 1283 37 1224.5 18 c 128,-1,26
 1166 -1 1166 -1 1105 -1 c 0,27,28
 1069 -1 1069 -1 1030.5 9 c 128,-1,29
 992 19 992 19 961 42.5 c 128,-1,30
 930 66 930 66 910 103.5 c 128,-1,31
 890 141 890 141 890 195 c 0,32,33
 890 230 890 230 903.5 268.5 c 128,-1,34
 917 307 917 307 945 352 c 128,-1,35
 973 397 973 397 1014.5 449.5 c 128,-1,36
 1056 502 1056 502 1112 566 c 0,37,38
 1179 642 1179 642 1224 711 c 128,-1,39
 1269 780 1269 780 1297 841 c 128,-1,40
 1325 902 1325 902 1337 955.5 c 128,-1,41
 1349 1009 1349 1009 1349 1055 c 0,42,43
 1349 1146 1349 1146 1315.5 1211 c 128,-1,44
 1282 1276 1282 1276 1225 1317 c 128,-1,45
 1168 1358 1168 1358 1093 1377.5 c 128,-1,46
 1018 1397 1018 1397 935 1397 c 0,47,48
 848 1397 848 1397 760 1380.5 c 128,-1,49
 672 1364 672 1364 590 1332 c 128,-1,50
 508 1300 508 1300 436.5 1253 c 128,-1,51
 365 1206 365 1206 312 1145.5 c 128,-1,52
 259 1085 259 1085 228.5 1011.5 c 128,-1,53
 198 938 198 938 198 852 c 0,54,55
 198 784 198 784 221 728 c 128,-1,56
 244 672 244 672 286.5 631.5 c 128,-1,57
 329 591 329 591 390 569 c 128,-1,58
 451 547 451 547 528 547 c 0,59,60
 579 547 579 547 633 559 c 128,-1,61
 687 571 687 571 739.5 593.5 c 128,-1,62
 792 616 792 616 842.5 649 c 128,-1,63
 893 682 893 682 938 725 c 1,64,-1
 969 692 l 1,65,66
 916 634 916 634 856 591.5 c 128,-1,67
 796 549 796 549 733 521 c 128,-1,68
 670 493 670 493 606 479.5 c 128,-1,69
 542 466 542 466 481 466 c 0,70,71
 398 466 398 466 325.5 488.5 c 128,-1,72
 253 511 253 511 198.5 556.5 c 128,-1,73
 144 602 144 602 112.5 670 c 128,-1,74
 81 738 81 738 81 829 c 0,75,76
 81 931 81 931 119.5 1017 c 128,-1,77
 158 1103 158 1103 223 1172 c 128,-1,78
 288 1241 288 1241 374 1293 c 128,-1,79
 460 1345 460 1345 555 1380 c 128,-1,80
 650 1415 650 1415 748 1432.5 c 128,-1,81
 846 1450 846 1450 936 1450 c 0,82,83
 1045 1450 1045 1450 1133.5 1422 c 128,-1,84
 1222 1394 1222 1394 1284.5 1339 c 128,-1,85
 1347 1284 1347 1284 1381 1204 c 128,-1,86
 1415 1124 1415 1124 1415 1019 c 0,87,88
 1415 912 1415 912 1385 818.5 c 128,-1,89
 1355 725 1355 725 1309.5 644.5 c 128,-1,90
 1264 564 1264 564 1211.5 495 c 128,-1,91
 1159 426 1159 426 1113.5 368 c 128,-1,92
 1068 310 1068 310 1038 261.5 c 128,-1,93
 1008 213 1008 213 1008 173 c 0,94,95
 1008 149 1008 149 1015.5 127 c 128,-1,96
 1023 105 1023 105 1038.5 88.5 c 128,-1,97
 1054 72 1054 72 1077 62 c 128,-1,98
 1100 52 1100 52 1131 52 c 0,99,100
 1188 52 1188 52 1258 87.5 c 128,-1,101
 1328 123 1328 123 1403.5 184.5 c 128,-1,102
 1479 246 1479 246 1557.5 329 c 128,-1,103
 1636 412 1636 412 1711 507 c 1,104,105
 1769 609 1769 609 1831.5 710 c 128,-1,106
 1894 811 1894 811 1962.5 908.5 c 128,-1,107
 2031 1006 2031 1006 2107.5 1099 c 128,-1,108
 2184 1192 2184 1192 2270 1276 c 1,109,-1
 2303 1244 l 1,110,111
 2172 1086 2172 1086 2066.5 916.5 c 128,-1,112
 1961 747 1961 747 1868 576.5 c 128,-1,113
 1775 406 1775 406 1689.5 240.5 c 128,-1,114
 1604 75 1604 75 1513 -73 c 128,-1,115
 1422 -221 1422 -221 1319.5 -347 c 128,-1,116
 1217 -473 1217 -473 1090.5 -564.5 c 128,-1,117
 964 -656 964 -656 808 -707.5 c 128,-1,118
 652 -759 652 -759 453 -759 c 0,119,120
 337 -759 337 -759 226.5 -731 c 128,-1,121
 116 -703 116 -703 30 -645 c 128,-1,122
 -56 -587 -56 -587 -108 -500 c 128,-1,123
 -160 -413 -160 -413 -160 -294 c 0,124,125
 -160 -205 -160 -205 -134.5 -134 c 128,-1,126
 -109 -63 -109 -63 -66.5 -8 c 128,-1,127
 -24 47 -24 47 32 87 c 128,-1,128
 88 127 88 127 149 152.5 c 128,-1,129
 210 178 210 178 272.5 190 c 128,-1,130
 335 202 335 202 391 202 c 0,131,132
 433 202 433 202 466 200.5 c 128,-1,133
 499 199 499 199 527.5 195 c 128,-1,134
 556 191 556 191 582 185.5 c 128,-1,135
 608 180 608 180 637 171 c 1,136,-1
 620 122 l 1,0,1
EndSplineSet
EndChar

StartChar: Z
Encoding: 90 90 24
Width: 1517
Flags: W
LayerCount: 2
Fore
SplineSet
762 45 m 1,0,1
 781 24 781 24 805 -13.5 c 128,-1,2
 829 -51 829 -51 842 -111 c 1,3,4
 946 -56 946 -56 1040.5 -5 c 128,-1,5
 1135 46 1135 46 1219.5 102 c 128,-1,6
 1304 158 1304 158 1378.5 223.5 c 128,-1,7
 1453 289 1453 289 1517 373 c 1,8,-1
 1554 345 l 1,9,10
 1494 264 1494 264 1424.5 199.5 c 128,-1,11
 1355 135 1355 135 1270 76 c 128,-1,12
 1185 17 1185 17 1082 -41 c 128,-1,13
 979 -99 979 -99 850 -167 c 1,14,15
 850 -175 850 -175 850.5 -182.5 c 128,-1,16
 851 -190 851 -190 851 -198 c 0,17,18
 851 -270 851 -270 825 -351.5 c 128,-1,19
 799 -433 799 -433 754.5 -512.5 c 128,-1,20
 710 -592 710 -592 652 -665 c 128,-1,21
 594 -738 594 -738 530 -793.5 c 128,-1,22
 466 -849 466 -849 400 -882 c 128,-1,23
 334 -915 334 -915 275 -915 c 0,24,25
 244 -915 244 -915 218 -904 c 128,-1,26
 192 -893 192 -893 173 -873.5 c 128,-1,27
 154 -854 154 -854 143.5 -828.5 c 128,-1,28
 133 -803 133 -803 133 -773 c 0,29,30
 133 -722 133 -722 157.5 -668 c 128,-1,31
 182 -614 182 -614 226 -558.5 c 128,-1,32
 270 -503 270 -503 329.5 -448 c 128,-1,33
 389 -393 389 -393 459 -341.5 c 128,-1,34
 529 -290 529 -290 606.5 -242 c 128,-1,35
 684 -194 684 -194 764 -153 c 1,36,37
 764 -99 764 -99 749.5 -53 c 128,-1,38
 735 -7 735 -7 714 20 c 1,39,40
 616 -26 616 -26 516 -26 c 0,41,42
 450 -26 450 -26 409 -3 c 128,-1,43
 368 20 368 20 368 61 c 0,44,45
 368 106 368 106 409.5 132 c 128,-1,46
 451 158 451 158 517 158 c 0,47,48
 564 158 564 158 614.5 141.5 c 128,-1,49
 665 125 665 125 707 95 c 1,50,51
 786 140 786 140 851.5 217.5 c 128,-1,52
 917 295 917 295 982 394.5 c 128,-1,53
 1047 494 1047 494 1117.5 608.5 c 128,-1,54
 1188 723 1188 723 1276.5 841.5 c 128,-1,55
 1365 960 1365 960 1479 1076.5 c 128,-1,56
 1593 1193 1593 1193 1744 1296 c 1,57,58
 1666 1279 1666 1279 1591 1271.5 c 128,-1,59
 1516 1264 1516 1264 1443 1264 c 0,60,61
 1332 1264 1332 1264 1225.5 1278 c 128,-1,62
 1119 1292 1119 1292 1018 1308.5 c 128,-1,63
 917 1325 917 1325 823.5 1339 c 128,-1,64
 730 1353 730 1353 645 1353 c 0,65,66
 533 1353 533 1353 446 1316 c 128,-1,67
 359 1279 359 1279 299 1220.5 c 128,-1,68
 239 1162 239 1162 207.5 1089 c 128,-1,69
 176 1016 176 1016 176 944 c 0,70,71
 176 866 176 866 202.5 804.5 c 128,-1,72
 229 743 229 743 275.5 700.5 c 128,-1,73
 322 658 322 658 386.5 635.5 c 128,-1,74
 451 613 451 613 527 613 c 0,75,76
 604 613 604 613 667 628.5 c 128,-1,77
 730 644 730 644 776 662.5 c 128,-1,78
 822 681 822 681 848.5 697.5 c 128,-1,79
 875 714 875 714 878 717 c 1,80,-1
 908 674 l 1,81,82
 871 649 871 649 826 626.5 c 128,-1,83
 781 604 781 604 729 586.5 c 128,-1,84
 677 569 677 569 618.5 559 c 128,-1,85
 560 549 560 549 496 549 c 0,86,87
 391 549 391 549 309.5 579 c 128,-1,88
 228 609 228 609 172.5 660.5 c 128,-1,89
 117 712 117 712 88.5 780.5 c 128,-1,90
 60 849 60 849 60 927 c 0,91,92
 60 1036 60 1036 103.5 1125 c 128,-1,93
 147 1214 147 1214 226 1277 c 128,-1,94
 305 1340 305 1340 415 1374 c 128,-1,95
 525 1408 525 1408 657 1408 c 0,96,97
 739 1408 739 1408 831.5 1394 c 128,-1,98
 924 1380 924 1380 1024 1362.5 c 128,-1,99
 1124 1345 1124 1345 1230.5 1331 c 128,-1,100
 1337 1317 1337 1317 1446 1317 c 0,101,102
 1550 1317 1550 1317 1656.5 1333 c 128,-1,103
 1763 1349 1763 1349 1880 1390 c 1,104,-1
 1903 1344 l 1,105,106
 1775 1254 1775 1254 1679.5 1162 c 128,-1,107
 1584 1070 1584 1070 1505.5 973 c 128,-1,108
 1427 876 1427 876 1359 771.5 c 128,-1,109
 1291 667 1291 667 1219 551 c 0,110,111
 1100 358 1100 358 986.5 233.5 c 128,-1,112
 873 109 873 109 762 45 c 1,0,1
758 -215 m 1,113,114
 638 -278 638 -278 533.5 -351.5 c 128,-1,115
 429 -425 429 -425 351.5 -499 c 128,-1,116
 274 -573 274 -573 229.5 -643.5 c 128,-1,117
 185 -714 185 -714 185 -772 c 0,118,119
 185 -784 185 -784 188.5 -797 c 128,-1,120
 192 -810 192 -810 199.5 -820.5 c 128,-1,121
 207 -831 207 -831 218 -838 c 128,-1,122
 229 -845 229 -845 244 -845 c 0,123,124
 274 -845 274 -845 320 -817.5 c 128,-1,125
 366 -790 366 -790 419 -743.5 c 128,-1,126
 472 -697 472 -697 527 -634.5 c 128,-1,127
 582 -572 582 -572 629 -502 c 128,-1,128
 676 -432 676 -432 710.5 -358.5 c 128,-1,129
 745 -285 745 -285 758 -215 c 1,113,114
663 65 m 1,130,131
 634 82 634 82 597.5 95 c 128,-1,132
 561 108 561 108 514 108 c 0,133,134
 477 108 477 108 449 95.5 c 128,-1,135
 421 83 421 83 421 63 c 0,136,137
 421 46 421 46 441.5 34 c 128,-1,138
 462 22 462 22 507 22 c 256,139,140
 552 22 552 22 590.5 34 c 128,-1,141
 629 46 629 46 663 65 c 1,130,131
EndSplineSet
EndChar

StartChar: a
Encoding: 97 97 25
Width: 905
Flags: W
LayerCount: 2
Fore
SplineSet
795 665 m 1,0,1
 782 639 782 639 758.5 597 c 128,-1,2
 735 555 735 555 708 504.5 c 128,-1,3
 681 454 681 454 653.5 399 c 128,-1,4
 626 344 626 344 603.5 291.5 c 128,-1,5
 581 239 581 239 566.5 192.5 c 128,-1,6
 552 146 552 146 552 114 c 256,7,8
 552 82 552 82 564.5 72.5 c 128,-1,9
 577 63 577 63 597 63 c 0,10,11
 626 63 626 63 656.5 80 c 128,-1,12
 687 97 687 97 716.5 124 c 128,-1,13
 746 151 746 151 774 185 c 128,-1,14
 802 219 802 219 826.5 253.5 c 128,-1,15
 851 288 851 288 871 319.5 c 128,-1,16
 891 351 891 351 905 373 c 1,17,-1
 941 345 l 1,18,19
 924 313 924 313 901 276 c 128,-1,20
 878 239 878 239 850.5 201.5 c 128,-1,21
 823 164 823 164 791 129 c 128,-1,22
 759 94 759 94 723.5 67 c 128,-1,23
 688 40 688 40 649 24 c 128,-1,24
 610 8 610 8 569 8 c 0,25,26
 509 8 509 8 481 44 c 128,-1,27
 453 80 453 80 453 137 c 0,28,29
 453 141 453 141 453.5 154.5 c 128,-1,30
 454 168 454 168 456 176 c 1,31,32
 406 113 406 113 360.5 72 c 128,-1,33
 315 31 315 31 272.5 7 c 128,-1,34
 230 -17 230 -17 190.5 -26.5 c 128,-1,35
 151 -36 151 -36 115 -36 c 0,36,37
 77 -36 77 -36 43.5 -23.5 c 128,-1,38
 10 -11 10 -11 -15.5 13 c 128,-1,39
 -41 37 -41 37 -55.5 72 c 128,-1,40
 -70 107 -70 107 -70 153 c 0,41,42
 -70 210 -70 210 -44.5 283.5 c 128,-1,43
 -19 357 -19 357 46 442 c 0,44,45
 101 515 101 515 160.5 565 c 128,-1,46
 220 615 220 615 277.5 645.5 c 128,-1,47
 335 676 335 676 387 689 c 128,-1,48
 439 702 439 702 480 702 c 0,49,50
 572 702 572 702 619 671.5 c 128,-1,51
 666 641 666 641 676 578 c 1,52,53
 696 603 696 603 718 628 c 128,-1,54
 740 653 740 653 763 679 c 1,55,-1
 795 665 l 1,0,1
488 285 m 1,56,57
 501 306 501 306 520 338.5 c 128,-1,58
 539 371 539 371 560 405.5 c 128,-1,59
 581 440 581 440 601 472 c 128,-1,60
 621 504 621 504 636 526 c 1,61,62
 636 535 636 535 633.5 555 c 128,-1,63
 631 575 631 575 620 595.5 c 128,-1,64
 609 616 609 616 585 631 c 128,-1,65
 561 646 561 646 518 646 c 0,66,67
 487 646 487 646 448.5 636.5 c 128,-1,68
 410 627 410 627 366.5 604.5 c 128,-1,69
 323 582 323 582 277 545 c 128,-1,70
 231 508 231 508 185 453 c 0,71,72
 116 370 116 370 78.5 286.5 c 128,-1,73
 41 203 41 203 41 136 c 0,74,75
 41 79 41 79 67 48 c 128,-1,76
 93 17 93 17 141 17 c 0,77,78
 196 17 196 17 244 41.5 c 128,-1,79
 292 66 292 66 334 105 c 128,-1,80
 376 144 376 144 414 191.5 c 128,-1,81
 452 239 452 239 488 285 c 1,56,57
EndSplineSet
Substitution2: "Single Substitution lookup 5 subtable" ordfeminine
Substitution2: "'aalt' Access All Alternates in Latin lookup 0 subtable" ordfeminine
EndChar

StartChar: b
Encoding: 98 98 26
Width: 719
Flags: W
LayerCount: 2
Fore
SplineSet
570 454 m 1,0,1
 532 463 532 463 504.5 479.5 c 128,-1,2
 477 496 477 496 460 517 c 128,-1,3
 443 538 443 538 435 561.5 c 128,-1,4
 427 585 427 585 427 608 c 0,5,6
 427 658 427 658 455 685.5 c 128,-1,7
 483 713 483 713 525 713 c 0,8,9
 553 713 553 713 573 698.5 c 128,-1,10
 593 684 593 684 606 660 c 128,-1,11
 619 636 619 636 625 604.5 c 128,-1,12
 631 573 631 573 631 539 c 0,13,14
 631 516 631 516 629 493.5 c 128,-1,15
 627 471 627 471 622 448 c 0,16,17
 598 340 598 340 551.5 252.5 c 128,-1,18
 505 165 505 165 446.5 102.5 c 128,-1,19
 388 40 388 40 322 6.5 c 128,-1,20
 256 -27 256 -27 193 -27 c 0,21,22
 150 -27 150 -27 111.5 -15 c 128,-1,23
 73 -3 73 -3 43.5 25 c 128,-1,24
 14 53 14 53 -3 98.5 c 128,-1,25
 -20 144 -20 144 -20 211 c 0,26,27
 -20 294 -20 294 12.5 409 c 128,-1,28
 45 524 45 524 123 679 c 1,29,30
 235 896 235 896 348 1068 c 0,31,32
 396 1141 396 1141 449 1211 c 128,-1,33
 502 1281 502 1281 555.5 1336 c 128,-1,34
 609 1391 609 1391 661.5 1424.5 c 128,-1,35
 714 1458 714 1458 761 1458 c 0,36,37
 767 1458 767 1458 782.5 1456 c 128,-1,38
 798 1454 798 1454 814 1445.5 c 128,-1,39
 830 1437 830 1437 842.5 1419.5 c 128,-1,40
 855 1402 855 1402 855 1371 c 0,41,42
 855 1334 855 1334 835.5 1277.5 c 128,-1,43
 816 1221 816 1221 777.5 1152.5 c 128,-1,44
 739 1084 739 1084 682.5 1006.5 c 128,-1,45
 626 929 626 929 552.5 851 c 128,-1,46
 479 773 479 773 389.5 698 c 128,-1,47
 300 623 300 623 195 558 c 1,48,49
 160 482 160 482 136.5 420.5 c 128,-1,50
 113 359 113 359 99 309.5 c 128,-1,51
 85 260 85 260 79 222 c 128,-1,52
 73 184 73 184 73 156 c 0,53,54
 73 117 73 117 83.5 91.5 c 128,-1,55
 94 66 94 66 112 51.5 c 128,-1,56
 130 37 130 37 153 31 c 128,-1,57
 176 25 176 25 201 25 c 0,58,59
 248 25 248 25 292.5 49 c 128,-1,60
 337 73 337 73 377 111.5 c 128,-1,61
 417 150 417 150 450.5 198 c 128,-1,62
 484 246 484 246 509 293.5 c 128,-1,63
 534 341 534 341 550 383.5 c 128,-1,64
 566 426 566 426 570 454 c 1,0,1
237 649 m 1,65,66
 329 712 329 712 406.5 782 c 128,-1,67
 484 852 484 852 547 922.5 c 128,-1,68
 610 993 610 993 658 1060.5 c 128,-1,69
 706 1128 706 1128 738 1187 c 128,-1,70
 770 1246 770 1246 786.5 1292.5 c 128,-1,71
 803 1339 803 1339 803 1368 c 0,72,73
 803 1394 803 1394 784 1394 c 0,74,75
 748 1394 748 1394 697.5 1355 c 128,-1,76
 647 1316 647 1316 580.5 1228 c 128,-1,77
 514 1140 514 1140 428.5 998 c 128,-1,78
 343 856 343 856 237 649 c 1,65,66
577 506 m 1,79,80
 578 515 578 515 578.5 524 c 128,-1,81
 579 533 579 533 579 541 c 0,82,83
 579 595 579 595 565 628 c 128,-1,84
 551 661 551 661 525 661 c 0,85,86
 519 661 519 661 511.5 659.5 c 128,-1,87
 504 658 504 658 496.5 652.5 c 128,-1,88
 489 647 489 647 484 637 c 128,-1,89
 479 627 479 627 479 611 c 0,90,91
 479 570 479 570 507.5 543.5 c 128,-1,92
 536 517 536 517 577 506 c 1,79,80
EndSplineSet
EndChar

StartChar: c
Encoding: 99 99 27
Width: 693
Flags: W
LayerCount: 2
Fore
SplineSet
564 607 m 1,0,1
 570 623 570 623 570 641 c 0,2,3
 570 673 570 673 544.5 691.5 c 128,-1,4
 519 710 519 710 464 710 c 0,5,6
 419 710 419 710 373.5 690.5 c 128,-1,7
 328 671 328 671 286 637 c 128,-1,8
 244 603 244 603 207.5 556 c 128,-1,9
 171 509 171 509 144.5 454 c 128,-1,10
 118 399 118 399 102.5 337.5 c 128,-1,11
 87 276 87 276 87 214 c 0,12,13
 87 164 87 164 98 129 c 128,-1,14
 109 94 109 94 129 72 c 128,-1,15
 149 50 149 50 177 40.5 c 128,-1,16
 205 31 205 31 240 31 c 0,17,18
 309 31 309 31 374 62 c 128,-1,19
 439 93 439 93 497.5 142.5 c 128,-1,20
 556 192 556 192 605.5 253 c 128,-1,21
 655 314 655 314 693 373 c 1,22,-1
 730 345 l 1,23,24
 676 254 676 254 615 185.5 c 128,-1,25
 554 117 554 117 490 71 c 128,-1,26
 426 25 426 25 360 2 c 128,-1,27
 294 -21 294 -21 231 -21 c 0,28,29
 181 -21 181 -21 135.5 -6 c 128,-1,30
 90 9 90 9 55.5 39.5 c 128,-1,31
 21 70 21 70 0.5 118 c 128,-1,32
 -20 166 -20 166 -20 232 c 0,33,34
 -20 310 -20 310 2.5 379.5 c 128,-1,35
 25 449 25 449 62.5 508 c 128,-1,36
 100 567 100 567 149 614.5 c 128,-1,37
 198 662 198 662 251.5 695 c 128,-1,38
 305 728 305 728 359.5 745.5 c 128,-1,39
 414 763 414 763 462 763 c 0,40,41
 511 763 511 763 542 749.5 c 128,-1,42
 573 736 573 736 591 717 c 128,-1,43
 609 698 609 698 615.5 677 c 128,-1,44
 622 656 622 656 622 641 c 0,45,46
 622 617 622 617 615 590 c 128,-1,47
 608 563 608 563 595.5 540.5 c 128,-1,48
 583 518 583 518 564.5 503 c 128,-1,49
 546 488 546 488 524 488 c 256,50,51
 502 488 502 488 486 502.5 c 128,-1,52
 470 517 470 517 470 539 c 0,53,54
 470 540 470 540 471.5 551 c 128,-1,55
 473 562 473 562 481 574.5 c 128,-1,56
 489 587 489 587 505.5 597 c 128,-1,57
 522 607 522 607 552 607 c 2,58,-1
 564 607 l 1,59,-1
 564 607 l 1,0,1
EndSplineSet
EndChar

StartChar: d
Encoding: 100 100 28
Width: 927
Flags: W
LayerCount: 2
Fore
SplineSet
1115 1314 m 1,0,1
 1104 1298 1104 1298 1079 1261 c 128,-1,2
 1054 1224 1054 1224 1021 1173 c 128,-1,3
 988 1122 988 1122 949.5 1060 c 128,-1,4
 911 998 911 998 872.5 932 c 128,-1,5
 834 866 834 866 797.5 798.5 c 128,-1,6
 761 731 761 731 733 669 c 0,7,8
 689 573 689 573 660.5 497.5 c 128,-1,9
 632 422 632 422 615.5 363 c 128,-1,10
 599 304 599 304 592.5 260.5 c 128,-1,11
 586 217 586 217 586 186 c 0,12,13
 586 129 586 129 603.5 107 c 128,-1,14
 621 85 621 85 651 85 c 0,15,16
 682 85 682 85 710.5 101 c 128,-1,17
 739 117 739 117 765.5 142 c 128,-1,18
 792 167 792 167 815.5 199 c 128,-1,19
 839 231 839 231 859.5 263 c 128,-1,20
 880 295 880 295 897 324 c 128,-1,21
 914 353 914 353 927 373 c 1,22,-1
 963 345 l 1,23,24
 952 327 952 327 935.5 297.5 c 128,-1,25
 919 268 919 268 898 233 c 128,-1,26
 877 198 877 198 850 162.5 c 128,-1,27
 823 127 823 127 790.5 98 c 128,-1,28
 758 69 758 69 718.5 50.5 c 128,-1,29
 679 32 679 32 633 32 c 0,30,31
 611 32 611 32 586.5 38 c 128,-1,32
 562 44 562 44 541 59 c 128,-1,33
 520 74 520 74 504 100.5 c 128,-1,34
 488 127 488 127 483 168 c 1,35,36
 408 87 408 87 337 45.5 c 128,-1,37
 266 4 266 4 203 4 c 0,38,39
 171 4 171 4 132.5 15 c 128,-1,40
 94 26 94 26 60 53 c 128,-1,41
 26 80 26 80 3 124.5 c 128,-1,42
 -20 169 -20 169 -20 235 c 0,43,44
 -20 309 -20 309 3 376 c 128,-1,45
 26 443 26 443 65 500.5 c 128,-1,46
 104 558 104 558 154.5 604.5 c 128,-1,47
 205 651 205 651 260 683.5 c 128,-1,48
 315 716 315 716 370.5 734 c 128,-1,49
 426 752 426 752 475 752 c 0,50,51
 540 752 540 752 577 736 c 128,-1,52
 614 720 614 720 633 704 c 1,53,54
 647 732 647 732 671 775.5 c 128,-1,55
 695 819 695 819 727 872.5 c 128,-1,56
 759 926 759 926 798 986.5 c 128,-1,57
 837 1047 837 1047 881 1108.5 c 128,-1,58
 925 1170 925 1170 973.5 1230 c 128,-1,59
 1022 1290 1022 1290 1072 1342 c 1,60,-1
 1115 1314 l 1,0,1
482 243 m 1,61,62
 487 317 487 317 516.5 417.5 c 128,-1,63
 546 518 546 518 607 649 c 1,64,65
 593 670 593 670 567.5 681.5 c 128,-1,66
 542 693 542 693 510 693 c 0,67,68
 461 693 461 693 410.5 673 c 128,-1,69
 360 653 360 653 313.5 619 c 128,-1,70
 267 585 267 585 226 538.5 c 128,-1,71
 185 492 185 492 154.5 439 c 128,-1,72
 124 386 124 386 106.5 328.5 c 128,-1,73
 89 271 89 271 89 215 c 0,74,75
 89 140 89 140 120.5 98 c 128,-1,76
 152 56 152 56 205 56 c 0,77,78
 230 56 230 56 260 66 c 128,-1,79
 290 76 290 76 325.5 98.5 c 128,-1,80
 361 121 361 121 400 156.5 c 128,-1,81
 439 192 439 192 482 243 c 1,61,62
EndSplineSet
EndChar

StartChar: e
Encoding: 101 101 29
Width: 730
Flags: W
LayerCount: 2
Fore
SplineSet
76 228 m 1,0,1
 74 216 74 216 73 204 c 128,-1,2
 72 192 72 192 72 180 c 0,3,4
 72 144 72 144 82.5 111.5 c 128,-1,5
 93 79 93 79 113.5 54.5 c 128,-1,6
 134 30 134 30 164.5 16 c 128,-1,7
 195 2 195 2 234 2 c 0,8,9
 365 2 365 2 487 91 c 128,-1,10
 609 180 609 180 730 373 c 1,11,-1
 764 343 l 1,12,13
 698 233 698 233 630 157.5 c 128,-1,14
 562 82 562 82 494.5 35 c 128,-1,15
 427 -12 427 -12 362 -33 c 128,-1,16
 297 -54 297 -54 238 -54 c 0,17,18
 195 -54 195 -54 147 -42 c 128,-1,19
 99 -30 99 -30 58.5 -2 c 128,-1,20
 18 26 18 26 -8.5 73 c 128,-1,21
 -35 120 -35 120 -35 190 c 0,22,23
 -35 265 -35 265 -9.5 334.5 c 128,-1,24
 16 404 16 404 57 464 c 128,-1,25
 98 524 98 524 151 573.5 c 128,-1,26
 204 623 204 623 258.5 658 c 128,-1,27
 313 693 313 693 365 712.5 c 128,-1,28
 417 732 417 732 457 732 c 0,29,30
 483 732 483 732 510 724 c 128,-1,31
 537 716 537 716 558.5 699 c 128,-1,32
 580 682 580 682 593.5 654 c 128,-1,33
 607 626 607 626 607 587 c 0,34,35
 607 534 607 534 582.5 487.5 c 128,-1,36
 558 441 558 441 517 401.5 c 128,-1,37
 476 362 476 362 422 330.5 c 128,-1,38
 368 299 368 299 309 277 c 128,-1,39
 250 255 250 255 190 242 c 128,-1,40
 130 229 130 229 76 228 c 1,0,1
84 271 m 1,41,42
 151 278 151 278 210 299 c 128,-1,43
 269 320 269 320 318 350.5 c 128,-1,44
 367 381 367 381 405.5 417 c 128,-1,45
 444 453 444 453 470 490 c 128,-1,46
 496 527 496 527 510 561 c 128,-1,47
 524 595 524 595 524 622 c 256,48,49
 524 649 524 649 509.5 665 c 128,-1,50
 495 681 495 681 475 681 c 0,51,52
 431 681 431 681 376 649.5 c 128,-1,53
 321 618 321 618 266 562.5 c 128,-1,54
 211 507 211 507 162.5 432 c 128,-1,55
 114 357 114 357 84 271 c 1,41,42
EndSplineSet
EndChar

StartChar: f
Encoding: 102 102 30
Width: 534
Flags: W
LayerCount: 2
Fore
SplineSet
11 71 m 1,0,1
 43 46 43 46 96 46 c 0,2,3
 153 46 153 46 203.5 64 c 128,-1,4
 254 82 254 82 298 111.5 c 128,-1,5
 342 141 342 141 379 177 c 128,-1,6
 416 213 416 213 445.5 249.5 c 128,-1,7
 475 286 475 286 497.5 318.5 c 128,-1,8
 520 351 520 351 534 373 c 1,9,-1
 590 373 l 1,10,11
 576 349 576 349 551.5 311.5 c 128,-1,12
 527 274 527 274 493.5 232 c 128,-1,13
 460 190 460 190 418 147.5 c 128,-1,14
 376 105 376 105 325.5 71 c 128,-1,15
 275 37 275 37 218 15.5 c 128,-1,16
 161 -6 161 -6 97 -6 c 0,17,18
 69 -6 69 -6 42.5 0.5 c 128,-1,19
 16 7 16 7 -9 21 c 1,20,21
 -42 -60 -42 -60 -73.5 -138 c 128,-1,22
 -105 -216 -105 -216 -133.5 -286 c 128,-1,23
 -162 -356 -162 -356 -186 -415 c 128,-1,24
 -210 -474 -210 -474 -228 -517.5 c 128,-1,25
 -246 -561 -246 -561 -256 -586.5 c 128,-1,26
 -266 -612 -266 -612 -267 -613 c 1,27,-1
 -372 -561 l 1,28,29
 -321 -441 -321 -441 -280.5 -341 c 128,-1,30
 -240 -241 -240 -241 -205.5 -154 c 128,-1,31
 -171 -67 -171 -67 -140.5 9.5 c 128,-1,32
 -110 86 -110 86 -79 158 c 1,33,34
 -95 181 -95 181 -102.5 203 c 128,-1,35
 -110 225 -110 225 -112 239 c 0,36,37
 -114 262 -114 262 -99.5 277.5 c 128,-1,38
 -85 293 -85 293 -62 293 c 0,39,40
 -43 293 -43 293 -27 280 c 1,41,42
 3 352 3 352 26.5 406.5 c 128,-1,43
 50 461 50 461 66 498 c 0,44,45
 84 541 84 541 98 573 c 0,46,47
 185 778 185 778 259.5 927.5 c 128,-1,48
 334 1077 334 1077 397 1181.5 c 128,-1,49
 460 1286 460 1286 512 1350.5 c 128,-1,50
 564 1415 564 1415 606.5 1451 c 128,-1,51
 649 1487 649 1487 683 1499.5 c 128,-1,52
 717 1512 717 1512 744 1512 c 0,53,54
 788 1512 788 1512 818.5 1492.5 c 128,-1,55
 849 1473 849 1473 853 1426 c 0,56,57
 857 1380 857 1380 836.5 1310 c 128,-1,58
 816 1240 816 1240 780.5 1161.5 c 128,-1,59
 745 1083 745 1083 698 1003 c 128,-1,60
 651 923 651 923 602 856 c 0,61,62
 509 730 509 730 433.5 647 c 128,-1,63
 358 564 358 564 301 513 c 128,-1,64
 244 462 244 462 206 437.5 c 128,-1,65
 168 413 168 413 150 404 c 1,66,-1
 11 71 l 1,0,1
791 1411 m 0,67,68
 790 1428 790 1428 783.5 1440.5 c 128,-1,69
 777 1453 777 1453 757 1453 c 0,70,71
 745 1453 745 1453 726 1447.5 c 128,-1,72
 707 1442 707 1442 681.5 1424 c 128,-1,73
 656 1406 656 1406 624 1371 c 128,-1,74
 592 1336 592 1336 552.5 1277 c 128,-1,75
 513 1218 513 1218 466.5 1131 c 128,-1,76
 420 1044 420 1044 367 921 c 1,77,78
 332 843 332 843 286 731.5 c 128,-1,79
 240 620 240 620 185 490 c 1,80,81
 232 523 232 523 283.5 572.5 c 128,-1,82
 335 622 335 622 387.5 681.5 c 128,-1,83
 440 741 440 741 491 808 c 128,-1,84
 542 875 542 875 588 944 c 128,-1,85
 634 1013 634 1013 672.5 1081 c 128,-1,86
 711 1149 711 1149 738.5 1210.5 c 128,-1,87
 766 1272 766 1272 780 1323.5 c 128,-1,88
 794 1375 794 1375 791 1411 c 0,67,68
EndSplineSet
EndChar

StartChar: g
Encoding: 103 103 31
Width: 924
Flags: W
LayerCount: 2
Fore
SplineSet
381 34 m 1,0,1
 329 -1 329 -1 273.5 -22.5 c 128,-1,2
 218 -44 218 -44 167 -44 c 0,3,4
 129 -44 129 -44 91 -33 c 128,-1,5
 53 -22 53 -22 22 3.5 c 128,-1,6
 -9 29 -9 29 -28.5 71 c 128,-1,7
 -48 113 -48 113 -48 175 c 0,8,9
 -48 250 -48 250 -21 319 c 128,-1,10
 6 388 6 388 51 447.5 c 128,-1,11
 96 507 96 507 154 556 c 128,-1,12
 212 605 212 605 273.5 639.5 c 128,-1,13
 335 674 335 674 396 693 c 128,-1,14
 457 712 457 712 507 712 c 0,15,16
 556 712 556 712 590.5 701.5 c 128,-1,17
 625 691 625 691 649 675.5 c 128,-1,18
 673 660 673 660 687 642 c 128,-1,19
 701 624 701 624 710 608 c 1,20,-1
 764 679 l 1,21,-1
 797 657 l 2,22,23
 797 656 797 656 781 625.5 c 128,-1,24
 765 595 765 595 739 544 c 128,-1,25
 713 493 713 493 678.5 424.5 c 128,-1,26
 644 356 644 356 606.5 279 c 128,-1,27
 569 202 569 202 530.5 120 c 128,-1,28
 492 38 492 38 457 -41 c 1,29,30
 548 11 548 11 617 59 c 128,-1,31
 686 107 686 107 740.5 156 c 128,-1,32
 795 205 795 205 839 258 c 128,-1,33
 883 311 883 311 924 373 c 1,34,-1
 961 345 l 1,35,36
 921 280 921 280 874.5 224.5 c 128,-1,37
 828 169 828 169 765.5 114.5 c 128,-1,38
 703 60 703 60 619.5 2.5 c 128,-1,39
 536 -55 536 -55 421 -124 c 1,40,41
 326 -357 326 -357 238 -509.5 c 128,-1,42
 150 -662 150 -662 71.5 -751 c 128,-1,43
 -7 -840 -7 -840 -74.5 -876 c 128,-1,44
 -142 -912 -142 -912 -196 -912 c 0,45,46
 -218 -912 -218 -912 -243.5 -906.5 c 128,-1,47
 -269 -901 -269 -901 -291 -885 c 128,-1,48
 -313 -869 -313 -869 -327.5 -841 c 128,-1,49
 -342 -813 -342 -813 -342 -769 c 0,50,51
 -342 -685 -342 -685 -297.5 -603 c 128,-1,52
 -253 -521 -253 -521 -168.5 -440 c 128,-1,53
 -84 -359 -84 -359 38.5 -279 c 128,-1,54
 161 -199 161 -199 316 -118 c 1,55,56
 335 -75 335 -75 351 -36.5 c 128,-1,57
 367 2 367 2 381 34 c 1,0,1
433 144 m 1,58,59
 460 195 460 195 486.5 244.5 c 128,-1,60
 513 294 513 294 541.5 343.5 c 128,-1,61
 570 393 570 393 602.5 445 c 128,-1,62
 635 497 635 497 675 553 c 1,63,64
 673 568 673 568 665 584 c 128,-1,65
 657 600 657 600 643 613.5 c 128,-1,66
 629 627 629 627 607 636 c 128,-1,67
 585 645 585 645 555 645 c 0,68,69
 521 645 521 645 477.5 636 c 128,-1,70
 434 627 434 627 386 605 c 128,-1,71
 338 583 338 583 288.5 546 c 128,-1,72
 239 509 239 509 192 453 c 0,73,74
 123 371 123 371 86 289.5 c 128,-1,75
 49 208 49 208 49 141 c 0,76,77
 49 76 49 76 82 42.5 c 128,-1,78
 115 9 115 9 172 9 c 0,79,80
 232 9 232 9 299.5 46 c 128,-1,81
 367 83 367 83 433 144 c 1,58,59
-196 -861 m 0,82,83
 -158 -861 -158 -861 -117 -833 c 128,-1,84
 -76 -805 -76 -805 -34 -756.5 c 128,-1,85
 8 -708 8 -708 49 -644 c 128,-1,86
 90 -580 90 -580 130 -507.5 c 128,-1,87
 170 -435 170 -435 206.5 -359 c 128,-1,88
 243 -283 243 -283 276 -210 c 1,89,90
 127 -288 127 -288 21.5 -372.5 c 128,-1,91
 -84 -457 -84 -457 -151 -534 c 128,-1,92
 -218 -611 -218 -611 -248.5 -673 c 128,-1,93
 -279 -735 -279 -735 -279 -768 c 0,94,95
 -279 -809 -279 -809 -261 -835 c 128,-1,96
 -243 -861 -243 -861 -196 -861 c 0,82,83
EndSplineSet
EndChar

StartChar: h
Encoding: 104 104 32
Width: 859
Flags: W
LayerCount: 2
Fore
SplineSet
136 391 m 1,0,1
 189 463 189 463 246 523.5 c 128,-1,2
 303 584 303 584 361 628 c 128,-1,3
 419 672 419 672 475.5 696.5 c 128,-1,4
 532 721 532 721 585 721 c 0,5,6
 621 721 621 721 644.5 710 c 128,-1,7
 668 699 668 699 681.5 681.5 c 128,-1,8
 695 664 695 664 700.5 643 c 128,-1,9
 706 622 706 622 706 601 c 0,10,11
 706 565 706 565 691 523.5 c 128,-1,12
 676 482 676 482 653.5 437 c 128,-1,13
 631 392 631 392 605 345 c 128,-1,14
 579 298 579 298 556.5 253 c 128,-1,15
 534 208 534 208 519 165.5 c 128,-1,16
 504 123 504 123 504 86 c 0,17,18
 504 63 504 63 514.5 43.5 c 128,-1,19
 525 24 525 24 552 24 c 0,20,21
 584 24 584 24 623 56.5 c 128,-1,22
 662 89 662 89 702.5 139.5 c 128,-1,23
 743 190 743 190 783.5 252 c 128,-1,24
 824 314 824 314 859 373 c 1,25,-1
 895 345 l 1,26,27
 884 330 884 330 865 296.5 c 128,-1,28
 846 263 846 263 820.5 221.5 c 128,-1,29
 795 180 795 180 763.5 136 c 128,-1,30
 732 92 732 92 696.5 55.5 c 128,-1,31
 661 19 661 19 622 -4.5 c 128,-1,32
 583 -28 583 -28 543 -28 c 0,33,34
 517 -28 517 -28 491 -22 c 128,-1,35
 465 -16 465 -16 444 0 c 128,-1,36
 423 16 423 16 410 43.5 c 128,-1,37
 397 71 397 71 397 113 c 0,38,39
 397 162 397 162 413.5 212.5 c 128,-1,40
 430 263 430 263 454.5 312.5 c 128,-1,41
 479 362 479 362 508 408.5 c 128,-1,42
 537 455 537 455 561.5 496 c 128,-1,43
 586 537 586 537 602.5 570.5 c 128,-1,44
 619 604 619 604 619 627 c 0,45,46
 619 668 619 668 579 668 c 0,47,48
 522 668 522 668 458.5 630.5 c 128,-1,49
 395 593 395 593 331 533 c 128,-1,50
 267 473 267 473 205 398.5 c 128,-1,51
 143 324 143 324 89 250 c 1,52,-1
 -63 -36 l 1,53,-1
 -154 0 l 1,54,55
 -27 277 -27 277 90.5 547.5 c 128,-1,56
 208 818 208 818 332 1082 c 0,57,58
 351 1123 351 1123 376.5 1171 c 128,-1,59
 402 1219 402 1219 431.5 1267 c 128,-1,60
 461 1315 461 1315 495 1359 c 128,-1,61
 529 1403 529 1403 565 1437 c 128,-1,62
 601 1471 601 1471 639.5 1491.5 c 128,-1,63
 678 1512 678 1512 717 1512 c 0,64,65
 761 1512 761 1512 785.5 1487.5 c 128,-1,66
 810 1463 810 1463 810 1418 c 0,67,68
 810 1371 810 1371 785 1311.5 c 128,-1,69
 760 1252 760 1252 718 1186 c 128,-1,70
 676 1120 676 1120 620.5 1050 c 128,-1,71
 565 980 565 980 503.5 911 c 128,-1,72
 442 842 442 842 379 777.5 c 128,-1,73
 316 713 316 713 258 658 c 1,74,-1
 136 391 l 1,0,1
722 1459 m 0,75,76
 677 1459 677 1459 639.5 1424.5 c 128,-1,77
 602 1390 602 1390 558 1311 c 128,-1,78
 514 1232 514 1232 457 1105 c 128,-1,79
 400 978 400 978 318 793 c 1,80,81
 428 900 428 900 510.5 1000.5 c 128,-1,82
 593 1101 593 1101 648 1184 c 128,-1,83
 703 1267 703 1267 730.5 1328.5 c 128,-1,84
 758 1390 758 1390 758 1420 c 0,85,86
 758 1438 758 1438 748 1448.5 c 128,-1,87
 738 1459 738 1459 722 1459 c 0,75,76
EndSplineSet
EndChar

StartChar: i
Encoding: 105 105 33
Width: 372
Flags: W
LayerCount: 2
Fore
SplineSet
449 887 m 0,0,1
 449 867 449 867 439 845.5 c 128,-1,2
 429 824 429 824 413.5 807 c 128,-1,3
 398 790 398 790 379 779 c 128,-1,4
 360 768 360 768 341 768 c 0,5,6
 324 768 324 768 315 780.5 c 128,-1,7
 306 793 306 793 306 811 c 0,8,9
 306 827 306 827 312 849 c 128,-1,10
 318 871 318 871 330 890.5 c 128,-1,11
 342 910 342 910 359 924 c 128,-1,12
 376 938 376 938 398 938 c 0,13,14
 419 938 419 938 434 922 c 128,-1,15
 449 906 449 906 449 887 c 0,0,1
262 665 m 1,16,17
 249 639 249 639 225.5 596.5 c 128,-1,18
 202 554 202 554 175 503.5 c 128,-1,19
 148 453 148 453 120 397.5 c 128,-1,20
 92 342 92 342 69.5 289.5 c 128,-1,21
 47 237 47 237 33 191 c 128,-1,22
 19 145 19 145 19 113 c 0,23,24
 19 84 19 84 31 73.5 c 128,-1,25
 43 63 43 63 65 63 c 0,26,27
 106 63 106 63 145 90 c 128,-1,28
 184 117 184 117 222.5 160.5 c 128,-1,29
 261 204 261 204 298 260 c 128,-1,30
 335 316 335 316 372 373 c 1,31,-1
 408 345 l 1,32,33
 379 293 379 293 342.5 234 c 128,-1,34
 306 175 306 175 261 124.5 c 128,-1,35
 216 74 216 74 162 41 c 128,-1,36
 108 8 108 8 44 8 c 0,37,38
 -16 8 -16 8 -48 44 c 128,-1,39
 -80 80 -80 80 -80 137 c 0,40,41
 -80 204 -80 204 -49 277 c 128,-1,42
 -18 350 -18 350 28.5 421.5 c 128,-1,43
 75 493 75 493 129.5 559 c 128,-1,44
 184 625 184 625 230 679 c 1,45,-1
 262 665 l 1,16,17
EndSplineSet
EndChar

StartChar: j
Encoding: 106 106 34
Width: 549
Flags: W
LayerCount: 2
Fore
SplineSet
426 662 m 1,0,1
 387 591 387 591 345 506.5 c 128,-1,2
 303 422 303 422 260.5 331 c 128,-1,3
 218 240 218 240 175.5 146 c 128,-1,4
 133 52 133 52 92 -38 c 1,5,6
 186 14 186 14 257.5 66 c 128,-1,7
 329 118 329 118 383 169.5 c 128,-1,8
 437 221 437 221 477 272 c 128,-1,9
 517 323 517 323 549 373 c 1,10,-1
 585 345 l 1,11,12
 540 277 540 277 488.5 216.5 c 128,-1,13
 437 156 437 156 373 99 c 128,-1,14
 309 42 309 42 229.5 -14 c 128,-1,15
 150 -70 150 -70 51 -129 c 1,16,17
 15 -208 15 -208 -18 -277.5 c 128,-1,18
 -51 -347 -51 -347 -80 -403 c 0,19,20
 -130 -498 -130 -498 -190 -581 c 128,-1,21
 -250 -664 -250 -664 -312.5 -725.5 c 128,-1,22
 -375 -787 -375 -787 -436 -822.5 c 128,-1,23
 -497 -858 -497 -858 -549 -858 c 0,24,25
 -570 -858 -570 -858 -589.5 -851 c 128,-1,26
 -609 -844 -609 -844 -625 -830 c 128,-1,27
 -641 -816 -641 -816 -650.5 -793.5 c 128,-1,28
 -660 -771 -660 -771 -660 -739 c 0,29,30
 -660 -655 -660 -655 -619.5 -573 c 128,-1,31
 -579 -491 -579 -491 -502.5 -412.5 c 128,-1,32
 -426 -334 -426 -334 -314.5 -259.5 c 128,-1,33
 -203 -185 -203 -185 -61 -117 c 1,34,35
 -28 -49 -28 -49 0 10 c 128,-1,36
 28 69 28 69 57 126 c 128,-1,37
 86 183 86 183 117.5 240.5 c 128,-1,38
 149 298 149 298 188.5 364 c 128,-1,39
 228 430 228 430 277.5 507 c 128,-1,40
 327 584 327 584 392 679 c 1,41,-1
 426 662 l 1,0,1
-546 -805 m 0,42,43
 -494 -805 -494 -805 -443.5 -763 c 128,-1,44
 -393 -721 -393 -721 -340.5 -644 c 128,-1,45
 -288 -567 -288 -567 -231.5 -459.5 c 128,-1,46
 -175 -352 -175 -352 -111 -221 c 1,47,-1
 -154 -244 l 2,48,49
 -258 -300 -258 -300 -341.5 -368.5 c 128,-1,50
 -425 -437 -425 -437 -483 -506 c 128,-1,51
 -541 -575 -541 -575 -572 -638 c 128,-1,52
 -603 -701 -603 -701 -603 -744 c 0,53,54
 -603 -770 -603 -770 -589.5 -787.5 c 128,-1,55
 -576 -805 -576 -805 -546 -805 c 0,42,43
565 835 m 0,56,57
 545 806 545 806 521 787 c 128,-1,58
 497 768 497 768 476 768 c 0,59,60
 459 768 459 768 450 780.5 c 128,-1,61
 441 793 441 793 441 810 c 0,62,63
 441 826 441 826 448 848 c 128,-1,64
 455 870 455 870 467.5 890 c 128,-1,65
 480 910 480 910 497 924 c 128,-1,66
 514 938 514 938 533 938 c 0,67,68
 555 938 555 938 569.5 922 c 128,-1,69
 584 906 584 906 584 888 c 0,70,71
 584 863 584 863 565 835 c 0,56,57
EndSplineSet
EndChar

StartChar: k
Encoding: 107 107 35
Width: 863
Flags: W
LayerCount: 2
Fore
SplineSet
120 351 m 1,0,1
 172 423 172 423 230.5 489.5 c 128,-1,2
 289 556 289 556 349 607.5 c 128,-1,3
 409 659 409 659 470 690 c 128,-1,4
 531 721 531 721 589 721 c 0,5,6
 625 721 625 721 648 710 c 128,-1,7
 671 699 671 699 684.5 682 c 128,-1,8
 698 665 698 665 703.5 643.5 c 128,-1,9
 709 622 709 622 709 601 c 0,10,11
 709 571 709 571 697.5 536 c 128,-1,12
 686 501 686 501 662.5 465.5 c 128,-1,13
 639 430 639 430 603 397.5 c 128,-1,14
 567 365 567 365 517 339 c 1,15,16
 528 313 528 313 528 276 c 0,17,18
 528 253 528 253 522 229.5 c 128,-1,19
 516 206 516 206 509 183 c 128,-1,20
 502 160 502 160 496 136.5 c 128,-1,21
 490 113 490 113 490 89 c 0,22,23
 490 77 490 77 491.5 66 c 128,-1,24
 493 55 493 55 497.5 46 c 128,-1,25
 502 37 502 37 511.5 31.5 c 128,-1,26
 521 26 521 26 538 26 c 0,27,28
 558 26 558 26 584 42.5 c 128,-1,29
 610 59 610 59 639 86 c 128,-1,30
 668 113 668 113 698.5 148.5 c 128,-1,31
 729 184 729 184 758 223 c 128,-1,32
 787 262 787 262 814 300.5 c 128,-1,33
 841 339 841 339 863 373 c 1,34,-1
 900 345 l 1,35,36
 849 269 849 269 800.5 200 c 128,-1,37
 752 131 752 131 703.5 79 c 128,-1,38
 655 27 655 27 605 -4 c 128,-1,39
 555 -35 555 -35 502 -35 c 0,40,41
 481 -35 481 -35 458.5 -29 c 128,-1,42
 436 -23 436 -23 417.5 -9.5 c 128,-1,43
 399 4 399 4 387 26 c 128,-1,44
 375 48 375 48 375 80 c 0,45,46
 375 118 375 118 394 169 c 0,47,48
 411 217 411 217 419 249.5 c 128,-1,49
 427 282 427 282 428 304 c 1,50,51
 407 299 407 299 383.5 295 c 128,-1,52
 360 291 360 291 339 291 c 0,53,54
 328 291 328 291 315 293.5 c 128,-1,55
 302 296 302 296 291 302 c 128,-1,56
 280 308 280 308 272.5 317.5 c 128,-1,57
 265 327 265 327 265 342 c 256,58,59
 265 357 265 357 274.5 370.5 c 128,-1,60
 284 384 284 384 300.5 394.5 c 128,-1,61
 317 405 317 405 340 411 c 128,-1,62
 363 417 363 417 391 417 c 0,63,64
 443 417 443 417 480 389 c 1,65,66
 516 417 516 417 539.5 450 c 128,-1,67
 563 483 563 483 576 514 c 128,-1,68
 589 545 589 545 594 569.5 c 128,-1,69
 599 594 599 594 599 606 c 0,70,71
 599 639 599 639 587 651.5 c 128,-1,72
 575 664 575 664 558 664 c 0,73,74
 526 664 526 664 486.5 643 c 128,-1,75
 447 622 447 622 404.5 586 c 128,-1,76
 362 550 362 550 317.5 503 c 128,-1,77
 273 456 273 456 230.5 404 c 128,-1,78
 188 352 188 352 148.5 299 c 128,-1,79
 109 246 109 246 76 199 c 1,80,81
 46 149 46 149 22.5 106 c 128,-1,82
 -1 63 -1 63 -17 32 c 128,-1,83
 -33 1 -33 1 -42 -15 c 128,-1,84
 -51 -31 -51 -31 -52 -26 c 1,85,-1
 -151 0 l 1,86,87
 -33 269 -33 269 88 538 c 128,-1,88
 209 807 209 807 343 1082 c 0,89,90
 363 1122 363 1122 388.5 1169.5 c 128,-1,91
 414 1217 414 1217 443.5 1264.5 c 128,-1,92
 473 1312 473 1312 506.5 1357 c 128,-1,93
 540 1402 540 1402 575.5 1436.5 c 128,-1,94
 611 1471 611 1471 648 1491.5 c 128,-1,95
 685 1512 685 1512 722 1512 c 0,96,97
 761 1512 761 1512 785.5 1490 c 128,-1,98
 810 1468 810 1468 810 1420 c 0,99,100
 810 1354 810 1354 774.5 1259.5 c 128,-1,101
 739 1165 739 1165 669 1059 c 128,-1,102
 599 953 599 953 494.5 844.5 c 128,-1,103
 390 736 390 736 251 643 c 1,104,-1
 120 351 l 1,0,1
295 739 m 1,105,106
 416 833 416 833 503.5 932.5 c 128,-1,107
 591 1032 591 1032 647.5 1124 c 128,-1,108
 704 1216 704 1216 730.5 1294.5 c 128,-1,109
 757 1373 757 1373 757 1426 c 0,110,111
 757 1441 757 1441 749 1450 c 128,-1,112
 741 1459 741 1459 724 1459 c 0,113,114
 687 1459 687 1459 648 1422.5 c 128,-1,115
 609 1386 609 1386 559.5 1302 c 128,-1,116
 510 1218 510 1218 446 1080 c 128,-1,117
 382 942 382 942 295 739 c 1,105,106
423 349 m 1,118,119
 418 360 418 360 406.5 368.5 c 128,-1,120
 395 377 395 377 381 377 c 0,121,122
 352 377 352 377 330 365 c 128,-1,123
 308 353 308 353 308 342 c 0,124,125
 308 334 308 334 317.5 331.5 c 128,-1,126
 327 329 327 329 335 329 c 0,127,128
 361 329 361 329 383 335 c 128,-1,129
 405 341 405 341 423 349 c 1,118,119
EndSplineSet
EndChar

StartChar: l
Encoding: 108 108 36
Width: 562
Flags: W
LayerCount: 2
Fore
SplineSet
724 1455 m 0,0,1
 759 1455 759 1455 782.5 1438 c 128,-1,2
 806 1421 806 1421 806 1376 c 0,3,4
 806 1345 806 1345 793.5 1302 c 128,-1,5
 781 1259 781 1259 759.5 1208.5 c 128,-1,6
 738 1158 738 1158 709 1102.5 c 128,-1,7
 680 1047 680 1047 646.5 992 c 128,-1,8
 613 937 613 937 576.5 885 c 128,-1,9
 540 833 540 833 504 789 c 0,10,11
 432 700 432 700 379.5 639 c 128,-1,12
 327 578 327 578 289 535.5 c 128,-1,13
 251 493 251 493 225 466.5 c 128,-1,14
 199 440 199 440 179 421 c 128,-1,15
 159 402 159 402 142 386.5 c 128,-1,16
 125 371 125 371 107 352 c 1,17,18
 99 314 99 314 99.5 279.5 c 128,-1,19
 100 245 100 245 100 216 c 0,20,21
 100 129 100 129 128 87 c 128,-1,22
 156 45 156 45 207 45 c 0,23,24
 241 45 241 45 275.5 62.5 c 128,-1,25
 310 80 310 80 344 108 c 128,-1,26
 378 136 378 136 410 171.5 c 128,-1,27
 442 207 442 207 470.5 243.5 c 128,-1,28
 499 280 499 280 522 314 c 128,-1,29
 545 348 545 348 562 373 c 1,30,-1
 599 345 l 1,31,32
 596 341 596 341 579.5 313.5 c 128,-1,33
 563 286 563 286 536 247 c 128,-1,34
 509 208 509 208 472 163.5 c 128,-1,35
 435 119 435 119 392 81 c 128,-1,36
 349 43 349 43 301.5 18 c 128,-1,37
 254 -7 254 -7 205 -7 c 0,38,39
 164 -7 164 -7 126.5 8.5 c 128,-1,40
 89 24 89 24 60.5 57.5 c 128,-1,41
 32 91 32 91 14.5 143 c 128,-1,42
 -3 195 -3 195 -3 268 c 0,43,44
 -3 359 -3 359 18.5 458.5 c 128,-1,45
 40 558 40 558 77 658.5 c 128,-1,46
 114 759 114 759 164 857 c 128,-1,47
 214 955 214 955 270.5 1043.5 c 128,-1,48
 327 1132 327 1132 388.5 1207.5 c 128,-1,49
 450 1283 450 1283 509.5 1338 c 128,-1,50
 569 1393 569 1393 624 1424 c 128,-1,51
 679 1455 679 1455 724 1455 c 0,0,1
125 441 m 1,52,53
 210 529 210 529 289.5 619.5 c 128,-1,54
 369 710 369 710 438.5 798.5 c 128,-1,55
 508 887 508 887 566 970.5 c 128,-1,56
 624 1054 624 1054 665 1128 c 128,-1,57
 706 1202 706 1202 729 1263 c 128,-1,58
 752 1324 752 1324 752 1368 c 0,59,60
 752 1376 752 1376 744 1389.5 c 128,-1,61
 736 1403 736 1403 725 1403 c 0,62,63
 694 1403 694 1403 643 1362 c 128,-1,64
 592 1321 592 1321 532.5 1250.5 c 128,-1,65
 473 1180 473 1180 409.5 1086 c 128,-1,66
 346 992 346 992 290 885 c 128,-1,67
 234 778 234 778 190 664 c 128,-1,68
 146 550 146 550 125 441 c 1,52,53
EndSplineSet
EndChar

StartChar: m
Encoding: 109 109 37
Width: 1342
Flags: W
LayerCount: 2
Fore
SplineSet
832 544 m 1,0,1
 861 578 861 578 892 607 c 128,-1,2
 923 636 923 636 954 657 c 128,-1,3
 985 678 985 678 1015.5 689.5 c 128,-1,4
 1046 701 1046 701 1074 701 c 0,5,6
 1096 701 1096 701 1117.5 693.5 c 128,-1,7
 1139 686 1139 686 1156 670.5 c 128,-1,8
 1173 655 1173 655 1183 631 c 128,-1,9
 1193 607 1193 607 1193 574 c 0,10,11
 1193 526 1193 526 1180 479.5 c 128,-1,12
 1167 433 1167 433 1147 389 c 128,-1,13
 1127 345 1127 345 1104.5 304 c 128,-1,14
 1082 263 1082 263 1062 225.5 c 128,-1,15
 1042 188 1042 188 1029 154.5 c 128,-1,16
 1016 121 1016 121 1016 93 c 0,17,18
 1016 71 1016 71 1027.5 61.5 c 128,-1,19
 1039 52 1039 52 1052 52 c 0,20,21
 1078 52 1078 52 1113.5 82 c 128,-1,22
 1149 112 1149 112 1188 159 c 128,-1,23
 1227 206 1227 206 1266.5 262.5 c 128,-1,24
 1306 319 1306 319 1342 373 c 1,25,-1
 1378 345 l 1,26,27
 1365 324 1365 324 1344.5 289.5 c 128,-1,28
 1324 255 1324 255 1297 215.5 c 128,-1,29
 1270 176 1270 176 1238 135.5 c 128,-1,30
 1206 95 1206 95 1170.5 62.5 c 128,-1,31
 1135 30 1135 30 1097 9.5 c 128,-1,32
 1059 -11 1059 -11 1021 -11 c 0,33,34
 1000 -11 1000 -11 980.5 -5 c 128,-1,35
 961 1 961 1 946 14.5 c 128,-1,36
 931 28 931 28 922 50 c 128,-1,37
 913 72 913 72 913 104 c 0,38,39
 913 148 913 148 928 190 c 128,-1,40
 943 232 943 232 966 273 c 128,-1,41
 989 314 989 314 1015.5 354.5 c 128,-1,42
 1042 395 1042 395 1065 435 c 128,-1,43
 1088 475 1088 475 1103 515.5 c 128,-1,44
 1118 556 1118 556 1118 598 c 0,45,46
 1118 619 1118 619 1110 631.5 c 128,-1,47
 1102 644 1102 644 1080 644 c 0,48,49
 1045 644 1045 644 1006 615.5 c 128,-1,50
 967 587 967 587 925 539 c 128,-1,51
 883 491 883 491 839 427.5 c 128,-1,52
 795 364 795 364 751.5 293.5 c 128,-1,53
 708 223 708 223 665.5 150.5 c 128,-1,54
 623 78 623 78 584 11 c 1,55,-1
 500 55 l 1,56,57
 553 164 553 164 599.5 250 c 128,-1,58
 646 336 646 336 681 405.5 c 128,-1,59
 716 475 716 475 736 532.5 c 128,-1,60
 756 590 756 590 756 641 c 0,61,62
 756 651 756 651 754 661.5 c 128,-1,63
 752 672 752 672 746 680 c 128,-1,64
 740 688 740 688 730.5 693.5 c 128,-1,65
 721 699 721 699 706 699 c 0,66,67
 672 699 672 699 637 667.5 c 128,-1,68
 602 636 602 636 563 581.5 c 128,-1,69
 524 527 524 527 479.5 454.5 c 128,-1,70
 435 382 435 382 383.5 301 c 128,-1,71
 332 220 332 220 272 134.5 c 128,-1,72
 212 49 212 49 141 -31 c 1,73,-1
 72 15 l 1,74,75
 104 63 104 63 139.5 116.5 c 128,-1,76
 175 170 175 170 209.5 225 c 128,-1,77
 244 280 244 280 275.5 334.5 c 128,-1,78
 307 389 307 389 331 438 c 128,-1,79
 355 487 355 487 369 528 c 128,-1,80
 383 569 383 569 383 598 c 0,81,82
 383 632 383 632 366 647 c 128,-1,83
 349 662 349 662 322 662 c 0,84,85
 290 662 290 662 259.5 639 c 128,-1,86
 229 616 229 616 195.5 574 c 128,-1,87
 162 532 162 532 123.5 473.5 c 128,-1,88
 85 415 85 415 36 345 c 1,89,-1
 0 373 l 1,90,91
 53 457 53 457 95.5 521 c 128,-1,92
 138 585 138 585 176 628 c 128,-1,93
 214 671 214 671 251.5 693 c 128,-1,94
 289 715 289 715 333 715 c 0,95,96
 346 715 346 715 366.5 710 c 128,-1,97
 387 705 387 705 407 692 c 128,-1,98
 427 679 427 679 442.5 656 c 128,-1,99
 458 633 458 633 461 597 c 1,100,101
 517 669 517 669 578 712 c 128,-1,102
 639 755 639 755 693 755 c 0,103,104
 732 755 732 755 759 739.5 c 128,-1,105
 786 724 786 724 802.5 699 c 128,-1,106
 819 674 819 674 826.5 642.5 c 128,-1,107
 834 611 834 611 834 579 c 0,108,109
 834 571 834 571 833.5 562 c 128,-1,110
 833 553 833 553 832 544 c 1,0,1
EndSplineSet
EndChar

StartChar: n
Encoding: 110 110 38
Width: 1027
Flags: W
LayerCount: 2
Fore
SplineSet
835 519 m 0,0,1
 835 476 835 476 820 431.5 c 128,-1,2
 805 387 805 387 782 342.5 c 128,-1,3
 759 298 759 298 733 255 c 128,-1,4
 707 212 707 212 684 172 c 128,-1,5
 661 132 661 132 646 95.5 c 128,-1,6
 631 59 631 59 631 29 c 0,7,8
 631 6 631 6 641 -2 c 128,-1,9
 651 -10 651 -10 663 -10 c 0,10,11
 701 -10 701 -10 748 27.5 c 128,-1,12
 795 65 795 65 843.5 122 c 128,-1,13
 892 179 892 179 940 246 c 128,-1,14
 988 313 988 313 1027 373 c 1,15,-1
 1063 345 l 1,16,17
 1055 333 1055 333 1034 297.5 c 128,-1,18
 1013 262 1013 262 982 216.5 c 128,-1,19
 951 171 951 171 912.5 121.5 c 128,-1,20
 874 72 874 72 830 30.5 c 128,-1,21
 786 -11 786 -11 739.5 -38 c 128,-1,22
 693 -65 693 -65 646 -65 c 0,23,24
 619 -65 619 -65 597 -56 c 128,-1,25
 575 -47 575 -47 559.5 -31 c 128,-1,26
 544 -15 544 -15 535 6.5 c 128,-1,27
 526 28 526 28 526 52 c 0,28,29
 526 91 526 91 543.5 136.5 c 128,-1,30
 561 182 561 182 587 230 c 128,-1,31
 613 278 613 278 644 326.5 c 128,-1,32
 675 375 675 375 701 419 c 128,-1,33
 727 463 727 463 744.5 500.5 c 128,-1,34
 762 538 762 538 762 565 c 0,35,36
 762 596 762 596 745.5 617 c 128,-1,37
 729 638 729 638 699 638 c 0,38,39
 667 638 667 638 625 611.5 c 128,-1,40
 583 585 583 585 531 534 c 128,-1,41
 479 483 479 483 417.5 408.5 c 128,-1,42
 356 334 356 334 284 239 c 0,43,44
 243 184 243 184 204 133 c 0,45,46
 187 111 187 111 170 88 c 128,-1,47
 153 65 153 65 136 42.5 c 128,-1,48
 119 20 119 20 104 -0.5 c 128,-1,49
 89 -21 89 -21 77 -36 c 1,50,-1
 -11 0 l 1,51,-1
 106 161 l 2,52,53
 131 195 131 195 157 234 c 128,-1,54
 183 273 183 273 208.5 314.5 c 128,-1,55
 234 356 234 356 257 398 c 128,-1,56
 280 440 280 440 300 480 c 0,57,58
 329 540 329 540 340 579.5 c 128,-1,59
 351 619 351 619 351 643 c 0,60,61
 351 670 351 670 341 678.5 c 128,-1,62
 331 687 331 687 313 687 c 0,63,64
 294 687 294 687 269.5 667.5 c 128,-1,65
 245 648 245 648 219 617.5 c 128,-1,66
 193 587 193 587 166.5 548.5 c 128,-1,67
 140 510 140 510 116 472 c 128,-1,68
 92 434 92 434 71 400 c 128,-1,69
 50 366 50 366 36 345 c 1,70,-1
 0 373 l 1,71,72
 51 453 51 453 92.5 519.5 c 128,-1,73
 134 586 134 586 172.5 634 c 128,-1,74
 211 682 211 682 247.5 708.5 c 128,-1,75
 284 735 284 735 325 735 c 0,76,77
 347 735 347 735 367.5 726 c 128,-1,78
 388 717 388 717 403.5 699.5 c 128,-1,79
 419 682 419 682 428 657 c 128,-1,80
 437 632 437 632 437 599 c 0,81,82
 437 573 437 573 431 545 c 1,83,84
 475 588 475 588 513 616 c 128,-1,85
 551 644 551 644 583 660.5 c 128,-1,86
 615 677 615 677 642 684 c 128,-1,87
 669 691 669 691 691 691 c 0,88,89
 710 691 710 691 735 684 c 128,-1,90
 760 677 760 677 782 658 c 128,-1,91
 804 639 804 639 819.5 605.5 c 128,-1,92
 835 572 835 572 835 519 c 0,0,1
EndSplineSet
EndChar

StartChar: o
Encoding: 111 111 39
Width: 747
Flags: W
LayerCount: 2
Fore
SplineSet
564 272 m 1,0,1
 568 271 568 271 572 271 c 128,-1,2
 576 271 576 271 581 271 c 0,3,4
 609 271 609 271 632 276.5 c 128,-1,5
 655 282 655 282 674.5 294 c 128,-1,6
 694 306 694 306 712 325.5 c 128,-1,7
 730 345 730 345 747 373 c 1,8,-1
 783 345 l 1,9,10
 735 277 735 277 684 250 c 128,-1,11
 633 223 633 223 576 223 c 0,12,13
 555 223 555 223 539 227 c 1,14,15
 496 155 496 155 447 104.5 c 128,-1,16
 398 54 398 54 347 22 c 128,-1,17
 296 -10 296 -10 246 -24.5 c 128,-1,18
 196 -39 196 -39 153 -39 c 0,19,20
 109 -39 109 -39 71.5 -23.5 c 128,-1,21
 34 -8 34 -8 7 21 c 128,-1,22
 -20 50 -20 50 -35 90 c 128,-1,23
 -50 130 -50 130 -50 180 c 256,24,25
 -50 230 -50 230 -34 282 c 128,-1,26
 -18 334 -18 334 9.5 385 c 128,-1,27
 37 436 37 436 74 483.5 c 128,-1,28
 111 531 111 531 154 572 c 128,-1,29
 197 613 197 613 243 646 c 128,-1,30
 289 679 289 679 335 700 c 1,31,-1
 367 658 l 1,32,33
 314 620 314 620 259.5 562 c 128,-1,34
 205 504 205 504 160.5 435 c 128,-1,35
 116 366 116 366 87.5 291.5 c 128,-1,36
 59 217 59 217 59 147 c 0,37,38
 59 84 59 84 87 49.5 c 128,-1,39
 115 15 115 15 172 15 c 0,40,41
 216 15 216 15 259 33 c 128,-1,42
 302 51 302 51 343 82 c 128,-1,43
 384 113 384 113 422 155.5 c 128,-1,44
 460 198 460 198 494 246 c 1,45,46
 465 263 465 263 443 291.5 c 128,-1,47
 421 320 421 320 406 356.5 c 128,-1,48
 391 393 391 393 383.5 435 c 128,-1,49
 376 477 376 477 376 521 c 256,50,51
 376 565 376 565 387 604 c 128,-1,52
 398 643 398 643 417.5 672.5 c 128,-1,53
 437 702 437 702 463 719 c 128,-1,54
 489 736 489 736 520 736 c 0,55,56
 548 736 548 736 570 721.5 c 128,-1,57
 592 707 592 707 607 681.5 c 128,-1,58
 622 656 622 656 630 621 c 128,-1,59
 638 586 638 586 638 546 c 0,60,61
 638 516 638 516 633 480 c 128,-1,62
 628 444 628 444 618.5 407.5 c 128,-1,63
 609 371 609 371 595.5 335.5 c 128,-1,64
 582 300 582 300 564 272 c 1,0,1
428 521 m 0,65,66
 428 492 428 492 433 458 c 128,-1,67
 438 424 438 424 449 392 c 128,-1,68
 460 360 460 360 477 332.5 c 128,-1,69
 494 305 494 305 519 289 c 1,70,71
 537 324 537 324 549.5 360.5 c 128,-1,72
 562 397 562 397 570.5 431 c 128,-1,73
 579 465 579 465 582.5 494.5 c 128,-1,74
 586 524 586 524 586 546 c 0,75,76
 586 576 586 576 581 601 c 128,-1,77
 576 626 576 626 567.5 644.5 c 128,-1,78
 559 663 559 663 546.5 673.5 c 128,-1,79
 534 684 534 684 519 684 c 0,80,81
 499 684 499 684 482 670.5 c 128,-1,82
 465 657 465 657 453 634.5 c 128,-1,83
 441 612 441 612 434.5 582.5 c 128,-1,84
 428 553 428 553 428 521 c 0,65,66
EndSplineSet
Substitution2: "Single Substitution lookup 5 subtable" ordmasculine
Substitution2: "'aalt' Access All Alternates in Latin lookup 0 subtable" ordmasculine
EndChar

StartChar: p
Encoding: 112 112 40
Width: 813
Flags: W
LayerCount: 2
Fore
SplineSet
349 872 m 1,0,-1
 122 416 l 1,1,2
 182 493 182 493 248 559.5 c 128,-1,3
 314 626 314 626 383 668 c 0,4,5
 434 698 434 698 473 709.5 c 128,-1,6
 512 721 512 721 547 721 c 0,7,8
 581 721 581 721 603 710 c 128,-1,9
 625 699 625 699 638 681 c 128,-1,10
 651 663 651 663 656 641.5 c 128,-1,11
 661 620 661 620 661 599 c 0,12,13
 661 552 661 552 645 506 c 128,-1,14
 629 460 629 460 605.5 415 c 128,-1,15
 582 370 582 370 554 326.5 c 128,-1,16
 526 283 526 283 502.5 241.5 c 128,-1,17
 479 200 479 200 463 160 c 128,-1,18
 447 120 447 120 447 83 c 0,19,20
 447 65 447 65 451.5 53.5 c 128,-1,21
 456 42 456 42 463.5 35.5 c 128,-1,22
 471 29 471 29 480 27 c 128,-1,23
 489 25 489 25 498 25 c 0,24,25
 517 25 517 25 542.5 42.5 c 128,-1,26
 568 60 568 60 597 88.5 c 128,-1,27
 626 117 626 117 656.5 153.5 c 128,-1,28
 687 190 687 190 715.5 228.5 c 128,-1,29
 744 267 744 267 769 304.5 c 128,-1,30
 794 342 794 342 813 373 c 1,31,-1
 850 345 l 1,32,33
 839 323 839 323 817.5 287 c 128,-1,34
 796 251 796 251 767 209.5 c 128,-1,35
 738 168 738 168 703.5 126.5 c 128,-1,36
 669 85 669 85 631 51 c 128,-1,37
 593 17 593 17 553.5 -4.5 c 128,-1,38
 514 -26 514 -26 476 -26 c 0,39,40
 450 -26 450 -26 426 -18 c 128,-1,41
 402 -10 402 -10 384 6.5 c 128,-1,42
 366 23 366 23 355 49 c 128,-1,43
 344 75 344 75 344 111 c 0,44,45
 344 154 344 154 361.5 210 c 128,-1,46
 379 266 379 266 429 338 c 0,47,48
 470 397 470 397 500 436.5 c 128,-1,49
 530 476 530 476 549.5 505.5 c 128,-1,50
 569 535 569 535 578 559.5 c 128,-1,51
 587 584 587 584 587 614 c 0,52,53
 587 640 587 640 572 654 c 128,-1,54
 557 668 557 668 538 668 c 0,55,56
 487 668 487 668 433 639 c 128,-1,57
 379 610 379 610 326 562.5 c 128,-1,58
 273 515 273 515 222 454 c 128,-1,59
 171 393 171 393 125.5 329.5 c 128,-1,60
 80 266 80 266 41.5 205 c 128,-1,61
 3 144 3 144 -25 95.5 c 128,-1,62
 -53 47 -53 47 -68.5 17.5 c 128,-1,63
 -84 -12 -84 -12 -85 -13 c 0,64,65
 -127 -99 -127 -99 -167 -179.5 c 128,-1,66
 -207 -260 -207 -260 -242.5 -332 c 128,-1,67
 -278 -404 -278 -404 -308 -463.5 c 128,-1,68
 -338 -523 -338 -523 -360 -567 c 128,-1,69
 -382 -611 -382 -611 -394.5 -636 c 128,-1,70
 -407 -661 -407 -661 -408 -662 c 1,71,-1
 -517 -600 l 1,72,73
 -435 -445 -435 -445 -369 -320 c 128,-1,74
 -303 -195 -303 -195 -243 -84.5 c 128,-1,75
 -183 26 -183 26 -125 130 c 128,-1,76
 -67 234 -67 234 -2 347.5 c 128,-1,77
 63 461 63 461 139.5 591.5 c 128,-1,78
 216 722 216 722 314 886 c 1,79,-1
 349 872 l 1,0,-1
EndSplineSet
EndChar

StartChar: q
Encoding: 113 113 41
Width: 914
Flags: W
LayerCount: 2
Fore
SplineSet
707 596 m 1,0,1
 717 612 717 612 728.5 630.5 c 128,-1,2
 740 649 740 649 749 663 c 1,3,-1
 784 648 l 1,4,5
 783 647 783 647 771 620.5 c 128,-1,6
 759 594 759 594 738 549.5 c 128,-1,7
 717 505 717 505 688.5 444.5 c 128,-1,8
 660 384 660 384 628 315 c 128,-1,9
 596 246 596 246 561 171 c 128,-1,10
 526 96 526 96 492 22 c 1,11,12
 494 23 494 23 516.5 34 c 128,-1,13
 539 45 539 45 573.5 66 c 128,-1,14
 608 87 608 87 652 117.5 c 128,-1,15
 696 148 696 148 742.5 186.5 c 128,-1,16
 789 225 789 225 833.5 272 c 128,-1,17
 878 319 878 319 914 373 c 1,18,-1
 950 345 l 1,19,20
 895 261 895 261 832.5 198.5 c 128,-1,21
 770 136 770 136 712 92 c 128,-1,22
 654 48 654 48 607 21.5 c 128,-1,23
 560 -5 560 -5 536 -16 c 1,24,25
 538 -45 538 -45 539.5 -75 c 128,-1,26
 541 -105 541 -105 541 -135 c 0,27,28
 541 -226 541 -226 530.5 -316.5 c 128,-1,29
 520 -407 520 -407 500.5 -489.5 c 128,-1,30
 481 -572 481 -572 454 -643 c 128,-1,31
 427 -714 427 -714 394 -766 c 128,-1,32
 361 -818 361 -818 323 -848 c 128,-1,33
 285 -878 285 -878 244 -878 c 0,34,35
 199 -878 199 -878 168 -862.5 c 128,-1,36
 137 -847 137 -847 117.5 -821.5 c 128,-1,37
 98 -796 98 -796 89 -762.5 c 128,-1,38
 80 -729 80 -729 80 -693 c 0,39,40
 80 -635 80 -635 101 -563.5 c 128,-1,41
 122 -492 122 -492 161 -402.5 c 128,-1,42
 200 -313 200 -313 254.5 -202 c 128,-1,43
 309 -91 309 -91 376 46 c 1,44,45
 322 4 322 4 265.5 -20 c 128,-1,46
 209 -44 209 -44 146 -44 c 0,47,48
 114 -44 114 -44 76.5 -33 c 128,-1,49
 39 -22 39 -22 6.5 2.5 c 128,-1,50
 -26 27 -26 27 -48 66 c 128,-1,51
 -70 105 -70 105 -70 162 c 0,52,53
 -70 223 -70 223 -48 287 c 128,-1,54
 -26 351 -26 351 12.5 412 c 128,-1,55
 51 473 51 473 104 527 c 128,-1,56
 157 581 157 581 219.5 621.5 c 128,-1,57
 282 662 282 662 351 685.5 c 128,-1,58
 420 709 420 709 491 709 c 0,59,60
 547 709 547 709 584.5 698.5 c 128,-1,61
 622 688 622 688 646.5 671.5 c 128,-1,62
 671 655 671 655 684.5 635 c 128,-1,63
 698 615 698 615 707 596 c 1,0,1
667 544 m 1,64,65
 664 562 664 562 657.5 580 c 128,-1,66
 651 598 651 598 637.5 612.5 c 128,-1,67
 624 627 624 627 601.5 636 c 128,-1,68
 579 645 579 645 543 645 c 0,69,70
 484 645 484 645 423.5 623.5 c 128,-1,71
 363 602 363 602 307 564.5 c 128,-1,72
 251 527 251 527 202 477.5 c 128,-1,73
 153 428 153 428 117 372 c 128,-1,74
 81 316 81 316 60 256.5 c 128,-1,75
 39 197 39 197 39 140 c 0,76,77
 39 77 39 77 70 43 c 128,-1,78
 101 9 101 9 159 9 c 0,79,80
 222 9 222 9 293 44.5 c 128,-1,81
 364 80 364 80 433 148 c 1,82,83
 491 247 491 247 549.5 347.5 c 128,-1,84
 608 448 608 448 667 544 c 1,64,65
482 0 m 1,85,86
 430 -108 430 -108 379.5 -211.5 c 128,-1,87
 329 -315 329 -315 285 -403 c 0,88,89
 234 -503 234 -503 208 -588 c 128,-1,90
 182 -673 182 -673 182 -731 c 0,91,92
 182 -749 182 -749 185 -765.5 c 128,-1,93
 188 -782 188 -782 194.5 -795.5 c 128,-1,94
 201 -809 201 -809 211.5 -817 c 128,-1,95
 222 -825 222 -825 237 -825 c 0,96,97
 269 -825 269 -825 300 -791.5 c 128,-1,98
 331 -758 331 -758 358.5 -702 c 128,-1,99
 386 -646 386 -646 410 -572.5 c 128,-1,100
 434 -499 434 -499 451 -419 c 128,-1,101
 468 -339 468 -339 478 -258 c 128,-1,102
 488 -177 488 -177 488 -105 c 0,103,104
 488 -79 488 -79 486 -53.5 c 128,-1,105
 484 -28 484 -28 482 0 c 1,85,86
EndSplineSet
EndChar

StartChar: r
Encoding: 114 114 42
Width: 594
Flags: W
LayerCount: 2
Fore
SplineSet
631 345 m 1,0,1
 616 323 616 323 595.5 285.5 c 128,-1,2
 575 248 575 248 548 204.5 c 128,-1,3
 521 161 521 161 488.5 116 c 128,-1,4
 456 71 456 71 417.5 35 c 128,-1,5
 379 -1 379 -1 334 -24 c 128,-1,6
 289 -47 289 -47 238 -47 c 0,7,8
 210 -47 210 -47 185 -38.5 c 128,-1,9
 160 -30 160 -30 141 -12 c 128,-1,10
 122 6 122 6 111 32.5 c 128,-1,11
 100 59 100 59 100 95 c 0,12,13
 100 144 100 144 119.5 197.5 c 128,-1,14
 139 251 139 251 165 301 c 128,-1,15
 191 351 191 351 217 392.5 c 128,-1,16
 243 434 243 434 255 459 c 256,17,18
 267 484 267 484 267 502 c 0,19,20
 267 515 267 515 258.5 525 c 128,-1,21
 250 535 250 535 237.5 544.5 c 128,-1,22
 225 554 225 554 211.5 564.5 c 128,-1,23
 198 575 198 575 189 590 c 1,24,25
 164 550 164 550 138 509 c 0,26,27
 115 474 115 474 88 430.5 c 128,-1,28
 61 387 61 387 36 345 c 1,29,-1
 0 373 l 1,30,-1
 214 708 l 1,31,-1
 243 693 l 1,32,33
 241 687 241 687 236.5 674 c 128,-1,34
 232 661 232 661 232 646 c 0,35,36
 232 635 232 635 235.5 624.5 c 128,-1,37
 239 614 239 614 250 605 c 0,38,39
 290 569 290 569 313 549.5 c 128,-1,40
 336 530 336 530 346.5 518.5 c 128,-1,41
 357 507 357 507 359.5 499.5 c 128,-1,42
 362 492 362 492 362 480 c 256,43,44
 362 468 362 468 358 451 c 128,-1,45
 354 434 354 434 344.5 410 c 128,-1,46
 335 386 335 386 318.5 353.5 c 128,-1,47
 302 321 302 321 277 278 c 0,48,49
 262 252 262 252 247.5 225.5 c 128,-1,50
 233 199 233 199 221.5 172 c 128,-1,51
 210 145 210 145 203 118 c 128,-1,52
 196 91 196 91 196 66 c 0,53,54
 196 47 196 47 201.5 35.5 c 128,-1,55
 207 24 207 24 216 18 c 128,-1,56
 225 12 225 12 235.5 10 c 128,-1,57
 246 8 246 8 256 8 c 0,58,59
 289 8 289 8 321.5 27.5 c 128,-1,60
 354 47 354 47 385.5 78 c 128,-1,61
 417 109 417 109 446.5 148.5 c 128,-1,62
 476 188 476 188 503 229 c 128,-1,63
 530 270 530 270 553 307.5 c 128,-1,64
 576 345 576 345 594 373 c 1,65,-1
 631 345 l 1,0,1
EndSplineSet
EndChar

StartChar: s
Encoding: 115 115 43
Width: 560
Flags: W
LayerCount: 2
Fore
SplineSet
321 785 m 1,0,1
 316 776 316 776 308 765.5 c 128,-1,2
 300 755 300 755 292.5 741.5 c 128,-1,3
 285 728 285 728 279.5 710 c 128,-1,4
 274 692 274 692 274 667 c 0,5,6
 274 646 274 646 284.5 610 c 128,-1,7
 295 574 295 574 307 527.5 c 128,-1,8
 319 481 319 481 329.5 426.5 c 128,-1,9
 340 372 340 372 340 314 c 0,10,11
 340 229 340 229 317 164 c 128,-1,12
 294 99 294 99 256 53 c 1,13,14
 334 95 334 95 409 173.5 c 128,-1,15
 484 252 484 252 560 373 c 1,16,-1
 594 343 l 1,17,18
 551 272 551 272 496.5 202.5 c 128,-1,19
 442 133 442 133 377 77.5 c 128,-1,20
 312 22 312 22 237 -12.5 c 128,-1,21
 162 -47 162 -47 78 -47 c 0,22,23
 3 -47 3 -47 -48.5 -11.5 c 128,-1,24
 -100 24 -100 24 -112 95 c 1,25,-1
 -76 102 l 1,26,27
 -76 96 -76 96 -70.5 82.5 c 128,-1,28
 -65 69 -65 69 -53 56 c 128,-1,29
 -41 43 -41 43 -20.5 33 c 128,-1,30
 0 23 0 23 30 23 c 0,31,32
 70 23 70 23 101 41.5 c 128,-1,33
 132 60 132 60 155 90 c 128,-1,34
 178 120 178 120 194 158.5 c 128,-1,35
 210 197 210 197 219.5 238 c 128,-1,36
 229 279 229 279 233 318 c 128,-1,37
 237 357 237 357 237 389 c 256,38,39
 237 421 237 421 234.5 460 c 128,-1,40
 232 499 232 499 229 534.5 c 128,-1,41
 226 570 226 570 223.5 596.5 c 128,-1,42
 221 623 221 623 221 631 c 2,43,-1
 221 633 l 1,44,45
 208 619 208 619 190 592 c 128,-1,46
 172 565 172 565 151.5 533 c 128,-1,47
 131 501 131 501 110.5 468 c 128,-1,48
 90 435 90 435 73.5 408 c 128,-1,49
 57 381 57 381 46.5 363.5 c 128,-1,50
 36 346 36 346 36 345 c 2,51,-1
 0 373 l 1,52,53
 1 374 1 374 25 416 c 128,-1,54
 49 458 49 458 88.5 522.5 c 128,-1,55
 128 587 128 587 178 665.5 c 128,-1,56
 228 744 228 744 281 818 c 1,57,-1
 321 785 l 1,58,-1
 321 785 l 1,0,1
EndSplineSet
EndChar

StartChar: t
Encoding: 116 116 44
Width: 546
Flags: W
LayerCount: 2
Fore
SplineSet
203 825 m 1,0,1
 213 842 213 842 238.5 884 c 128,-1,2
 264 926 264 926 298.5 977 c 128,-1,3
 333 1028 333 1028 373.5 1079.5 c 128,-1,4
 414 1131 414 1131 453 1167 c 1,5,-1
 498 1140 l 1,6,7
 455 1069 455 1069 410 989.5 c 128,-1,8
 365 910 365 910 321 825 c 1,9,-1
 647 825 l 1,10,-1
 627 773 l 1,11,-1
 294 773 l 1,12,13
 249 683 249 683 209.5 594 c 128,-1,14
 170 505 170 505 140 424 c 128,-1,15
 110 343 110 343 93 272.5 c 128,-1,16
 76 202 76 202 76 150 c 0,17,18
 76 85 76 85 106 56.5 c 128,-1,19
 136 28 136 28 180 28 c 0,20,21
 219 28 219 28 260 51.5 c 128,-1,22
 301 75 301 75 340.5 111 c 128,-1,23
 380 147 380 147 415.5 190 c 128,-1,24
 451 233 451 233 478.5 271 c 128,-1,25
 506 309 506 309 524 337.5 c 128,-1,26
 542 366 542 366 546 373 c 1,27,-1
 583 345 l 1,28,29
 548 287 548 287 504 222 c 128,-1,30
 460 157 460 157 406.5 101.5 c 128,-1,31
 353 46 353 46 290 9.5 c 128,-1,32
 227 -27 227 -27 154 -27 c 0,33,34
 109 -27 109 -27 75.5 -11 c 128,-1,35
 42 5 42 5 19 33.5 c 128,-1,36
 -4 62 -4 62 -15.5 101 c 128,-1,37
 -27 140 -27 140 -27 186 c 0,38,39
 -27 216 -27 216 -17.5 271 c 128,-1,40
 -8 326 -8 326 15 401.5 c 128,-1,41
 38 477 38 477 76.5 571 c 128,-1,42
 115 665 115 665 174 773 c 1,43,-1
 8 773 l 1,44,-1
 28 825 l 1,45,-1
 203 825 l 1,0,1
EndSplineSet
EndChar

StartChar: u
Encoding: 117 117 45
Width: 888
Flags: W
LayerCount: 2
Fore
SplineSet
466 218 m 1,0,1
 420 164 420 164 375 118.5 c 128,-1,2
 330 73 330 73 285.5 40.5 c 128,-1,3
 241 8 241 8 197 -10.5 c 128,-1,4
 153 -29 153 -29 108 -29 c 0,5,6
 70 -29 70 -29 39.5 -15.5 c 128,-1,7
 9 -2 9 -2 -13.5 22.5 c 128,-1,8
 -36 47 -36 47 -48 82.5 c 128,-1,9
 -60 118 -60 118 -60 162 c 0,10,11
 -60 231 -60 231 -29.5 304 c 128,-1,12
 1 377 1 377 47.5 446 c 128,-1,13
 94 515 94 515 150.5 577 c 128,-1,14
 207 639 207 639 258 687 c 1,15,-1
 301 657 l 1,16,17
 265 604 265 604 220.5 537 c 128,-1,18
 176 470 176 470 136.5 398.5 c 128,-1,19
 97 327 97 327 70 255.5 c 128,-1,20
 43 184 43 184 43 123 c 0,21,22
 43 82 43 82 58.5 53 c 128,-1,23
 74 24 74 24 118 24 c 0,24,25
 166 24 166 24 223.5 62 c 128,-1,26
 281 100 281 100 341.5 161 c 128,-1,27
 402 222 402 222 462.5 298.5 c 128,-1,28
 523 375 523 375 577 453 c 128,-1,29
 631 531 631 531 675.5 602 c 128,-1,30
 720 673 720 673 748 723 c 1,31,-1
 821 687 l 1,32,33
 763 573 763 573 709.5 474.5 c 128,-1,34
 656 376 656 376 614.5 297.5 c 128,-1,35
 573 219 573 219 548.5 161 c 128,-1,36
 524 103 524 103 524 69 c 0,37,38
 524 55 524 55 530 46 c 128,-1,39
 536 37 536 37 549 37 c 0,40,41
 586 36 586 36 630.5 69 c 128,-1,42
 675 102 675 102 720.5 152 c 128,-1,43
 766 202 766 202 809.5 261.5 c 128,-1,44
 853 321 853 321 888 373 c 1,45,-1
 924 345 l 1,46,47
 918 335 918 335 899 304 c 128,-1,48
 880 273 880 273 852 233 c 128,-1,49
 824 193 824 193 788 149 c 128,-1,50
 752 105 752 105 712 68.5 c 128,-1,51
 672 32 672 32 629 8.5 c 128,-1,52
 586 -15 586 -15 544 -15 c 0,53,54
 518 -15 518 -15 497.5 -6 c 128,-1,55
 477 3 477 3 463 18 c 128,-1,56
 449 33 449 33 441 53 c 128,-1,57
 433 73 433 73 433 95 c 0,58,59
 433 121 433 121 441.5 152 c 128,-1,60
 450 183 450 183 466 218 c 1,0,1
EndSplineSet
EndChar

StartChar: v
Encoding: 118 118 46
Width: 716
Flags: W
LayerCount: 2
Fore
SplineSet
529 383 m 1,0,1
 513 418 513 418 504.5 456 c 128,-1,2
 496 494 496 494 496 535 c 0,3,4
 496 588 496 588 505.5 624.5 c 128,-1,5
 515 661 515 661 529 683.5 c 128,-1,6
 543 706 543 706 559.5 716 c 128,-1,7
 576 726 576 726 591 726 c 0,8,9
 604 726 604 726 615.5 720.5 c 128,-1,10
 627 715 627 715 636 702 c 128,-1,11
 645 689 645 689 650.5 668 c 128,-1,12
 656 647 656 647 656 616 c 0,13,14
 656 544 656 544 627.5 468 c 128,-1,15
 599 392 599 392 551.5 321 c 128,-1,16
 504 250 504 250 442 187 c 128,-1,17
 380 124 380 124 314 76 c 0,18,19
 296 63 296 63 272.5 48.5 c 128,-1,20
 249 34 249 34 222.5 21.5 c 128,-1,21
 196 9 196 9 167.5 0.5 c 128,-1,22
 139 -8 139 -8 112 -8 c 0,23,24
 45 -8 45 -8 2.5 42.5 c 128,-1,25
 -40 93 -40 93 -40 184 c 0,26,27
 -40 226 -40 226 -28 274 c 128,-1,28
 -16 322 -16 322 5 372.5 c 128,-1,29
 26 423 26 423 54 474 c 128,-1,30
 82 525 82 525 113.5 571.5 c 128,-1,31
 145 618 145 618 179 659 c 128,-1,32
 213 700 213 700 246 731 c 1,33,-1
 290 702 l 1,34,35
 232 614 232 614 190 531.5 c 128,-1,36
 148 449 148 449 120.5 376 c 128,-1,37
 93 303 93 303 79.5 242.5 c 128,-1,38
 66 182 66 182 66 138 c 0,39,40
 66 87 66 87 79.5 65.5 c 128,-1,41
 93 44 93 44 118 44 c 0,42,43
 142 44 142 44 184.5 61.5 c 128,-1,44
 227 79 227 79 283 118 c 0,45,46
 354 168 354 168 418.5 236.5 c 128,-1,47
 483 305 483 305 529 383 c 1,0,1
561 433 m 1,48,49
 581 478 581 478 592.5 526.5 c 128,-1,50
 604 575 604 575 604 618 c 0,51,52
 604 648 604 648 599 661 c 128,-1,53
 594 674 594 674 591 676 c 0,54,55
 590 676 590 676 583 670 c 128,-1,56
 576 664 576 664 567.5 648.5 c 128,-1,57
 559 633 559 633 552.5 605.5 c 128,-1,58
 546 578 546 578 546 535 c 0,59,60
 546 510 546 510 549.5 482 c 128,-1,61
 553 454 553 454 561 433 c 1,48,49
EndSplineSet
EndChar

StartChar: w
Encoding: 119 119 47
Width: 1011
Flags: W
LayerCount: 2
Fore
SplineSet
277 665 m 1,0,1
 220 578 220 578 180 499.5 c 128,-1,2
 140 421 140 421 114 354 c 128,-1,3
 88 287 88 287 76 232 c 128,-1,4
 64 177 64 177 64 137 c 0,5,6
 64 45 64 45 117 45 c 0,7,8
 149 45 149 45 190.5 77 c 128,-1,9
 232 109 232 109 275 162 c 128,-1,10
 318 215 318 215 359 284 c 128,-1,11
 400 353 400 353 431 427 c 1,12,-1
 432 426 l 1,13,14
 461 498 461 498 495.5 567 c 128,-1,15
 530 636 530 636 566 693 c 1,16,-1
 611 665 l 1,17,18
 594 618 594 618 570 551 c 128,-1,19
 546 484 546 484 524.5 410.5 c 128,-1,20
 503 337 503 337 487.5 264 c 128,-1,21
 472 191 472 191 472 132 c 0,22,23
 472 115 472 115 473.5 99.5 c 128,-1,24
 475 84 475 84 479 72 c 128,-1,25
 483 60 483 60 491 53 c 128,-1,26
 499 46 499 46 511 46 c 0,27,28
 545 46 545 46 588.5 76 c 128,-1,29
 632 106 632 106 675.5 153.5 c 128,-1,30
 719 201 719 201 758.5 258.5 c 128,-1,31
 798 316 798 316 825 370 c 1,32,33
 785 444 785 444 785 538 c 0,34,35
 785 590 785 590 794.5 626 c 128,-1,36
 804 662 804 662 818 684.5 c 128,-1,37
 832 707 832 707 849 716.5 c 128,-1,38
 866 726 866 726 880 726 c 0,39,40
 906 726 906 726 925.5 700 c 128,-1,41
 945 674 945 674 945 607 c 0,42,43
 945 559 945 559 928 497.5 c 128,-1,44
 911 436 911 436 881 370 c 1,45,46
 899 344 899 344 925 328 c 128,-1,47
 951 312 951 312 986 311 c 1,48,-1
 977 263 l 1,49,50
 941 265 941 265 911 280.5 c 128,-1,51
 881 296 881 296 858 322 c 1,52,53
 825 259 825 259 781.5 199.5 c 128,-1,54
 738 140 738 140 688.5 94 c 128,-1,55
 639 48 639 48 585 20 c 128,-1,56
 531 -8 531 -8 476 -8 c 0,57,58
 453 -8 453 -8 432.5 1 c 128,-1,59
 412 10 412 10 396 28 c 128,-1,60
 380 46 380 46 371 74 c 128,-1,61
 362 102 362 102 362 140 c 0,62,63
 362 154 362 154 363 170 c 128,-1,64
 364 186 364 186 367 203 c 1,65,66
 338 158 338 158 307.5 119 c 128,-1,67
 277 80 277 80 245 52 c 128,-1,68
 213 24 213 24 178.5 8 c 128,-1,69
 144 -8 144 -8 108 -8 c 0,70,71
 69 -8 69 -8 41 5.5 c 128,-1,72
 13 19 13 19 -5 43.5 c 128,-1,73
 -23 68 -23 68 -31.5 101 c 128,-1,74
 -40 134 -40 134 -40 173 c 0,75,76
 -40 242 -40 242 -17.5 314 c 128,-1,77
 5 386 5 386 43 455 c 128,-1,78
 81 524 81 524 130.5 585 c 128,-1,79
 180 646 180 646 234 693 c 1,80,-1
 277 665 l 1,0,1
853 431 m 1,81,82
 872 476 872 476 882 522 c 128,-1,83
 892 568 892 568 892 612 c 0,84,85
 892 645 892 645 887 659 c 128,-1,86
 882 673 882 673 879 675 c 0,87,88
 878 675 878 675 871.5 669.5 c 128,-1,89
 865 664 865 664 857 649 c 128,-1,90
 849 634 849 634 842.5 607.5 c 128,-1,91
 836 581 836 581 836 539 c 0,92,93
 836 510 836 510 840.5 482 c 128,-1,94
 845 454 845 454 853 431 c 1,81,82
EndSplineSet
EndChar

StartChar: x
Encoding: 120 120 48
Width: 968
Flags: W
LayerCount: 2
Fore
SplineSet
425 319 m 1,0,1
 423 391 423 391 424 453.5 c 128,-1,2
 425 516 425 516 420.5 562.5 c 128,-1,3
 416 609 416 609 402 636 c 128,-1,4
 388 663 388 663 357 663 c 0,5,6
 330 663 330 663 300 646.5 c 128,-1,7
 270 630 270 630 240 603.5 c 128,-1,8
 210 577 210 577 180 543 c 128,-1,9
 150 509 150 509 123.5 473.5 c 128,-1,10
 97 438 97 438 74.5 404.5 c 128,-1,11
 52 371 52 371 36 345 c 1,12,-1
 0 373 l 1,13,14
 15 396 15 396 37 430 c 128,-1,15
 59 464 59 464 86.5 502 c 128,-1,16
 114 540 114 540 146 578 c 128,-1,17
 178 616 178 616 213 646.5 c 128,-1,18
 248 677 248 677 285 696 c 128,-1,19
 322 715 322 715 360 715 c 0,20,21
 396 715 396 715 425.5 705 c 128,-1,22
 455 695 455 695 477 666.5 c 128,-1,23
 499 638 499 638 513.5 586.5 c 128,-1,24
 528 535 528 535 533 453 c 1,25,26
 589 523 589 523 632.5 574 c 128,-1,27
 676 625 676 625 712.5 658 c 128,-1,28
 749 691 749 691 780 707 c 128,-1,29
 811 723 811 723 841 723 c 0,30,31
 872 723 872 723 890 713 c 128,-1,32
 908 703 908 703 918 689.5 c 128,-1,33
 928 676 928 676 931 662 c 128,-1,34
 934 648 934 648 934 639 c 0,35,36
 934 613 934 613 920 593 c 128,-1,37
 906 573 906 573 880 573 c 0,38,39
 855 573 855 573 840 590.5 c 128,-1,40
 825 608 825 608 825 631 c 0,41,42
 825 636 825 636 826.5 648 c 128,-1,43
 828 660 828 660 833 672 c 1,44,45
 811 672 811 672 782.5 651 c 128,-1,46
 754 630 754 630 717.5 591 c 128,-1,47
 681 552 681 552 636 496.5 c 128,-1,48
 591 441 591 441 536 372 c 1,49,50
 538 275 538 275 540.5 204 c 128,-1,51
 543 133 543 133 549.5 86.5 c 128,-1,52
 556 40 556 40 569.5 17 c 128,-1,53
 583 -6 583 -6 607 -6 c 0,54,55
 637 -6 637 -6 670.5 14 c 128,-1,56
 704 34 704 34 738 66.5 c 128,-1,57
 772 99 772 99 805.5 140 c 128,-1,58
 839 181 839 181 869 223 c 128,-1,59
 899 265 899 265 924.5 304.5 c 128,-1,60
 950 344 950 344 968 373 c 1,61,-1
 1004 345 l 1,62,63
 997 333 997 333 976 298 c 128,-1,64
 955 263 955 263 924 217.5 c 128,-1,65
 893 172 893 172 853 122 c 128,-1,66
 813 72 813 72 769 30.5 c 128,-1,67
 725 -11 725 -11 678 -38 c 128,-1,68
 631 -65 631 -65 586 -65 c 0,69,70
 546 -65 546 -65 518 -51.5 c 128,-1,71
 490 -38 490 -38 471 -4 c 128,-1,72
 452 30 452 30 442 88 c 128,-1,73
 432 146 432 146 428 235 c 1,74,75
 372 166 372 166 324 110.5 c 128,-1,76
 276 55 276 55 232 16.5 c 128,-1,77
 188 -22 188 -22 147.5 -42.5 c 128,-1,78
 107 -63 107 -63 68 -63 c 0,79,80
 14 -63 14 -63 -16 -33.5 c 128,-1,81
 -46 -4 -46 -4 -46 41 c 0,82,83
 -46 62 -46 62 -32.5 81.5 c 128,-1,84
 -19 101 -19 101 6 101 c 0,85,86
 28 101 28 101 45.5 82 c 128,-1,87
 63 63 63 63 63 37 c 0,88,89
 63 26 63 26 60 12 c 128,-1,90
 57 -2 57 -2 50 -13 c 1,91,92
 53 -15 53 -15 58 -15.5 c 128,-1,93
 63 -16 63 -16 68 -16 c 0,94,95
 102 -16 102 -16 142.5 10 c 128,-1,96
 183 36 183 36 228 81 c 128,-1,97
 273 126 273 126 322.5 186 c 128,-1,98
 372 246 372 246 425 315 c 1,99,-1
 425 319 l 1,0,1
EndSplineSet
EndChar

StartChar: y
Encoding: 121 121 49
Width: 887
Flags: W
LayerCount: 2
Fore
SplineSet
443 223 m 1,0,1
 404 180 404 180 364 143.5 c 128,-1,2
 324 107 324 107 285 80 c 128,-1,3
 246 53 246 53 208.5 37.5 c 128,-1,4
 171 22 171 22 136 22 c 0,5,6
 97 22 97 22 65.5 36.5 c 128,-1,7
 34 51 34 51 11.5 78 c 128,-1,8
 -11 105 -11 105 -23 142 c 128,-1,9
 -35 179 -35 179 -35 224 c 0,10,11
 -35 284 -35 284 -10 349 c 128,-1,12
 15 414 15 414 54.5 475.5 c 128,-1,13
 94 537 94 537 142.5 592 c 128,-1,14
 191 647 191 647 237 687 c 1,15,-1
 280 657 l 1,16,17
 268 640 268 640 247 610 c 128,-1,18
 226 580 226 580 202 540.5 c 128,-1,19
 178 501 178 501 153.5 455 c 128,-1,20
 129 409 129 409 109 361 c 128,-1,21
 89 313 89 313 76.5 265 c 128,-1,22
 64 217 64 217 64 175 c 0,23,24
 64 155 64 155 67.5 136.5 c 128,-1,25
 71 118 71 118 79.5 104 c 128,-1,26
 88 90 88 90 102 82 c 128,-1,27
 116 74 116 74 138 74 c 0,28,29
 173 74 173 74 214.5 95.5 c 128,-1,30
 256 117 256 117 300.5 154.5 c 128,-1,31
 345 192 345 192 391.5 242 c 128,-1,32
 438 292 438 292 483 349 c 128,-1,33
 528 406 528 406 570 466.5 c 128,-1,34
 612 527 612 527 648 586 c 0,35,36
 680 639 680 639 712 692.5 c 128,-1,37
 744 746 744 746 776 797 c 1,38,-1
 823 773 l 1,39,40
 822 771 822 771 804.5 735.5 c 128,-1,41
 787 700 787 700 758 639.5 c 128,-1,42
 729 579 729 579 690.5 499.5 c 128,-1,43
 652 420 652 420 609 330.5 c 128,-1,44
 566 241 566 241 521.5 147 c 128,-1,45
 477 53 477 53 435 -36 c 1,46,47
 576 42 576 42 690.5 149 c 128,-1,48
 805 256 805 256 887 373 c 1,49,-1
 924 345 l 1,50,51
 837 212 837 212 708 99.5 c 128,-1,52
 579 -13 579 -13 397 -116 c 1,53,54
 314 -294 314 -294 234.5 -441 c 128,-1,55
 155 -588 155 -588 75.5 -693 c 128,-1,56
 -4 -798 -4 -798 -83.5 -855.5 c 128,-1,57
 -163 -913 -163 -913 -245 -913 c 0,58,59
 -299 -913 -299 -913 -335 -877 c 128,-1,60
 -371 -841 -371 -841 -371 -774 c 0,61,62
 -371 -718 -371 -718 -346 -659 c 128,-1,63
 -321 -600 -321 -600 -277 -540.5 c 128,-1,64
 -233 -481 -233 -481 -172.5 -422.5 c 128,-1,65
 -112 -364 -112 -364 -40.5 -310 c 128,-1,66
 31 -256 31 -256 109.5 -207 c 128,-1,67
 188 -158 188 -158 269 -117 c 1,68,69
 290 -73 290 -73 314 -24.5 c 128,-1,70
 338 24 338 24 361 69.5 c 128,-1,71
 384 115 384 115 405.5 155.5 c 128,-1,72
 427 196 427 196 443 223 c 1,0,1
223 -214 m 1,73,74
 108 -285 108 -285 9.5 -365.5 c 128,-1,75
 -89 -446 -89 -446 -161.5 -524.5 c 128,-1,76
 -234 -603 -234 -603 -275 -672 c 128,-1,77
 -316 -741 -316 -741 -316 -789 c 0,78,79
 -316 -821 -316 -821 -297.5 -840 c 128,-1,80
 -279 -859 -279 -859 -250 -859 c 0,81,82
 -211 -859 -211 -859 -169.5 -832.5 c 128,-1,83
 -128 -806 -128 -806 -86.5 -760 c 128,-1,84
 -45 -714 -45 -714 -4 -651.5 c 128,-1,85
 37 -589 37 -589 76.5 -517.5 c 128,-1,86
 116 -446 116 -446 153 -368.5 c 128,-1,87
 190 -291 190 -291 223 -214 c 1,73,74
EndSplineSet
EndChar

StartChar: z
Encoding: 122 122 50
Width: 760
Flags: W
LayerCount: 2
Fore
SplineSet
278 22 m 1,0,1
 284 11 284 11 296 -12.5 c 128,-1,2
 308 -36 308 -36 314 -68 c 1,3,4
 376 -29 376 -29 435.5 15.5 c 128,-1,5
 495 60 495 60 551 113.5 c 128,-1,6
 607 167 607 167 659.5 231 c 128,-1,7
 712 295 712 295 760 373 c 1,8,-1
 796 345 l 1,9,10
 745 261 745 261 690 193.5 c 128,-1,11
 635 126 635 126 575.5 70 c 128,-1,12
 516 14 516 14 451.5 -33.5 c 128,-1,13
 387 -81 387 -81 317 -124 c 1,14,15
 313 -217 313 -217 276 -311.5 c 128,-1,16
 239 -406 239 -406 181.5 -494 c 128,-1,17
 124 -582 124 -582 51.5 -658.5 c 128,-1,18
 -21 -735 -21 -735 -95.5 -792 c 128,-1,19
 -170 -849 -170 -849 -240.5 -882 c 128,-1,20
 -311 -915 -311 -915 -365 -915 c 0,21,22
 -404 -915 -404 -915 -430.5 -901.5 c 128,-1,23
 -457 -888 -457 -888 -473 -867 c 128,-1,24
 -489 -846 -489 -846 -496 -821 c 128,-1,25
 -503 -796 -503 -796 -503 -773 c 0,26,27
 -503 -715 -503 -715 -467 -648.5 c 128,-1,28
 -431 -582 -431 -582 -360.5 -510.5 c 128,-1,29
 -290 -439 -290 -439 -186 -365 c 128,-1,30
 -82 -291 -82 -291 53 -218 c 0,31,32
 100 -192 100 -192 146 -167 c 128,-1,33
 192 -142 192 -142 238 -115 c 1,34,35
 238 -110 238 -110 238.5 -104.5 c 128,-1,36
 239 -99 239 -99 239 -94 c 0,37,38
 239 -64 239 -64 234.5 -42.5 c 128,-1,39
 230 -21 230 -21 222 -6 c 1,40,41
 167 -28 167 -28 129 -28 c 0,42,43
 92 -28 92 -28 67 -10.5 c 128,-1,44
 42 7 42 7 42 37 c 0,45,46
 42 69 42 69 70 86.5 c 128,-1,47
 98 104 98 104 137 104 c 0,48,49
 189 104 189 104 234 70 c 1,50,51
 280 106 280 106 323 162.5 c 128,-1,52
 366 219 366 219 399 284.5 c 128,-1,53
 432 350 432 350 452 418.5 c 128,-1,54
 472 487 472 487 472 547 c 0,55,56
 472 580 472 580 463.5 603 c 128,-1,57
 455 626 455 626 441 640.5 c 128,-1,58
 427 655 427 655 409 662 c 128,-1,59
 391 669 391 669 371 669 c 0,60,61
 330 669 330 669 292.5 649 c 128,-1,62
 255 629 255 629 222 597.5 c 128,-1,63
 189 566 189 566 160.5 528 c 128,-1,64
 132 490 132 490 108.5 454 c 128,-1,65
 85 418 85 418 67 388.5 c 128,-1,66
 49 359 49 359 37 345 c 1,67,-1
 0 373 l 1,68,69
 12 389 12 389 30.5 420.5 c 128,-1,70
 49 452 49 452 74 491 c 128,-1,71
 99 530 99 530 130 571 c 128,-1,72
 161 612 161 612 198 645.5 c 128,-1,73
 235 679 235 679 278.5 700.5 c 128,-1,74
 322 722 322 722 371 722 c 0,75,76
 418 722 418 722 455.5 706.5 c 128,-1,77
 493 691 493 691 519.5 663.5 c 128,-1,78
 546 636 546 636 560.5 597 c 128,-1,79
 575 558 575 558 575 510 c 0,80,81
 575 440 575 440 551 369 c 128,-1,82
 527 298 527 298 486.5 233.5 c 128,-1,83
 446 169 446 169 392 114.5 c 128,-1,84
 338 60 338 60 278 22 c 1,0,1
24 -524 m 0,85,86
 55 -485 55 -485 86 -442 c 128,-1,87
 117 -399 117 -399 144 -354.5 c 128,-1,88
 171 -310 171 -310 192.5 -265.5 c 128,-1,89
 214 -221 214 -221 226 -179 c 1,90,-1
 79 -262 l 1,91,92
 -49 -333 -49 -333 -138.5 -395.5 c 128,-1,93
 -228 -458 -228 -458 -286.5 -511.5 c 128,-1,94
 -345 -565 -345 -565 -378 -608 c 128,-1,95
 -411 -651 -411 -651 -427.5 -684 c 128,-1,96
 -444 -717 -444 -717 -447.5 -738.5 c 128,-1,97
 -451 -760 -451 -760 -451 -770 c 0,98,99
 -451 -784 -451 -784 -448 -798.5 c 128,-1,100
 -445 -813 -445 -813 -436.5 -824 c 128,-1,101
 -428 -835 -428 -835 -414 -842 c 128,-1,102
 -400 -849 -400 -849 -377 -849 c 0,103,104
 -352 -849 -352 -849 -315.5 -835 c 128,-1,105
 -279 -821 -279 -821 -230 -784.5 c 128,-1,106
 -181 -748 -181 -748 -118 -685 c 128,-1,107
 -55 -622 -55 -622 24 -524 c 0,85,86
193 40 m 1,108,109
 179 49 179 49 163 53.5 c 128,-1,110
 147 58 147 58 136 58 c 0,111,112
 93 58 93 58 93 39 c 256,113,114
 93 20 93 20 130 20 c 0,115,116
 140 20 140 20 159 24.5 c 128,-1,117
 178 29 178 29 193 40 c 1,108,109
EndSplineSet
EndChar

StartChar: fi
Encoding: 64257 64257 51
Width: 906
Flags: W
LayerCount: 2
Fore
SplineSet
796 665 m 1,0,1
 782 639 782 639 759 596.5 c 128,-1,2
 736 554 736 554 709 503.5 c 128,-1,3
 682 453 682 453 654 397.5 c 128,-1,4
 626 342 626 342 604 289.5 c 128,-1,5
 582 237 582 237 567.5 191 c 128,-1,6
 553 145 553 145 553 113 c 0,7,8
 553 84 553 84 565 73.5 c 128,-1,9
 577 63 577 63 599 63 c 0,10,11
 640 63 640 63 679 90 c 128,-1,12
 718 117 718 117 756.5 160.5 c 128,-1,13
 795 204 795 204 832 260 c 128,-1,14
 869 316 869 316 906 373 c 1,15,-1
 942 345 l 1,16,17
 913 293 913 293 876.5 234 c 128,-1,18
 840 175 840 175 795 124.5 c 128,-1,19
 750 74 750 74 696 41 c 128,-1,20
 642 8 642 8 578 8 c 0,21,22
 518 8 518 8 486 44 c 128,-1,23
 454 80 454 80 454 137 c 0,24,25
 454 150 454 150 455.5 163 c 128,-1,26
 457 176 457 176 459 190 c 1,27,28
 426 152 426 152 386.5 117 c 128,-1,29
 347 82 347 82 301 54.5 c 128,-1,30
 255 27 255 27 204 10.5 c 128,-1,31
 153 -6 153 -6 97 -6 c 0,32,33
 69 -6 69 -6 42.5 0.5 c 128,-1,34
 16 7 16 7 -9 21 c 1,35,36
 -42 -60 -42 -60 -73.5 -138 c 128,-1,37
 -105 -216 -105 -216 -133.5 -286 c 128,-1,38
 -162 -356 -162 -356 -186 -415 c 128,-1,39
 -210 -474 -210 -474 -228 -517.5 c 128,-1,40
 -246 -561 -246 -561 -256 -586.5 c 128,-1,41
 -266 -612 -266 -612 -267 -613 c 1,42,-1
 -372 -561 l 1,43,44
 -321 -441 -321 -441 -280.5 -341 c 128,-1,45
 -240 -241 -240 -241 -205.5 -154 c 128,-1,46
 -171 -67 -171 -67 -140.5 9.5 c 128,-1,47
 -110 86 -110 86 -79 158 c 1,48,49
 -95 181 -95 181 -102.5 203 c 128,-1,50
 -110 225 -110 225 -112 239 c 0,51,52
 -114 262 -114 262 -99.5 277.5 c 128,-1,53
 -85 293 -85 293 -62 293 c 0,54,55
 -43 293 -43 293 -27 280 c 1,56,57
 3 352 3 352 26.5 406.5 c 128,-1,58
 50 461 50 461 66 498 c 0,59,60
 84 541 84 541 98 573 c 0,61,62
 185 778 185 778 259.5 927.5 c 128,-1,63
 334 1077 334 1077 397 1181.5 c 128,-1,64
 460 1286 460 1286 512 1350.5 c 128,-1,65
 564 1415 564 1415 606.5 1451 c 128,-1,66
 649 1487 649 1487 683 1499.5 c 128,-1,67
 717 1512 717 1512 744 1512 c 0,68,69
 788 1512 788 1512 818.5 1492.5 c 128,-1,70
 849 1473 849 1473 853 1426 c 0,71,72
 857 1380 857 1380 836.5 1310 c 128,-1,73
 816 1240 816 1240 780.5 1161.5 c 128,-1,74
 745 1083 745 1083 698 1003 c 128,-1,75
 651 923 651 923 602 856 c 0,76,77
 509 730 509 730 433.5 647 c 128,-1,78
 358 564 358 564 301 513 c 128,-1,79
 244 462 244 462 206 437.5 c 128,-1,80
 168 413 168 413 150 404 c 1,81,-1
 11 71 l 1,82,83
 43 46 43 46 96 46 c 0,84,85
 178 46 178 46 246.5 81.5 c 128,-1,86
 315 117 315 117 369 167 c 128,-1,87
 423 217 423 217 462.5 270.5 c 128,-1,88
 502 324 502 324 525 360 c 1,89,90
 550 404 550 404 580 447 c 128,-1,91
 610 490 610 490 641.5 530.5 c 128,-1,92
 673 571 673 571 704.5 608.5 c 128,-1,93
 736 646 736 646 764 679 c 1,94,-1
 796 665 l 1,0,1
791 1411 m 0,95,96
 790 1428 790 1428 783.5 1440.5 c 128,-1,97
 777 1453 777 1453 757 1453 c 0,98,99
 745 1453 745 1453 726 1447.5 c 128,-1,100
 707 1442 707 1442 681.5 1424 c 128,-1,101
 656 1406 656 1406 624 1371 c 128,-1,102
 592 1336 592 1336 552.5 1277 c 128,-1,103
 513 1218 513 1218 466.5 1131 c 128,-1,104
 420 1044 420 1044 367 921 c 1,105,106
 332 843 332 843 286 731.5 c 128,-1,107
 240 620 240 620 185 490 c 1,108,109
 232 523 232 523 283.5 572.5 c 128,-1,110
 335 622 335 622 387.5 681.5 c 128,-1,111
 440 741 440 741 491 808 c 128,-1,112
 542 875 542 875 588 944 c 128,-1,113
 634 1013 634 1013 672.5 1081 c 128,-1,114
 711 1149 711 1149 738.5 1210.5 c 128,-1,115
 766 1272 766 1272 780 1323.5 c 128,-1,116
 794 1375 794 1375 791 1411 c 0,95,96
983 887 m 0,117,118
 983 867 983 867 973 845.5 c 128,-1,119
 963 824 963 824 947.5 807 c 128,-1,120
 932 790 932 790 913 779 c 128,-1,121
 894 768 894 768 875 768 c 0,122,123
 858 768 858 768 849 780.5 c 128,-1,124
 840 793 840 793 840 811 c 0,125,126
 840 827 840 827 846 849 c 128,-1,127
 852 871 852 871 864 890.5 c 128,-1,128
 876 910 876 910 893 924 c 128,-1,129
 910 938 910 938 932 938 c 0,130,131
 953 938 953 938 968 922 c 128,-1,132
 983 906 983 906 983 887 c 0,117,118
EndSplineSet
Ligature2: "'liga' Standard Ligatures in Latin lookup 2 subtable" f i
EndChar

StartChar: fl
Encoding: 64258 64258 52
Width: 1096
Flags: W
LayerCount: 2
Fore
SplineSet
1258 1455 m 0,0,1
 1293 1455 1293 1455 1316.5 1438 c 128,-1,2
 1340 1421 1340 1421 1340 1376 c 0,3,4
 1340 1345 1340 1345 1327.5 1302 c 128,-1,5
 1315 1259 1315 1259 1293.5 1208.5 c 128,-1,6
 1272 1158 1272 1158 1243 1102.5 c 128,-1,7
 1214 1047 1214 1047 1180.5 992 c 128,-1,8
 1147 937 1147 937 1110.5 885 c 128,-1,9
 1074 833 1074 833 1038 789 c 0,10,11
 966 700 966 700 913.5 639 c 128,-1,12
 861 578 861 578 823 535.5 c 128,-1,13
 785 493 785 493 759 466.5 c 128,-1,14
 733 440 733 440 713 421 c 128,-1,15
 693 402 693 402 676 386.5 c 128,-1,16
 659 371 659 371 641 352 c 1,17,18
 633 314 633 314 633.5 279.5 c 128,-1,19
 634 245 634 245 634 216 c 0,20,21
 634 129 634 129 662 87 c 128,-1,22
 690 45 690 45 741 45 c 0,23,24
 775 45 775 45 809.5 62.5 c 128,-1,25
 844 80 844 80 878 108 c 128,-1,26
 912 136 912 136 944 171.5 c 128,-1,27
 976 207 976 207 1004.5 243.5 c 128,-1,28
 1033 280 1033 280 1056 314 c 128,-1,29
 1079 348 1079 348 1096 373 c 1,30,-1
 1133 345 l 1,31,32
 1131 341 1131 341 1114 313.5 c 128,-1,33
 1097 286 1097 286 1070 247 c 128,-1,34
 1043 208 1043 208 1006 163.5 c 128,-1,35
 969 119 969 119 926 81 c 128,-1,36
 883 43 883 43 835.5 18 c 128,-1,37
 788 -7 788 -7 739 -7 c 0,38,39
 700 -7 700 -7 663.5 7.5 c 128,-1,40
 627 22 627 22 598.5 52.5 c 128,-1,41
 570 83 570 83 552 130.5 c 128,-1,42
 534 178 534 178 531 244 c 1,43,44
 487 203 487 203 432 160.5 c 128,-1,45
 377 118 377 118 314.5 83.5 c 128,-1,46
 252 49 252 49 184 26.5 c 128,-1,47
 116 4 116 4 47 4 c 0,48,49
 32 4 32 4 17 5.5 c 128,-1,50
 2 7 2 7 -13 12 c 1,51,52
 -62 -108 -62 -108 -107 -220 c 128,-1,53
 -152 -332 -152 -332 -187.5 -418.5 c 128,-1,54
 -223 -505 -223 -505 -244.5 -558 c 128,-1,55
 -266 -611 -266 -611 -267 -613 c 1,56,-1
 -372 -561 l 1,57,58
 -321 -441 -321 -441 -280.5 -341 c 128,-1,59
 -240 -241 -240 -241 -205.5 -154 c 128,-1,60
 -171 -67 -171 -67 -140.5 9.5 c 128,-1,61
 -110 86 -110 86 -79 158 c 1,62,63
 -95 181 -95 181 -102.5 203 c 128,-1,64
 -110 225 -110 225 -112 239 c 0,65,66
 -114 262 -114 262 -99.5 277.5 c 128,-1,67
 -85 293 -85 293 -62 293 c 0,68,69
 -43 293 -43 293 -27 280 c 1,70,71
 3 352 3 352 26.5 406.5 c 128,-1,72
 50 461 50 461 66 498 c 0,73,74
 84 541 84 541 98 573 c 0,75,76
 185 778 185 778 259.5 927.5 c 128,-1,77
 334 1077 334 1077 397 1181.5 c 128,-1,78
 460 1286 460 1286 512 1350.5 c 128,-1,79
 564 1415 564 1415 606.5 1451 c 128,-1,80
 649 1487 649 1487 683 1499.5 c 128,-1,81
 717 1512 717 1512 744 1512 c 0,82,83
 788 1512 788 1512 818.5 1492.5 c 128,-1,84
 849 1473 849 1473 853 1426 c 0,85,86
 857 1380 857 1380 836.5 1310 c 128,-1,87
 816 1240 816 1240 780.5 1161.5 c 128,-1,88
 745 1083 745 1083 698 1003 c 128,-1,89
 651 923 651 923 602 856 c 0,90,91
 509 730 509 730 433.5 647 c 128,-1,92
 358 564 358 564 301 513 c 128,-1,93
 244 462 244 462 206 437.5 c 128,-1,94
 168 413 168 413 150 404 c 1,95,-1
 7 60 l 1,96,97
 23 56 23 56 46 56 c 0,98,99
 115 56 115 56 184.5 82 c 128,-1,100
 254 108 254 108 317.5 147 c 128,-1,101
 381 186 381 186 436 231.5 c 128,-1,102
 491 277 491 277 532 316 c 1,103,104
 540 437 540 437 580.5 568 c 128,-1,105
 621 699 621 699 682 826 c 128,-1,106
 743 953 743 953 819 1067 c 128,-1,107
 895 1181 895 1181 973.5 1267 c 128,-1,108
 1052 1353 1052 1353 1126 1404 c 128,-1,109
 1200 1455 1200 1455 1258 1455 c 0,0,1
791 1411 m 0,110,111
 790 1428 790 1428 783.5 1440.5 c 128,-1,112
 777 1453 777 1453 757 1453 c 0,113,114
 745 1453 745 1453 726 1447.5 c 128,-1,115
 707 1442 707 1442 681.5 1424 c 128,-1,116
 656 1406 656 1406 624 1371 c 128,-1,117
 592 1336 592 1336 552.5 1277 c 128,-1,118
 513 1218 513 1218 466.5 1131 c 128,-1,119
 420 1044 420 1044 367 921 c 1,120,121
 332 843 332 843 286 731.5 c 128,-1,122
 240 620 240 620 185 490 c 1,123,124
 232 523 232 523 283.5 572.5 c 128,-1,125
 335 622 335 622 387.5 681.5 c 128,-1,126
 440 741 440 741 491 808 c 128,-1,127
 542 875 542 875 588 944 c 128,-1,128
 634 1013 634 1013 672.5 1081 c 128,-1,129
 711 1149 711 1149 738.5 1210.5 c 128,-1,130
 766 1272 766 1272 780 1323.5 c 128,-1,131
 794 1375 794 1375 791 1411 c 0,110,111
659 441 m 1,132,133
 744 529 744 529 823.5 619.5 c 128,-1,134
 903 710 903 710 972.5 798.5 c 128,-1,135
 1042 887 1042 887 1100 970.5 c 128,-1,136
 1158 1054 1158 1054 1199 1128 c 128,-1,137
 1240 1202 1240 1202 1263 1263 c 128,-1,138
 1286 1324 1286 1324 1286 1368 c 0,139,140
 1286 1376 1286 1376 1278 1389.5 c 128,-1,141
 1270 1403 1270 1403 1259 1403 c 0,142,143
 1227 1403 1227 1403 1176.5 1362 c 128,-1,144
 1126 1321 1126 1321 1066.5 1250.5 c 128,-1,145
 1007 1180 1007 1180 944 1086 c 128,-1,146
 881 992 881 992 824.5 885 c 128,-1,147
 768 778 768 778 724 664 c 128,-1,148
 680 550 680 550 659 441 c 1,132,133
EndSplineSet
Ligature2: "'liga' Standard Ligatures in Latin lookup 2 subtable" f l
EndChar

StartChar: germandbls
Encoding: 223 223 53
Width: 792
Flags: W
LayerCount: 2
Fore
SplineSet
191 490 m 1,0,1
 164 423 164 423 130 340 c 128,-1,2
 96 257 96 257 59 167.5 c 128,-1,3
 22 78 22 78 -15.5 -14.5 c 128,-1,4
 -53 -107 -53 -107 -88.5 -193.5 c 128,-1,5
 -124 -280 -124 -280 -155 -356 c 128,-1,6
 -186 -432 -186 -432 -209.5 -488.5 c 128,-1,7
 -233 -545 -233 -545 -246.5 -578.5 c 128,-1,8
 -260 -612 -260 -612 -261 -613 c 1,9,-1
 -366 -561 l 1,10,11
 -299 -397 -299 -397 -239.5 -254.5 c 128,-1,12
 -180 -112 -180 -112 -124 23 c 128,-1,13
 -68 158 -68 158 -12 292 c 128,-1,14
 44 426 44 426 104 573 c 0,15,16
 189 779 189 779 263 929 c 128,-1,17
 337 1079 337 1079 400.5 1183 c 128,-1,18
 464 1287 464 1287 517.5 1351.5 c 128,-1,19
 571 1416 571 1416 615 1451.5 c 128,-1,20
 659 1487 659 1487 694 1499.5 c 128,-1,21
 729 1512 729 1512 756 1512 c 0,22,23
 780 1512 780 1512 802.5 1505.5 c 128,-1,24
 825 1499 825 1499 842 1483.5 c 128,-1,25
 859 1468 859 1468 869 1442.5 c 128,-1,26
 879 1417 879 1417 879 1379 c 0,27,28
 879 1289 879 1289 851.5 1215.5 c 128,-1,29
 824 1142 824 1142 783 1081 c 128,-1,30
 742 1020 742 1020 694.5 969 c 128,-1,31
 647 918 647 918 606 872.5 c 128,-1,32
 565 827 565 827 537.5 784 c 128,-1,33
 510 741 510 741 510 697 c 0,34,35
 510 676 510 676 519.5 635.5 c 128,-1,36
 529 595 529 595 541 543 c 128,-1,37
 553 491 553 491 562.5 431.5 c 128,-1,38
 572 372 572 372 572 314 c 0,39,40
 572 229 572 229 549 164 c 128,-1,41
 526 99 526 99 488 53 c 1,42,43
 566 95 566 95 641 173.5 c 128,-1,44
 716 252 716 252 792 373 c 1,45,-1
 826 343 l 1,46,47
 783 272 783 272 728.5 202 c 128,-1,48
 674 132 674 132 608 76 c 128,-1,49
 542 20 542 20 465.5 -14.5 c 128,-1,50
 389 -49 389 -49 301 -49 c 0,51,52
 268 -49 268 -49 238 -39.5 c 128,-1,53
 208 -30 208 -30 183.5 -12 c 128,-1,54
 159 6 159 6 142.5 33 c 128,-1,55
 126 60 126 60 120 95 c 1,56,-1
 156 102 l 1,57,58
 156 96 156 96 161.5 82.5 c 128,-1,59
 167 69 167 69 179 56 c 128,-1,60
 191 43 191 43 211.5 33 c 128,-1,61
 232 23 232 23 262 23 c 0,62,63
 302 23 302 23 333.5 41.5 c 128,-1,64
 365 60 365 60 388.5 90 c 128,-1,65
 412 120 412 120 428.5 158.5 c 128,-1,66
 445 197 445 197 455 238 c 128,-1,67
 465 279 465 279 469.5 318 c 128,-1,68
 474 357 474 357 474 389 c 0,69,70
 474 438 474 438 470 483 c 128,-1,71
 466 528 466 528 461.5 568.5 c 128,-1,72
 457 609 457 609 453 645 c 128,-1,73
 449 681 449 681 449 711 c 0,74,75
 449 746 449 746 475 792.5 c 128,-1,76
 501 839 501 839 539.5 894 c 128,-1,77
 578 949 578 949 623 1010.5 c 128,-1,78
 668 1072 668 1072 706.5 1137.5 c 128,-1,79
 745 1203 745 1203 771 1270.5 c 128,-1,80
 797 1338 797 1338 797 1405 c 0,81,82
 797 1422 797 1422 790 1437.5 c 128,-1,83
 783 1453 783 1453 763 1453 c 0,84,85
 751 1453 751 1453 732 1447.5 c 128,-1,86
 713 1442 713 1442 687.5 1424 c 128,-1,87
 662 1406 662 1406 630 1371 c 128,-1,88
 598 1336 598 1336 558.5 1277 c 128,-1,89
 519 1218 519 1218 472.5 1131 c 128,-1,90
 426 1044 426 1044 373 921 c 1,91,92
 338 843 338 843 292 731.5 c 128,-1,93
 246 620 246 620 191 490 c 1,0,1
EndSplineSet
EndChar

StartChar: AE
Encoding: 198 198 66
Width: 3237
Flags: W
LayerCount: 2
Fore
SplineSet
2872 933 m 1,0,1
 2875 932 2875 932 2880 932 c 2,2,-1
 2904 932 l 2,3,4
 2982 932 2982 932 3061 953 c 128,-1,5
 3140 974 3140 974 3204 1011.5 c 128,-1,6
 3268 1049 3268 1049 3308 1101.5 c 128,-1,7
 3348 1154 3348 1154 3348 1217 c 0,8,9
 3348 1251 3348 1251 3333 1277.5 c 128,-1,10
 3318 1304 3318 1304 3291.5 1322 c 128,-1,11
 3265 1340 3265 1340 3227.5 1349.5 c 128,-1,12
 3190 1359 3190 1359 3145 1359 c 0,13,14
 3066 1359 3066 1359 2991 1339 c 128,-1,15
 2916 1319 2916 1319 2850 1284.5 c 128,-1,16
 2784 1250 2784 1250 2729 1203.5 c 128,-1,17
 2674 1157 2674 1157 2634 1102.5 c 128,-1,18
 2594 1048 2594 1048 2572 989 c 128,-1,19
 2550 930 2550 930 2550 871 c 256,20,21
 2550 812 2550 812 2572 759 c 1,22,23
 2641 757 2641 757 2701 749 c 128,-1,24
 2761 741 2761 741 2805 724.5 c 128,-1,25
 2849 708 2849 708 2874 682 c 128,-1,26
 2899 656 2899 656 2899 619 c 0,27,28
 2899 579 2899 579 2869 558 c 128,-1,29
 2839 537 2839 537 2794 537 c 0,30,31
 2758 537 2758 537 2720 549 c 128,-1,32
 2682 561 2682 561 2646.5 582.5 c 128,-1,33
 2611 604 2611 604 2578.5 634.5 c 128,-1,34
 2546 665 2546 665 2520 702 c 1,35,36
 2409 693 2409 693 2314.5 650.5 c 128,-1,37
 2220 608 2220 608 2151.5 540.5 c 128,-1,38
 2083 473 2083 473 2044 385.5 c 128,-1,39
 2005 298 2005 298 2005 201 c 0,40,41
 2005 122 2005 122 2031.5 58.5 c 128,-1,42
 2058 -5 2058 -5 2110.5 -50 c 128,-1,43
 2163 -95 2163 -95 2241.5 -119 c 128,-1,44
 2320 -143 2320 -143 2423 -143 c 0,45,46
 2537 -143 2537 -143 2639.5 -108.5 c 128,-1,47
 2742 -74 2742 -74 2829 -21 c 128,-1,48
 2916 32 2916 32 2987 95.5 c 128,-1,49
 3058 159 3058 159 3110.5 216 c 128,-1,50
 3163 273 3163 273 3195 316.5 c 128,-1,51
 3227 360 3227 360 3237 373 c 1,52,-1
 3273 345 l 1,53,54
 3250 312 3250 312 3211 258.5 c 128,-1,55
 3172 205 3172 205 3116.5 145 c 128,-1,56
 3061 85 3061 85 2988.5 24.5 c 128,-1,57
 2916 -36 2916 -36 2826.5 -85 c 128,-1,58
 2737 -134 2737 -134 2631 -164.5 c 128,-1,59
 2525 -195 2525 -195 2402 -195 c 0,60,61
 2293 -195 2293 -195 2207.5 -172.5 c 128,-1,62
 2122 -150 2122 -150 2060 -110 c 128,-1,63
 1998 -70 1998 -70 1957.5 -16.5 c 128,-1,64
 1917 37 1917 37 1898 100 c 1,65,66
 1868 30 1868 30 1851.5 -9.5 c 128,-1,67
 1835 -49 1835 -49 1835 -51 c 1,68,-1
 1716 -14 l 1,69,-1
 1776 123 l 1,70,71
 1709 138 1709 138 1635 158 c 128,-1,72
 1561 178 1561 178 1484.5 203.5 c 128,-1,73
 1408 229 1408 229 1332 261 c 128,-1,74
 1256 293 1256 293 1186 331 c 1,75,76
 1121 256 1121 256 1045 183.5 c 128,-1,77
 969 111 969 111 882 53.5 c 128,-1,78
 795 -4 795 -4 697.5 -39.5 c 128,-1,79
 600 -75 600 -75 492 -75 c 0,80,81
 396 -75 396 -75 300.5 -46.5 c 128,-1,82
 205 -18 205 -18 129.5 36.5 c 128,-1,83
 54 91 54 91 7 169.5 c 128,-1,84
 -40 248 -40 248 -40 348 c 0,85,86
 -40 427 -40 427 -10.5 487 c 128,-1,87
 19 547 19 547 70.5 587 c 128,-1,88
 122 627 122 627 191.5 647.5 c 128,-1,89
 261 668 261 668 341 668 c 0,90,91
 402 668 402 668 467.5 656 c 128,-1,92
 533 644 533 644 595 616 c 128,-1,93
 657 588 657 588 712 542 c 128,-1,94
 767 496 767 496 806 428 c 1,95,-1
 762 400 l 1,96,97
 761 402 761 402 750.5 415.5 c 128,-1,98
 740 429 740 429 719.5 448.5 c 128,-1,99
 699 468 699 468 667 490 c 128,-1,100
 635 512 635 512 590.5 530.5 c 128,-1,101
 546 549 546 549 487.5 561.5 c 128,-1,102
 429 574 429 574 355 574 c 0,103,104
 280 574 280 574 224 548.5 c 128,-1,105
 168 523 168 523 130.5 483.5 c 128,-1,106
 93 444 93 444 74.5 395 c 128,-1,107
 56 346 56 346 56 300 c 0,108,109
 56 246 56 246 75 201.5 c 128,-1,110
 94 157 94 157 126.5 121 c 128,-1,111
 159 85 159 85 202.5 58.5 c 128,-1,112
 246 32 246 32 294.5 14 c 128,-1,113
 343 -4 343 -4 393.5 -13 c 128,-1,114
 444 -22 444 -22 492 -22 c 0,115,116
 591 -22 591 -22 682 10.5 c 128,-1,117
 773 43 773 43 854 96.5 c 128,-1,118
 935 150 935 150 1006.5 218 c 128,-1,119
 1078 286 1078 286 1139 357 c 1,120,121
 1071 398 1071 398 1013.5 445.5 c 128,-1,122
 956 493 956 493 914 547.5 c 128,-1,123
 872 602 872 602 848.5 664.5 c 128,-1,124
 825 727 825 727 825 797 c 0,125,126
 825 855 825 855 846.5 906 c 128,-1,127
 868 957 868 957 905.5 995.5 c 128,-1,128
 943 1034 943 1034 994.5 1056.5 c 128,-1,129
 1046 1079 1046 1079 1105 1079 c 0,130,131
 1171 1079 1171 1079 1230 1058.5 c 128,-1,132
 1289 1038 1289 1038 1342 1002.5 c 128,-1,133
 1395 967 1395 967 1441.5 918 c 128,-1,134
 1488 869 1488 869 1529 812 c 1,135,136
 1641 937 1641 937 1752.5 1047.5 c 128,-1,137
 1864 1158 1864 1158 1967 1241 c 128,-1,138
 2070 1324 2070 1324 2161.5 1372.5 c 128,-1,139
 2253 1421 2253 1421 2327 1421 c 0,140,141
 2356 1421 2356 1421 2383.5 1411.5 c 128,-1,142
 2411 1402 2411 1402 2432.5 1384.5 c 128,-1,143
 2454 1367 2454 1367 2467 1341.5 c 128,-1,144
 2480 1316 2480 1316 2480 1284 c 0,145,146
 2480 1222 2480 1222 2440 1143 c 128,-1,147
 2400 1064 2400 1064 2336 958 c 0,148,149
 2294 889 2294 889 2255.5 821.5 c 128,-1,150
 2217 754 2217 754 2182 688 c 1,151,152
 2244 718 2244 718 2319.5 736 c 128,-1,153
 2395 754 2395 754 2486 759 c 1,154,155
 2468 795 2468 795 2458 834.5 c 128,-1,156
 2448 874 2448 874 2448 916 c 0,157,158
 2448 993 2448 993 2474 1061.5 c 128,-1,159
 2500 1130 2500 1130 2545.5 1187.5 c 128,-1,160
 2591 1245 2591 1245 2652.5 1290 c 128,-1,161
 2714 1335 2714 1335 2784 1366.5 c 128,-1,162
 2854 1398 2854 1398 2929.5 1414.5 c 128,-1,163
 3005 1431 3005 1431 3079 1431 c 0,164,165
 3155 1431 3155 1431 3214.5 1415.5 c 128,-1,166
 3274 1400 3274 1400 3315 1372 c 128,-1,167
 3356 1344 3356 1344 3378 1304.5 c 128,-1,168
 3400 1265 3400 1265 3400 1218 c 0,169,170
 3400 1166 3400 1166 3378.5 1120 c 128,-1,171
 3357 1074 3357 1074 3320.5 1036.5 c 128,-1,172
 3284 999 3284 999 3235.5 969.5 c 128,-1,173
 3187 940 3187 940 3132.5 920 c 128,-1,174
 3078 900 3078 900 3020 889.5 c 128,-1,175
 2962 879 2962 879 2908 879 c 0,176,177
 2890 879 2890 879 2879 880 c 128,-1,178
 2868 881 2868 881 2866 881 c 1,179,-1
 2872 933 l 1,0,1
1560 766 m 1,180,181
 1607 694 1607 694 1646 617 c 128,-1,182
 1685 540 1685 540 1716.5 466 c 128,-1,183
 1748 392 1748 392 1772.5 325.5 c 128,-1,184
 1797 259 1797 259 1815 208 c 1,185,186
 1932 463 1932 463 2065 708 c 128,-1,187
 2198 953 2198 953 2364 1192 c 0,188,189
 2391 1232 2391 1232 2402.5 1258.5 c 128,-1,190
 2414 1285 2414 1285 2414 1304 c 0,191,192
 2414 1336 2414 1336 2387 1352.5 c 128,-1,193
 2360 1369 2360 1369 2325 1369 c 0,194,195
 2214 1369 2214 1369 2022.5 1217.5 c 128,-1,196
 1831 1066 1831 1066 1560 766 c 1,180,181
916 749 m 0,197,198
 916 696 916 696 936 648.5 c 128,-1,199
 956 601 956 601 991 557.5 c 128,-1,200
 1026 514 1026 514 1074 475.5 c 128,-1,201
 1122 437 1122 437 1178 403 c 1,202,203
 1253 494 1253 494 1331 586 c 128,-1,204
 1409 678 1409 678 1489 768 c 1,205,206
 1454 814 1454 814 1416.5 853.5 c 128,-1,207
 1379 893 1379 893 1338 922 c 128,-1,208
 1297 951 1297 951 1253 967 c 128,-1,209
 1209 983 1209 983 1162 983 c 0,210,211
 1109 983 1109 983 1064 965 c 128,-1,212
 1019 947 1019 947 986 915.5 c 128,-1,213
 953 884 953 884 934.5 841.5 c 128,-1,214
 916 799 916 799 916 749 c 0,197,198
1771 179 m 1,215,216
 1757 224 1757 224 1733.5 288 c 128,-1,217
 1710 352 1710 352 1678.5 425.5 c 128,-1,218
 1647 499 1647 499 1607.5 576 c 128,-1,219
 1568 653 1568 653 1521 723 c 1,220,221
 1452 645 1452 645 1378 559 c 128,-1,222
 1304 473 1304 473 1224 376 c 1,223,224
 1294 337 1294 337 1370.5 305.5 c 128,-1,225
 1447 274 1447 274 1519.5 249.5 c 128,-1,226
 1592 225 1592 225 1657.5 207 c 128,-1,227
 1723 189 1723 189 1771 179 c 1,215,216
2846 621 m 0,228,229
 2846 645 2846 645 2824.5 660.5 c 128,-1,230
 2803 676 2803 676 2768.5 685 c 128,-1,231
 2734 694 2734 694 2690.5 698.5 c 128,-1,232
 2647 703 2647 703 2602 704 c 1,233,234
 2621 676 2621 676 2644.5 654.5 c 128,-1,235
 2668 633 2668 633 2693 618 c 128,-1,236
 2718 603 2718 603 2743.5 595 c 128,-1,237
 2769 587 2769 587 2792 587 c 0,238,239
 2819 587 2819 587 2832.5 597 c 128,-1,240
 2846 607 2846 607 2846 621 c 0,228,229
EndSplineSet
EndChar

StartChar: ae
Encoding: 230 230 67
Width: 1251
Flags: W
LayerCount: 2
Fore
SplineSet
597 228 m 1,0,1
 595 216 595 216 594 204 c 128,-1,2
 593 192 593 192 593 180 c 0,3,4
 593 144 593 144 603.5 111.5 c 128,-1,5
 614 79 614 79 634.5 54.5 c 128,-1,6
 655 30 655 30 685.5 16 c 128,-1,7
 716 2 716 2 755 2 c 0,8,9
 886 2 886 2 1008 91 c 128,-1,10
 1130 180 1130 180 1251 373 c 1,11,-1
 1285 343 l 1,12,13
 1219 233 1219 233 1151 157.5 c 128,-1,14
 1083 82 1083 82 1015.5 35 c 128,-1,15
 948 -12 948 -12 883 -33 c 128,-1,16
 818 -54 818 -54 759 -54 c 0,17,18
 716 -54 716 -54 668 -42 c 128,-1,19
 620 -30 620 -30 579.5 -2 c 128,-1,20
 539 26 539 26 512.5 73 c 128,-1,21
 486 120 486 120 486 190 c 0,22,23
 486 198 486 198 486 205 c 128,-1,24
 486 212 486 212 487 220 c 1,25,26
 429 140 429 140 377 90 c 128,-1,27
 325 40 325 40 279 12 c 128,-1,28
 233 -16 233 -16 192 -26 c 128,-1,29
 151 -36 151 -36 115 -36 c 0,30,31
 77 -36 77 -36 43.5 -23.5 c 128,-1,32
 10 -11 10 -11 -15.5 13 c 128,-1,33
 -41 37 -41 37 -55.5 72 c 128,-1,34
 -70 107 -70 107 -70 153 c 0,35,36
 -70 210 -70 210 -44.5 283.5 c 128,-1,37
 -19 357 -19 357 46 442 c 0,38,39
 101 515 101 515 160.5 565 c 128,-1,40
 220 615 220 615 277.5 645.5 c 128,-1,41
 335 676 335 676 387 689 c 128,-1,42
 439 702 439 702 480 702 c 0,43,44
 526 702 526 702 558 695 c 128,-1,45
 590 688 590 688 612.5 674.5 c 128,-1,46
 635 661 635 661 648.5 642 c 128,-1,47
 662 623 662 623 670 599 c 1,48,49
 691 633 691 633 711.5 664 c 128,-1,50
 732 695 732 695 753 729 c 1,51,-1
 785 715 l 1,52,53
 778 697 778 697 769.5 678 c 128,-1,54
 761 659 761 659 750 638 c 1,55,56
 812 683 812 683 872 707.5 c 128,-1,57
 932 732 932 732 978 732 c 0,58,59
 1004 732 1004 732 1031 724 c 128,-1,60
 1058 716 1058 716 1079.5 699 c 128,-1,61
 1101 682 1101 682 1114.5 654 c 128,-1,62
 1128 626 1128 626 1128 587 c 0,63,64
 1128 534 1128 534 1103.5 487.5 c 128,-1,65
 1079 441 1079 441 1038 401.5 c 128,-1,66
 997 362 997 362 943 330.5 c 128,-1,67
 889 299 889 299 830 277 c 128,-1,68
 771 255 771 255 711 242 c 128,-1,69
 651 229 651 229 597 228 c 1,0,1
141 17 m 0,70,71
 196 17 196 17 250 47 c 128,-1,72
 304 77 304 77 352 121.5 c 128,-1,73
 400 166 400 166 439 217.5 c 128,-1,74
 478 269 478 269 504 312 c 1,75,76
 523 375 523 375 557 431.5 c 128,-1,77
 591 488 591 488 636 536 c 1,78,79
 635 549 635 549 631 567.5 c 128,-1,80
 627 586 627 586 614.5 603.5 c 128,-1,81
 602 621 602 621 579 633.5 c 128,-1,82
 556 646 556 646 518 646 c 0,83,84
 487 646 487 646 448.5 636.5 c 128,-1,85
 410 627 410 627 366.5 604.5 c 128,-1,86
 323 582 323 582 277 545 c 128,-1,87
 231 508 231 508 185 453 c 0,88,89
 116 370 116 370 78.5 286.5 c 128,-1,90
 41 203 41 203 41 136 c 0,91,92
 41 79 41 79 67 48 c 128,-1,93
 93 17 93 17 141 17 c 0,70,71
605 271 m 1,94,95
 672 278 672 278 731 299 c 128,-1,96
 790 320 790 320 839 350.5 c 128,-1,97
 888 381 888 381 926.5 417 c 128,-1,98
 965 453 965 453 991 490 c 128,-1,99
 1017 527 1017 527 1031 561 c 128,-1,100
 1045 595 1045 595 1045 622 c 256,101,102
 1045 649 1045 649 1030.5 665 c 128,-1,103
 1016 681 1016 681 996 681 c 0,104,105
 952 681 952 681 897 649.5 c 128,-1,106
 842 618 842 618 787 562.5 c 128,-1,107
 732 507 732 507 683.5 432 c 128,-1,108
 635 357 635 357 605 271 c 1,94,95
EndSplineSet
EndChar

StartChar: Aogonek
Encoding: 260 260 74
Width: 2330
Flags: W
LayerCount: 2
Fore
SplineSet
1808 -304 m 1,0,1
 1792 -311 1792 -311 1769.5 -319 c 128,-1,2
 1747 -327 1747 -327 1713 -327 c 0,3,4
 1651 -327 1651 -327 1620 -297.5 c 128,-1,5
 1589 -268 1589 -268 1589 -227 c 0,6,7
 1589 -190 1589 -190 1609.5 -159.5 c 128,-1,8
 1630 -129 1630 -129 1660 -104.5 c 128,-1,9
 1690 -80 1690 -80 1723.5 -62.5 c 128,-1,10
 1757 -45 1757 -45 1783 -35 c 1,11,-1
 1716 -14 l 1,12,13
 1731 21 1731 21 1746 55 c 128,-1,14
 1761 89 1761 89 1776 123 c 1,15,16
 1709 138 1709 138 1635 158 c 128,-1,17
 1561 178 1561 178 1484.5 203.5 c 128,-1,18
 1408 229 1408 229 1332 261 c 128,-1,19
 1256 293 1256 293 1186 331 c 1,20,21
 1121 256 1121 256 1045 183.5 c 128,-1,22
 969 111 969 111 882 53.5 c 128,-1,23
 795 -4 795 -4 697.5 -39.5 c 128,-1,24
 600 -75 600 -75 492 -75 c 0,25,26
 396 -75 396 -75 300.5 -46.5 c 128,-1,27
 205 -18 205 -18 129.5 36.5 c 128,-1,28
 54 91 54 91 7 169.5 c 128,-1,29
 -40 248 -40 248 -40 348 c 0,30,31
 -40 427 -40 427 -10.5 487 c 128,-1,32
 19 547 19 547 70.5 587 c 128,-1,33
 122 627 122 627 191.5 647.5 c 128,-1,34
 261 668 261 668 341 668 c 0,35,36
 402 668 402 668 467.5 656 c 128,-1,37
 533 644 533 644 595 616 c 128,-1,38
 657 588 657 588 712 542 c 128,-1,39
 767 496 767 496 806 428 c 1,40,-1
 762 400 l 1,41,42
 761 402 761 402 750.5 415.5 c 128,-1,43
 740 429 740 429 719.5 448.5 c 128,-1,44
 699 468 699 468 667 490 c 128,-1,45
 635 512 635 512 590.5 530.5 c 128,-1,46
 546 549 546 549 487.5 561.5 c 128,-1,47
 429 574 429 574 355 574 c 0,48,49
 280 574 280 574 224 548.5 c 128,-1,50
 168 523 168 523 130.5 483.5 c 128,-1,51
 93 444 93 444 74.5 395 c 128,-1,52
 56 346 56 346 56 300 c 0,53,54
 56 246 56 246 75 201.5 c 128,-1,55
 94 157 94 157 126.5 121 c 128,-1,56
 159 85 159 85 202.5 58.5 c 128,-1,57
 246 32 246 32 294.5 14 c 128,-1,58
 343 -4 343 -4 393.5 -13 c 128,-1,59
 444 -22 444 -22 492 -22 c 0,60,61
 591 -22 591 -22 682 10.5 c 128,-1,62
 773 43 773 43 854 96.5 c 128,-1,63
 935 150 935 150 1006.5 218 c 128,-1,64
 1078 286 1078 286 1139 357 c 1,65,66
 1071 398 1071 398 1013.5 445.5 c 128,-1,67
 956 493 956 493 914 547.5 c 128,-1,68
 872 602 872 602 848.5 664.5 c 128,-1,69
 825 727 825 727 825 797 c 0,70,71
 825 855 825 855 846.5 906 c 128,-1,72
 868 957 868 957 905.5 995.5 c 128,-1,73
 943 1034 943 1034 994.5 1056.5 c 128,-1,74
 1046 1079 1046 1079 1105 1079 c 0,75,76
 1171 1079 1171 1079 1230 1058.5 c 128,-1,77
 1289 1038 1289 1038 1342 1002.5 c 128,-1,78
 1395 967 1395 967 1441.5 918 c 128,-1,79
 1488 869 1488 869 1529 812 c 1,80,81
 1641 937 1641 937 1752.5 1047.5 c 128,-1,82
 1864 1158 1864 1158 1967 1241 c 128,-1,83
 2070 1324 2070 1324 2161.5 1372.5 c 128,-1,84
 2253 1421 2253 1421 2327 1421 c 0,85,86
 2356 1421 2356 1421 2383.5 1411.5 c 128,-1,87
 2411 1402 2411 1402 2432.5 1384.5 c 128,-1,88
 2454 1367 2454 1367 2467 1341.5 c 128,-1,89
 2480 1316 2480 1316 2480 1284 c 0,90,91
 2480 1222 2480 1222 2440 1143 c 128,-1,92
 2400 1064 2400 1064 2336 958 c 0,93,94
 2267 845 2267 845 2206 732.5 c 128,-1,95
 2145 620 2145 620 2092.5 515.5 c 128,-1,96
 2040 411 2040 411 1996.5 318.5 c 128,-1,97
 1953 226 1953 226 1921 153 c 1,98,99
 1961 148 1961 148 2001 145 c 128,-1,100
 2041 142 2041 142 2073 143 c 1,101,-1
 2075 91 l 1,102,103
 2068 91 2068 91 2022.5 91.5 c 128,-1,104
 1977 92 1977 92 1899 103 c 1,105,106
 1868 31 1868 31 1851.5 -9 c 128,-1,107
 1835 -49 1835 -49 1835 -51 c 1,108,109
 1821 -58 1821 -58 1795 -70.5 c 128,-1,110
 1769 -83 1769 -83 1743 -103 c 128,-1,111
 1717 -123 1717 -123 1697.5 -150 c 128,-1,112
 1678 -177 1678 -177 1678 -212 c 0,113,114
 1678 -244 1678 -244 1701 -260.5 c 128,-1,115
 1724 -277 1724 -277 1753 -277 c 0,116,117
 1774 -277 1774 -277 1792 -271 c 128,-1,118
 1810 -265 1810 -265 1818 -262 c 1,119,-1
 1808 -304 l 1,0,1
1560 766 m 1,120,121
 1607 694 1607 694 1646 617 c 128,-1,122
 1685 540 1685 540 1716.5 466 c 128,-1,123
 1748 392 1748 392 1772.5 325.5 c 128,-1,124
 1797 259 1797 259 1815 208 c 1,125,126
 1932 463 1932 463 2065 708 c 128,-1,127
 2198 953 2198 953 2364 1192 c 0,128,129
 2391 1232 2391 1232 2402.5 1258.5 c 128,-1,130
 2414 1285 2414 1285 2414 1304 c 0,131,132
 2414 1336 2414 1336 2387 1352.5 c 128,-1,133
 2360 1369 2360 1369 2325 1369 c 0,134,135
 2214 1369 2214 1369 2022.5 1217.5 c 128,-1,136
 1831 1066 1831 1066 1560 766 c 1,120,121
916 749 m 0,137,138
 916 696 916 696 936 648.5 c 128,-1,139
 956 601 956 601 991 557.5 c 128,-1,140
 1026 514 1026 514 1074 475.5 c 128,-1,141
 1122 437 1122 437 1178 403 c 1,142,143
 1253 494 1253 494 1331 586 c 128,-1,144
 1409 678 1409 678 1489 768 c 1,145,146
 1454 814 1454 814 1416.5 853.5 c 128,-1,147
 1379 893 1379 893 1338 922 c 128,-1,148
 1297 951 1297 951 1253 967 c 128,-1,149
 1209 983 1209 983 1162 983 c 0,150,151
 1109 983 1109 983 1064 965 c 128,-1,152
 1019 947 1019 947 986 915.5 c 128,-1,153
 953 884 953 884 934.5 841.5 c 128,-1,154
 916 799 916 799 916 749 c 0,137,138
1771 179 m 1,155,156
 1757 224 1757 224 1733.5 288 c 128,-1,157
 1710 352 1710 352 1678.5 425.5 c 128,-1,158
 1647 499 1647 499 1607.5 576 c 128,-1,159
 1568 653 1568 653 1521 723 c 1,160,161
 1452 645 1452 645 1378 559 c 128,-1,162
 1304 473 1304 473 1224 376 c 1,163,164
 1294 337 1294 337 1370.5 305.5 c 128,-1,165
 1447 274 1447 274 1519.5 249.5 c 128,-1,166
 1592 225 1592 225 1657.5 207 c 128,-1,167
 1723 189 1723 189 1771 179 c 1,155,156
EndSplineSet
EndChar

StartChar: aogonek
Encoding: 261 261 75
Width: 905
Flags: W
LayerCount: 2
Fore
SplineSet
578 -254 m 1,0,1
 562 -261 562 -261 539.5 -269 c 128,-1,2
 517 -277 517 -277 483 -277 c 0,3,4
 421 -277 421 -277 390 -247.5 c 128,-1,5
 359 -218 359 -218 359 -177 c 0,6,7
 359 -142 359 -142 377.5 -112.5 c 128,-1,8
 396 -83 396 -83 423.5 -59.5 c 128,-1,9
 451 -36 451 -36 483 -18.5 c 128,-1,10
 515 -1 515 -1 541 10 c 1,11,12
 495 18 495 18 474 52 c 128,-1,13
 453 86 453 86 453 137 c 0,14,15
 453 141 453 141 453.5 154.5 c 128,-1,16
 454 168 454 168 456 176 c 1,17,18
 406 113 406 113 360.5 72 c 128,-1,19
 315 31 315 31 272.5 7 c 128,-1,20
 230 -17 230 -17 190.5 -26.5 c 128,-1,21
 151 -36 151 -36 115 -36 c 0,22,23
 77 -36 77 -36 43.5 -23.5 c 128,-1,24
 10 -11 10 -11 -15.5 13 c 128,-1,25
 -41 37 -41 37 -55.5 72 c 128,-1,26
 -70 107 -70 107 -70 153 c 0,27,28
 -70 210 -70 210 -44.5 283.5 c 128,-1,29
 -19 357 -19 357 46 442 c 0,30,31
 101 515 101 515 160.5 565 c 128,-1,32
 220 615 220 615 277.5 645.5 c 128,-1,33
 335 676 335 676 387 689 c 128,-1,34
 439 702 439 702 480 702 c 0,35,36
 572 702 572 702 619 671.5 c 128,-1,37
 666 641 666 641 676 578 c 1,38,39
 696 603 696 603 718 628 c 128,-1,40
 740 653 740 653 763 679 c 1,41,-1
 795 665 l 1,42,43
 782 639 782 639 758.5 597 c 128,-1,44
 735 555 735 555 708 504.5 c 128,-1,45
 681 454 681 454 653.5 399 c 128,-1,46
 626 344 626 344 603.5 291.5 c 128,-1,47
 581 239 581 239 566.5 192.5 c 128,-1,48
 552 146 552 146 552 114 c 256,49,50
 552 82 552 82 564.5 72.5 c 128,-1,51
 577 63 577 63 597 63 c 0,52,53
 626 63 626 63 656.5 80 c 128,-1,54
 687 97 687 97 716.5 124 c 128,-1,55
 746 151 746 151 774 185 c 128,-1,56
 802 219 802 219 826.5 253.5 c 128,-1,57
 851 288 851 288 871 319.5 c 128,-1,58
 891 351 891 351 905 373 c 1,59,-1
 941 345 l 1,60,61
 918 303 918 303 886.5 253 c 128,-1,62
 855 203 855 203 815.5 155.5 c 128,-1,63
 776 108 776 108 729 69.5 c 128,-1,64
 682 31 682 31 627 13 c 0,65,66
 609 7 609 7 579 -8.5 c 128,-1,67
 549 -24 549 -24 520 -47 c 128,-1,68
 491 -70 491 -70 469.5 -99 c 128,-1,69
 448 -128 448 -128 448 -162 c 0,70,71
 448 -194 448 -194 471 -210.5 c 128,-1,72
 494 -227 494 -227 523 -227 c 0,73,74
 544 -227 544 -227 562 -221 c 128,-1,75
 580 -215 580 -215 588 -212 c 1,76,-1
 578 -254 l 1,0,1
488 285 m 1,77,78
 501 306 501 306 520 338.5 c 128,-1,79
 539 371 539 371 560 405.5 c 128,-1,80
 581 440 581 440 601 472 c 128,-1,81
 621 504 621 504 636 526 c 1,82,83
 636 535 636 535 633.5 555 c 128,-1,84
 631 575 631 575 620 595.5 c 128,-1,85
 609 616 609 616 585 631 c 128,-1,86
 561 646 561 646 518 646 c 0,87,88
 487 646 487 646 448.5 636.5 c 128,-1,89
 410 627 410 627 366.5 604.5 c 128,-1,90
 323 582 323 582 277 545 c 128,-1,91
 231 508 231 508 185 453 c 0,92,93
 116 370 116 370 78.5 286.5 c 128,-1,94
 41 203 41 203 41 136 c 0,95,96
 41 79 41 79 67 48 c 128,-1,97
 93 17 93 17 141 17 c 0,98,99
 196 17 196 17 244 41.5 c 128,-1,100
 292 66 292 66 334 105 c 128,-1,101
 376 144 376 144 414 191.5 c 128,-1,102
 452 239 452 239 488 285 c 1,77,78
EndSplineSet
EndChar

StartChar: Ccedilla
Encoding: 199 199 76
Width: 1316
Flags: W
LayerCount: 2
Fore
SplineSet
640 689 m 1,0,1
 641 687 641 687 655 675.5 c 128,-1,2
 669 664 669 664 694.5 650 c 128,-1,3
 720 636 720 636 757 625 c 128,-1,4
 794 614 794 614 841 614 c 0,5,6
 920 614 920 614 990 644 c 128,-1,7
 1060 674 1060 674 1119.5 723 c 128,-1,8
 1179 772 1179 772 1226.5 835 c 128,-1,9
 1274 898 1274 898 1307 964 c 128,-1,10
 1340 1030 1340 1030 1358 1094 c 128,-1,11
 1376 1158 1376 1158 1376 1209 c 0,12,13
 1376 1270 1376 1270 1358 1315 c 128,-1,14
 1340 1360 1340 1360 1309.5 1389 c 128,-1,15
 1279 1418 1279 1418 1237.5 1432 c 128,-1,16
 1196 1446 1196 1446 1148 1446 c 0,17,18
 1053 1446 1053 1446 959.5 1412.5 c 128,-1,19
 866 1379 866 1379 778 1321 c 128,-1,20
 690 1263 690 1263 609 1184.5 c 128,-1,21
 528 1106 528 1106 458 1016 c 128,-1,22
 388 926 388 926 331 828.5 c 128,-1,23
 274 731 274 731 233.5 635 c 128,-1,24
 193 539 193 539 171 448.5 c 128,-1,25
 149 358 149 358 149 282 c 0,26,27
 149 194 149 194 174.5 116 c 128,-1,28
 200 38 200 38 251 -20 c 128,-1,29
 302 -78 302 -78 378.5 -111.5 c 128,-1,30
 455 -145 455 -145 557 -145 c 0,31,32
 648 -145 648 -145 746 -117 c 128,-1,33
 844 -89 844 -89 941.5 -27 c 128,-1,34
 1039 35 1039 35 1134 133.5 c 128,-1,35
 1229 232 1229 232 1316 373 c 1,36,-1
 1352 345 l 1,37,38
 1258 192 1258 192 1156 88 c 128,-1,39
 1054 -16 1054 -16 952 -79.5 c 128,-1,40
 850 -143 850 -143 751 -170.5 c 128,-1,41
 652 -198 652 -198 563 -198 c 0,42,43
 552 -198 552 -198 542 -197.5 c 128,-1,44
 532 -197 532 -197 521 -196 c 1,45,-1
 476 -263 l 1,46,47
 488 -260 488 -260 498 -259.5 c 128,-1,48
 508 -259 508 -259 518 -259 c 0,49,50
 537 -259 537 -259 557 -264.5 c 128,-1,51
 577 -270 577 -270 593.5 -282 c 128,-1,52
 610 -294 610 -294 620.5 -312.5 c 128,-1,53
 631 -331 631 -331 631 -356 c 256,54,55
 631 -381 631 -381 617.5 -404 c 128,-1,56
 604 -427 604 -427 578.5 -445 c 128,-1,57
 553 -463 553 -463 517.5 -473.5 c 128,-1,58
 482 -484 482 -484 437 -484 c 0,59,60
 381 -484 381 -484 343 -469 c 128,-1,61
 305 -454 305 -454 287 -443 c 1,62,-1
 307 -405 l 1,63,64
 329 -415 329 -415 356.5 -426.5 c 128,-1,65
 384 -438 384 -438 432 -438 c 0,66,67
 453 -438 453 -438 473 -433.5 c 128,-1,68
 493 -429 493 -429 509 -420 c 128,-1,69
 525 -411 525 -411 535 -397 c 128,-1,70
 545 -383 545 -383 545 -364 c 0,71,72
 545 -348 545 -348 538.5 -337 c 128,-1,73
 532 -326 532 -326 523 -319 c 128,-1,74
 514 -312 514 -312 503 -309.5 c 128,-1,75
 492 -307 492 -307 483 -307 c 0,76,77
 469 -307 469 -307 458 -309.5 c 128,-1,78
 447 -312 447 -312 438 -315 c 0,79,80
 427 -319 427 -319 419 -322 c 1,81,-1
 400 -296 l 1,82,-1
 473 -191 l 1,83,84
 366 -175 366 -175 285.5 -125.5 c 128,-1,85
 205 -76 205 -76 150 -5 c 128,-1,86
 95 66 95 66 67.5 152.5 c 128,-1,87
 40 239 40 239 40 328 c 0,88,89
 40 412 40 412 63.5 507 c 128,-1,90
 87 602 87 602 130 700 c 128,-1,91
 173 798 173 798 233.5 896 c 128,-1,92
 294 994 294 994 368.5 1083.5 c 128,-1,93
 443 1173 443 1173 530 1250 c 128,-1,94
 617 1327 617 1327 712.5 1383.5 c 128,-1,95
 808 1440 808 1440 909.5 1472.5 c 128,-1,96
 1011 1505 1011 1505 1116 1505 c 0,97,98
 1182 1505 1182 1505 1242.5 1486.5 c 128,-1,99
 1303 1468 1303 1468 1349 1428 c 128,-1,100
 1395 1388 1395 1388 1422 1325.5 c 128,-1,101
 1449 1263 1449 1263 1449 1175 c 0,102,103
 1449 1116 1449 1116 1431 1047 c 128,-1,104
 1413 978 1413 978 1378.5 908.5 c 128,-1,105
 1344 839 1344 839 1294.5 774 c 128,-1,106
 1245 709 1245 709 1182.5 659.5 c 128,-1,107
 1120 610 1120 610 1044.5 580 c 128,-1,108
 969 550 969 550 884 550 c 0,109,110
 793 550 793 550 725.5 580.5 c 128,-1,111
 658 611 658 611 610 656 c 1,112,-1
 640 689 l 1,113,-1
 640 689 l 1,0,1
EndSplineSet
EndChar

StartChar: ccedilla
Encoding: 231 231 77
Width: 693
Flags: W
LayerCount: 2
Fore
SplineSet
564 607 m 1,0,1
 570 623 570 623 570 641 c 0,2,3
 570 673 570 673 544.5 691.5 c 128,-1,4
 519 710 519 710 464 710 c 0,5,6
 419 710 419 710 373.5 690.5 c 128,-1,7
 328 671 328 671 286 637 c 128,-1,8
 244 603 244 603 207.5 556 c 128,-1,9
 171 509 171 509 144.5 454 c 128,-1,10
 118 399 118 399 102.5 337.5 c 128,-1,11
 87 276 87 276 87 214 c 0,12,13
 87 164 87 164 98 129 c 128,-1,14
 109 94 109 94 129 72 c 128,-1,15
 149 50 149 50 177 40.5 c 128,-1,16
 205 31 205 31 240 31 c 0,17,18
 309 31 309 31 374 62 c 128,-1,19
 439 93 439 93 497.5 142.5 c 128,-1,20
 556 192 556 192 605.5 253 c 128,-1,21
 655 314 655 314 693 373 c 1,22,-1
 730 345 l 1,23,24
 676 254 676 254 615 185.5 c 128,-1,25
 554 117 554 117 490 71 c 128,-1,26
 426 25 426 25 360 2 c 128,-1,27
 294 -21 294 -21 231 -21 c 0,28,29
 226 -21 226 -21 220.5 -21 c 128,-1,30
 215 -21 215 -21 210 -20 c 1,31,-1
 158 -96 l 1,32,33
 170 -93 170 -93 180 -92.5 c 128,-1,34
 190 -92 190 -92 200 -92 c 0,35,36
 219 -92 219 -92 239 -97.5 c 128,-1,37
 259 -103 259 -103 275.5 -115 c 128,-1,38
 292 -127 292 -127 302.5 -145.5 c 128,-1,39
 313 -164 313 -164 313 -189 c 256,40,41
 313 -214 313 -214 299.5 -237 c 128,-1,42
 286 -260 286 -260 260.5 -278 c 128,-1,43
 235 -296 235 -296 199.5 -306.5 c 128,-1,44
 164 -317 164 -317 119 -317 c 0,45,46
 63 -317 63 -317 25 -302 c 128,-1,47
 -13 -287 -13 -287 -31 -276 c 1,48,-1
 -11 -238 l 1,49,50
 11 -248 11 -248 38.5 -259.5 c 128,-1,51
 66 -271 66 -271 114 -271 c 0,52,53
 135 -271 135 -271 155 -266.5 c 128,-1,54
 175 -262 175 -262 191 -253 c 128,-1,55
 207 -244 207 -244 217 -230 c 128,-1,56
 227 -216 227 -216 227 -197 c 0,57,58
 227 -181 227 -181 220.5 -170 c 128,-1,59
 214 -159 214 -159 205 -152 c 128,-1,60
 196 -145 196 -145 185 -142.5 c 128,-1,61
 174 -140 174 -140 165 -140 c 0,62,63
 151 -140 151 -140 140 -142.5 c 128,-1,64
 129 -145 129 -145 120 -148 c 0,65,66
 109 -152 109 -152 101 -155 c 1,67,-1
 82 -129 l 1,68,-1
 163 -14 l 1,69,70
 124 -6 124 -6 90.5 13 c 128,-1,71
 57 32 57 32 32.5 62.5 c 128,-1,72
 8 93 8 93 -6 135 c 128,-1,73
 -20 177 -20 177 -20 232 c 0,74,75
 -20 310 -20 310 2.5 379.5 c 128,-1,76
 25 449 25 449 62.5 508 c 128,-1,77
 100 567 100 567 149 614.5 c 128,-1,78
 198 662 198 662 251.5 695 c 128,-1,79
 305 728 305 728 359.5 745.5 c 128,-1,80
 414 763 414 763 462 763 c 0,81,82
 511 763 511 763 542 749.5 c 128,-1,83
 573 736 573 736 591 717 c 128,-1,84
 609 698 609 698 615.5 677 c 128,-1,85
 622 656 622 656 622 641 c 0,86,87
 622 617 622 617 615 590 c 128,-1,88
 608 563 608 563 595.5 540.5 c 128,-1,89
 583 518 583 518 564.5 503 c 128,-1,90
 546 488 546 488 524 488 c 256,91,92
 502 488 502 488 486 502.5 c 128,-1,93
 470 517 470 517 470 539 c 0,94,95
 470 540 470 540 471.5 551 c 128,-1,96
 473 562 473 562 481 574.5 c 128,-1,97
 489 587 489 587 505.5 597 c 128,-1,98
 522 607 522 607 552 607 c 2,99,-1
 564 607 l 1,100,-1
 564 607 l 1,0,1
EndSplineSet
EndChar

StartChar: Eth
Encoding: 208 208 88
Width: 2000
Flags: W
LayerCount: 2
Fore
SplineSet
1598 1438 m 1,0,1
 1548 1385 1548 1385 1505 1327 c 1,2,3
 1599 1275 1599 1275 1672.5 1202.5 c 128,-1,4
 1746 1130 1746 1130 1796.5 1043 c 128,-1,5
 1847 956 1847 956 1873.5 856.5 c 128,-1,6
 1900 757 1900 757 1900 651 c 0,7,8
 1900 557 1900 557 1881.5 464 c 128,-1,9
 1863 371 1863 371 1823.5 286.5 c 128,-1,10
 1784 202 1784 202 1723 129.5 c 128,-1,11
 1662 57 1662 57 1577 3.5 c 128,-1,12
 1492 -50 1492 -50 1383 -80.5 c 128,-1,13
 1274 -111 1274 -111 1138 -111 c 0,14,15
 1017 -111 1017 -111 908 -88.5 c 128,-1,16
 799 -66 799 -66 699 -39 c 1,17,18
 622 -91 622 -91 530.5 -120 c 128,-1,19
 439 -149 439 -149 324 -149 c 0,20,21
 277 -149 277 -149 243 -140.5 c 128,-1,22
 209 -132 209 -132 187.5 -117 c 128,-1,23
 166 -102 166 -102 155.5 -82.5 c 128,-1,24
 145 -63 145 -63 145 -42 c 0,25,26
 145 -17 145 -17 157.5 5.5 c 128,-1,27
 170 28 170 28 195.5 45 c 128,-1,28
 221 62 221 62 260.5 72 c 128,-1,29
 300 82 300 82 353 82 c 0,30,31
 426 82 426 82 498.5 66.5 c 128,-1,32
 571 51 571 51 646 31 c 1,33,34
 709 88 709 88 761 162.5 c 128,-1,35
 813 237 813 237 861 327 c 1,36,-1
 582 327 l 1,37,-1
 612 392 l 1,38,-1
 895 392 l 1,39,40
 950 501 950 501 1004.5 621.5 c 128,-1,41
 1059 742 1059 742 1119 862.5 c 128,-1,42
 1179 983 1179 983 1249.5 1099.5 c 128,-1,43
 1320 1216 1320 1216 1408 1317 c 1,44,45
 1333 1349 1333 1349 1245.5 1366.5 c 128,-1,46
 1158 1384 1158 1384 1058 1384 c 0,47,48
 936 1384 936 1384 823 1359 c 128,-1,49
 710 1334 710 1334 612 1290 c 128,-1,50
 514 1246 514 1246 433 1187 c 128,-1,51
 352 1128 352 1128 294.5 1059.5 c 128,-1,52
 237 991 237 991 205.5 916.5 c 128,-1,53
 174 842 174 842 174 768 c 0,54,55
 174 720 174 720 193 677 c 128,-1,56
 212 634 212 634 245 601.5 c 128,-1,57
 278 569 278 569 323 550 c 128,-1,58
 368 531 368 531 421 531 c 0,59,60
 462 531 462 531 502.5 540.5 c 128,-1,61
 543 550 543 550 580 564 c 128,-1,62
 617 578 617 578 649 594.5 c 128,-1,63
 681 611 681 611 705 625.5 c 128,-1,64
 729 640 729 640 742.5 649.5 c 128,-1,65
 756 659 756 659 757 660 c 1,66,-1
 789 618 l 1,67,68
 742 587 742 587 691.5 558.5 c 128,-1,69
 641 530 641 530 587 507.5 c 128,-1,70
 533 485 533 485 475 471.5 c 128,-1,71
 417 458 417 458 357 458 c 256,72,73
 297 458 297 458 243 478.5 c 128,-1,74
 189 499 189 499 148.5 536.5 c 128,-1,75
 108 574 108 574 84 626 c 128,-1,76
 60 678 60 678 60 741 c 0,77,78
 60 813 60 813 92.5 892 c 128,-1,79
 125 971 125 971 185.5 1048.5 c 128,-1,80
 246 1126 246 1126 334 1196 c 128,-1,81
 422 1266 422 1266 532.5 1319.5 c 128,-1,82
 643 1373 643 1373 775.5 1404.5 c 128,-1,83
 908 1436 908 1436 1058 1436 c 0,84,85
 1167 1436 1167 1436 1263.5 1415.5 c 128,-1,86
 1360 1395 1360 1395 1444 1357 c 1,87,88
 1501 1418 1501 1418 1567 1471 c 1,89,-1
 1598 1438 l 1,0,1
999 327 m 1,90,91
 946 230 946 230 886 147 c 128,-1,92
 826 64 826 64 751 1 c 1,93,94
 831 -21 831 -21 911 -37.5 c 128,-1,95
 991 -54 991 -54 1076 -54 c 0,96,97
 1252 -54 1252 -54 1386 6.5 c 128,-1,98
 1520 67 1520 67 1610 171.5 c 128,-1,99
 1700 276 1700 276 1745.5 417 c 128,-1,100
 1791 558 1791 558 1791 719 c 0,101,102
 1791 812 1791 812 1770 896 c 128,-1,103
 1749 980 1749 980 1708.5 1052 c 128,-1,104
 1668 1124 1668 1124 1609 1183 c 128,-1,105
 1550 1242 1550 1242 1474 1284 c 1,106,107
 1403 1182 1403 1182 1345 1069.5 c 128,-1,108
 1287 957 1287 957 1235.5 841.5 c 128,-1,109
 1184 726 1184 726 1135 611.5 c 128,-1,110
 1086 497 1086 497 1033 392 c 1,111,-1
 1348 392 l 1,112,-1
 1318 327 l 1,113,-1
 999 327 l 1,90,91
320 -97 m 0,114,115
 401 -97 401 -97 468.5 -74.5 c 128,-1,116
 536 -52 536 -52 594 -10 c 1,117,118
 528 7 528 7 468 18.5 c 128,-1,119
 408 30 408 30 353 30 c 0,120,121
 275 30 275 30 236.5 9.5 c 128,-1,122
 198 -11 198 -11 198 -40 c 0,123,124
 198 -63 198 -63 225.5 -80 c 128,-1,125
 253 -97 253 -97 320 -97 c 0,114,115
EndSplineSet
EndChar

